<?xml version="1.0" encoding="UTF-8"?>
<svg width="100px" height="100px" viewBox="0 0 100 100" version="1.1" xmlns="http://www.w3.org/2000/svg" xmlns:xlink="http://www.w3.org/1999/xlink">
    <!-- Generator: Sketch 44.1 (41455) - http://www.bohemiancoding.com/sketch -->
    <title>digitCaptureIcon</title>
    <desc>Created with Sketch.</desc>
    <defs></defs>
    <g id="Page-1" stroke="none" stroke-width="1" fill="none" fill-rule="evenodd">
        <g id="digitCaptureIcon">
            <g id="icon">
                <circle id="Oval-Copy-13" fill="#C8B4FB" cx="50" cy="50" r="50"></circle>
                <path d="M44.7296575,34.4603704 C43.8058255,33.3805224 43.2478866,31.9783151 43.2478866,30.4457941 C43.2478866,27.0333539 46.014216,24.2670246 49.4266562,24.2670246 C52.8390964,24.2670246 55.6054257,27.0333539 55.6054257,30.4457941 C55.6054257,31.7694849 55.1891828,32.9959569 54.4804469,34.0014602 L54.0722184,30.6589399 C53.8195811,28.5903798 52.1779089,26.9669316 50.1066576,26.7374004 C47.6399827,26.4640493 45.4187528,28.2420894 45.1454017,30.7087643 L44.7296575,34.4603704 L44.7296575,34.4603704 Z M34.8222918,36.6245637 C31.4098516,36.6245637 28.6435222,33.8582343 28.6435222,30.4457941 C28.6435222,27.0333539 31.4098516,24.2670246 34.8222918,24.2670246 C38.234732,24.2670246 41.0010613,27.0333539 41.0010613,30.4457941 C41.0010613,33.8582343 38.234732,36.6245637 34.8222918,36.6245637 Z M34.8222918,51.228928 C31.4098516,51.228928 28.6435222,48.4625987 28.6435222,45.0501585 C28.6435222,41.6377183 31.4098516,38.8713889 34.8222918,38.8713889 C38.234732,38.8713889 41.0010613,41.6377183 41.0010613,45.0501585 C41.0010613,48.4625987 38.234732,51.228928 34.8222918,51.228928 Z M64.0310206,36.6245637 C60.6185804,36.6245637 57.852251,33.8582343 57.852251,30.4457941 C57.852251,27.0333539 60.6185804,24.2670246 64.0310206,24.2670246 C67.4434607,24.2670246 70.2097901,27.0333539 70.2097901,30.4457941 C70.2097901,33.8582343 67.4434607,36.6245637 64.0310206,36.6245637 Z M49.4266562,22.0201993 C46.014216,22.0201993 43.2478866,19.2538699 43.2478866,15.8414297 C43.2478866,12.4289895 46.014216,9.66266016 49.4266562,9.66266016 C52.8390964,9.66266016 55.6054257,12.4289895 55.6054257,15.8414297 C55.6054257,19.2538699 52.8390964,22.0201993 49.4266562,22.0201993 Z M34.8222918,22.0201993 C31.4098516,22.0201993 28.6435222,19.2538699 28.6435222,15.8414297 C28.6435222,12.4289895 31.4098516,9.66266016 34.8222918,9.66266016 C38.234732,9.66266016 41.0010613,12.4289895 41.0010613,15.8414297 C41.0010613,19.2538699 38.234732,22.0201993 34.8222918,22.0201993 Z M64.0310206,22.0201993 C60.6185804,22.0201993 57.852251,19.2538699 57.852251,15.8414297 C57.852251,12.4289895 60.6185804,9.66266016 64.0310206,9.66266016 C67.4434607,9.66266016 70.2097901,12.4289895 70.2097901,15.8414297 C70.2097901,19.2538699 67.4434607,22.0201993 64.0310206,22.0201993 Z M64.0310206,51.228928 C60.6185804,51.228928 57.852251,48.4625987 57.852251,45.0501585 C57.852251,41.6377183 60.6185804,38.8713889 64.0310206,38.8713889 C67.4434607,38.8713889 70.2097901,41.6377183 70.2097901,45.0501585 C70.2097901,48.4625987 67.4434607,51.228928 64.0310206,51.228928 Z M51.841965,30.9313251 L55.1949219,58.3848871 C55.4205732,60.2324895 57.1012773,61.5473406 58.9488798,61.3216894 C59.7517058,61.2236387 60.4924991,60.8401483 61.0360338,60.2412213 L66.0183858,54.7511119 C67.1968878,53.4525074 69.2049794,53.355145 70.503584,54.5336471 C71.4284683,55.3729926 71.7753932,56.6765778 71.3900587,57.8646137 L61.9161968,87.0737514 C61.6157528,88.0000592 60.7527925,88.6273789 59.7789788,88.6273789 L37.4286063,88.6273789 C36.4461383,88.6273789 35.5776054,87.9890507 35.2842664,87.0513964 L29.5326105,68.6663051 C28.7474862,66.1566656 29.8085153,63.4382205 32.0861247,62.1239885 L44.7333365,54.8262621 L47.3785566,30.9562373 C47.5152322,29.7228999 48.6258472,28.8338798 49.8591846,28.9705553 C50.8948102,29.0853209 51.7156464,29.897045 51.841965,30.9313251 L51.841965,30.9313251 Z" id="Combined-Shape" fill="#FFFFFF"></path>
            </g>
        </g>
    </g>
</svg>