<?xml version="1.0" encoding="UTF-8"?>
<svg width="100px" height="100px" viewBox="0 0 100 100" version="1.1" xmlns="http://www.w3.org/2000/svg" xmlns:xlink="http://www.w3.org/1999/xlink">
    <!-- Generator: Sketch 44.1 (41455) - http://www.bohemiancoding.com/sketch -->
    <title>icon</title>
    <desc>Created with Sketch.</desc>
    <defs></defs>
    <g id="Page-1" stroke="none" stroke-width="1" fill="none" fill-rule="evenodd">
        <g id="geoRoutingIcon">
            <g id="icon">
                <circle id="Oval-Copy-11" fill="#662186" cx="50" cy="50" r="50"></circle>
                <g id="geo-map" transform="translate(12.000000, 5.000000)" fill="#FFFFFF">
                    <path d="M33.7191489,0.237373311 C37.7215329,2.34615182 40.4663912,-2.84217094e-14 44.6045381,-2.84217094e-14 C44.9695203,-2.84217094e-14 43.8116645,1.4982056 43.8946515,1.66486486 C43.9945497,1.8654861 44.3358791,2.8622675 44.2491326,3.21034628 C44.2060089,3.38338481 40.2779604,6.63175642 40.10859,6.77837838 C39.3987034,7.3929186 39.7005889,10.175729 39.6353323,10.3459459 C39.6046922,10.4258683 38.1190174,11.7068917 38.3338736,11.8918919 C38.6648069,12.1768392 41.906303,11.0004487 43.0664506,10.7027027 C45.3060957,10.1279091 46.1012176,10.7452053 48.1539708,10.8216216 C48.863371,10.8480299 52.0803553,11.4705481 52.1771234,12.2486486 C52.5648656,15.3664347 50.8064692,13.8164835 50.4019449,15.5783784 C50.1584646,16.6388504 50.0816552,17.7352118 49.8099106,18.7887247 C49.7212257,19.1325428 45.7034237,23.7992583 45.5510535,24.7351351 C45.3986832,25.6710119 48.0976276,25.1169753 47.3253077,26.2806166 C46.8239305,27.036033 43.2842667,27.0067819 43.8946515,28.5405405 C44.2365583,29.3996747 47.4833395,28.9616343 48.5738484,29.2540541 C49.6643573,29.5464738 51.3936502,31.5581086 51.7034036,31.9891892 C52.2265533,32.7172513 52.8789251,35.2786086 53.1231767,36.0324324 C53.4520352,37.0473754 54.3050326,37.8128839 54.7800408,38.7675676 C55.3362706,39.8854927 55.317735,41.5500367 56.0810373,42.572973 C56.8516058,43.6056469 56.7534691,42.3865674 57.7379014,43.4054054 C58.3202591,44.0081164 57.8233732,44.2143792 59.0388979,44.5945946 C59.482837,44.6564638 59.6314521,44.3854994 60.2225043,44.5945946 C61.5518373,44.9605258 61.0965701,47.1732815 61.1685575,48.0432432 C61.3371903,48.4476721 61.7838924,48.3278456 61.8789063,48.5189189 C62.0198915,48.8024409 61.3262178,49.8666975 61.286872,49.9459459 C61.1970797,50.1268011 61.0876672,50.7389417 61.286872,50.9141364 C61.4195542,51.0308265 62.4286228,51.4740851 62.4704784,51.6108108 C62.5985806,52.0292701 62.8966674,52.8411106 62.5883306,52.9189189 C62.2799939,52.9967272 61.5784119,52.5982791 61.3888373,53.0400153 C61.1992627,53.4817515 62.9269873,54.1865366 63.6536226,54.8216216 C63.8532084,54.9960612 63.9487041,55.2760844 64.0081037,55.5351351 C64.0701033,55.8055245 63.908934,56.1086113 64.0081037,56.3675676 C64.1187878,56.6565906 64.5288112,56.7797986 64.600138,57.0810811 C64.7370454,57.6593743 64.8257904,58.5197503 64.5992137,58.8644003 C64.3726369,59.2090504 62.2768887,60.076032 63.0615883,60.7675676 C63.433633,61.095441 65.5316972,61.5401815 65.9011345,61.2432432 C68.3523749,59.273039 67.5550812,59.5332031 69.923825,59.6972973 C70.4208553,59.7674699 71.8994101,60.2891047 72.5272045,61.4810811 C72.8463299,62.1945946 72.9782446,64.0636891 72.8812234,64.8103463 C72.8556823,65.0069062 72.6068416,65.1053423 72.5267423,65.2864865 C72.4451186,65.4710782 72.5144823,65.7093193 72.4079657,65.8806166 C72.3034711,66.0486621 71.9892085,66.0472591 71.9351702,66.2378378 C71.8868293,66.4083232 72.2447826,66.5521293 72.171799,66.7135135 C72.010243,67.0707526 70.3310637,68.6254119 70.1604538,68.8540541 C69.8430242,69.2794559 69.9310452,70.0590594 69.4501051,70.2806166 C68.8039247,70.5782958 68.0308323,70.1263382 67.3209076,70.1621622 C66.968469,70.1799468 67.0425151,70.9246328 67.0842788,70.9945946 C67.2427546,71.2600705 67.2882238,71.3851021 66.9659643,72.1837838 C66.8709029,72.4193823 67.1237676,72.7202296 66.9655022,72.8968328 C66.7055441,73.1869115 66.5950186,73.2127111 65.9006724,73.3725084 C65.2063261,73.5323057 65.4911935,74.3243243 66.1382255,74.3243243 C66.9275137,74.3243243 67.7383458,74.0128847 68.504514,74.2054054 C68.9373835,74.3141757 68.9782339,74.9587521 69.4510294,75.1567568 C69.923825,75.3547614 71.0177773,74.7312811 71.4619125,74.8 C71.6718208,74.8324781 71.7865079,75.2003001 71.6985413,75.3945946 C69.9659421,79.2214375 71.4980688,75.1204157 70.5153971,76.1081081 C70.2137835,76.4112627 70.1404494,76.9130381 69.8050484,77.1779139 C69.5494138,77.3797958 68.6453301,77.3997255 68.3857374,77.6540541 C68.1261447,77.9083826 68.1268585,78.5525689 67.7937032,78.8427787 C67.3538983,79.2258904 64.0508541,80.7180453 63.0611262,80.6265625 C62.0713983,80.5350797 60.7503553,79.8429635 60.1037277,79.9135135 C59.2486413,80.0068074 57.7352907,80.8572057 56.7904617,80.7454814 C54.7073608,80.4991586 57.9923884,79.7490748 54.897893,80.0324324 C53.0215808,80.2042431 53.9758256,80.4969513 52.6494568,81.1022382 C52.0976035,81.3540758 51.012177,80.4371806 50.6385737,80.8648649 C49.6984709,83.276544 47.9266719,82.4103463 46.7337356,81.8157517 C44.6088441,81.2518818 46.5177659,79.9783176 43.4213938,81.4594595 C43.0420562,81.6409147 42.2340021,82.5669306 42.1199352,82.7675676 C41.896893,83.1598857 41.8440316,83.6350344 41.2917342,84.3135135 C40.9315851,84.7559447 40.9111632,85.6883214 40.3447566,85.740076 C39.6692378,85.8018006 39.2890609,84.8688834 38.6888169,84.5513514 C37.8312379,84.0976879 35.0089256,84.1407574 34.1928687,84.5513514 C31.0417614,86.1368114 33.2993435,87.9641443 31.7720736,87.9641443 C30.2448036,87.9641443 31.9861461,86.9013669 31.2350081,86.3351351 C30.0253448,85.4232523 29.5574786,87.159936 29.1048863,87.5238598 C28.8918078,87.6951936 28.7788264,85.9681627 28.8687196,85.8594595 C30.5342782,83.8453864 31.9244054,83.7756517 32.2998379,83.4810811 C33.3233328,82.67803 32.9567915,83.165897 34.1928687,82.0540541 C34.6105542,81.6783488 34.872203,81.1549369 35.2576985,80.7459459 C35.6524048,80.3271829 36.6619791,79.9960985 36.3225284,79.2 C36.0945542,78.6653425 35.2416961,79.0576079 35.9675851,78.1297297 C36.2037518,77.5919961 37.1960793,78.3713418 37.8804024,77.7812909 C38.045513,77.2502374 37.733133,76.4078571 38.0977069,75.9891892 C38.4393455,75.5968597 39.1193313,75.7026856 39.6357944,75.7513514 C40.4072482,75.8240447 41.1167194,76.2358077 41.8837685,76.3459459 C42.5084368,76.4356402 43.1525035,76.4382232 43.7767993,76.3459459 C44.5057247,76.2382033 45.2245654,76.0317828 45.9064589,75.7513514 C46.1128385,75.6664769 46.5339067,75.0622981 46.3792545,74.8 C46.2246023,74.5377019 45.8587483,74.7253176 45.6693679,74.5621622 C45.4702561,74.3906229 49.1783611,72.3072899 48.7455429,71.4702703 C48.3127248,70.6332506 46.1561927,72.2916625 45.195648,73.0157517 C45.0087816,73.1566176 43.9758746,73.4744636 43.8946515,73.6108108 C43.7752438,73.8112578 43.8790964,74.3685561 43.6575605,74.4427787 C41.9366884,75.0193335 40.2623559,73.0148454 39.5170178,72.7783784 C37.0545763,71.9971405 38.695158,72.8173217 37.5052104,73.0157517 C36.6940656,73.1510144 37.8381255,71.7392122 36.6774716,71.4702703 C35.2888491,71.1485044 35.2998567,72.3612476 34.310721,72.540076 C33.749233,72.3940694 33.7904678,72.7234561 33.6008344,72.7779139 C33.2619644,72.8752285 32.8065058,72.1572124 32.7730956,72.0648649 C32.6922294,71.8413464 32.8691997,71.5686903 32.7730956,71.3513514 C32.6300738,71.0279081 31.1631272,70.7157698 31.7082658,69.9243243 C32.7154875,68.4620152 33.4233164,69.0222472 35.1393841,68.4972973 C38.4410098,67.4873207 36.9440793,67.5824042 37.9789303,65.7621622 C38.6816525,64.5261153 39.724854,65.3930996 39.0437601,63.2648649 C38.8276676,62.5896341 38.3276237,62.0319793 38.0967826,61.3616976 C37.967188,60.9854004 38.2119318,60.4950298 37.9789303,60.172973 C37.5051006,59.5180412 36.4229132,60.5502814 36.2037518,60.6481841 C35.9575455,60.7877493 36.1210884,61.2704739 35.8488085,61.3616976 C35.4012224,61.5116553 35.2600491,60.3186684 35.376013,60.172973 C35.6084362,59.8809596 37.0161844,59.1142662 37.1511915,58.7459459 C37.3147992,58.2995989 36.849876,57.6861074 37.1507293,57.3189189 C37.5235304,56.863919 38.2830471,56.9878803 38.8075934,56.7243243 C39.0071451,56.6240605 39.9771397,55.9567225 40.345681,55.8918919 C41.5597917,55.6783161 42.7857547,55.5133025 44.012966,55.4162162 C44.6287729,55.3674989 45.7944993,56.2809623 46.1668604,55.4514622 C46.5392216,54.6219621 44.3044505,54.9375654 44.6045381,54.1081081 C44.7250864,53.7749065 44.9772479,52.1161191 45.0777958,51.6108108 C45.140153,51.2974319 45.5236335,49.6502539 45.6693679,49.1135135 C45.7673438,48.7526679 46.8644851,47.9812579 46.3792545,47.5675676 C45.23447,46.5749459 43.0014972,50.3971138 42.0016207,47.0918919 C41.8524727,46.5988637 42.3193354,44.849864 42.356564,44.4756757 C42.4782788,43.2523093 42.3151713,41.1687078 42.4748784,40.7891892 C42.6486816,40.3929476 44.9007574,39.898386 44.3679092,39.1243243 C44.012966,38.6911674 41.4393085,39.603075 40.8184765,39.9567568 C40.6070068,40.0772289 40.9950382,40.4157385 40.1081278,40.7887247 C38.9456366,40.4761851 38.7069232,41.0500263 38.3334114,41.0265625 C38.0162799,41.0066405 37.2393352,39.8320603 36.6271822,40.3396141 C36.0150293,40.847168 37.1013675,41.5255626 36.9136383,41.9779139 C36.5151086,42.9382088 35.0260669,40.80369 34.3111831,40.7891892 C33.5962994,40.7746884 33.6631708,43.6487049 32.4181524,41.1459459 C31.988135,40.2815171 32.942075,38.0540541 34.1928687,36.2702703 C34.4115913,35.9583454 35.229362,34.8283493 35.2576985,34.1297297 C35.2860351,33.4311101 34.2286284,32.8633018 33.9557777,32.4644003 C33.753551,32.1687496 34.0648392,31.6715542 33.8379254,31.3945946 C33.4552428,30.9275113 32.4747388,30.0969964 31.8692295,30.4062553 C31.2637201,30.7155141 32.492512,31.2439708 32.6552434,31.6324324 C32.8388943,32.070832 32.5726398,32.5910034 32.6547812,33.0594595 C32.6946947,33.2870882 33.0343302,35.6963245 32.8909479,36.0319679 C32.6933144,36.4946078 32.2008501,35.9702765 31.7082658,35.2 C31.4982474,34.8715847 30.6927722,33.0594595 30.4068071,33.1783784 C30.1208421,33.2972973 29.6654933,34.334412 29.4602917,34.9621622 C29.197535,35.7659845 29.965408,36.4643851 28.9865719,36.7454814 C28.5689095,36.8654232 27.2111767,35.8876452 27.8038898,35.4378378 C28.3966029,34.9880305 30.3263325,30.4303962 29.815235,29.9675676 C29.3041375,29.504739 28.034918,30.6030588 27.8034276,30.6806166 C27.4799008,30.8933431 27.3874785,31.784086 27.0940032,32.227027 C26.800528,32.6699681 25.5821292,33.0469898 24.9643436,32.5837838 C24.346558,32.1205778 25.4376013,31.7511917 25.319749,31.3945946 C25.2018968,31.0379975 23.8255082,31.1719186 23.8995138,30.8 C24.051385,30.0367641 26.9965874,29.5436431 27.4489465,28.8972973 C27.9013057,28.2509515 27.8566686,27.5853376 28.0405186,27.2324324 C28.3124855,26.7103847 28.8984476,26.4146396 29.2236629,25.9243243 C29.3829251,25.6842105 30.0481355,24.1085623 30.4068071,23.6648649 C30.566049,23.4678735 32.1025076,22.7997704 30.9983793,22.2378378 C29.8942509,21.6759053 29.2224571,24.7343949 28.1583709,25.4481841 C27.4815978,25.9021637 25.5677432,26.0196089 25.3188247,25.686022 C25.1618544,25.4756589 24.8463515,24.4705829 25.082658,24.2594595 C25.217536,24.1389554 26.2458858,24.3350177 26.2458858,23.8167942 C26.2458858,23.2985708 25.1998604,23.3331684 25.082658,23.1891892 C24.8828682,22.9437541 24.8655235,22.5414919 25.082658,22.2378378 C25.507836,21.6432432 25.8351396,21.0715159 26.0291734,20.9297297 C26.3546025,20.6919293 26.7715416,20.8227288 27.2127798,20.6918919 C27.6540181,20.561055 27.8924379,19.9850705 27.5672609,19.7405405 C27.242084,19.4960106 26.65622,19.6080194 26.2658023,19.3837838 C26.0661394,19.2691078 25.910859,18.6959644 25.4376013,18.4324324 C24.9643436,18.1689004 24.925435,18.72597 24.017366,18.4319679 C23.109297,18.1379658 23.7203235,17.7539472 24.4910859,17.8378378 C25.2618483,17.9217285 28.2706965,19.0676676 27.6855754,17.4810811 C27.4965785,16.9686062 25.7143792,16.4554355 25.2009724,16.0540541 C24.8833658,15.8057492 25.2330548,15.1650099 24.9638814,14.8644003 C24.4662352,14.308635 23.5261568,14.2673357 23.0713128,13.6756757 C22.780947,13.2979686 22.6461782,12.6129776 22.9529984,12.2486486 C23.2599178,11.8842019 23.9559558,12.3675676 24.3732336,12.1297297 C24.7905115,11.8918919 24.3344299,10.9771207 24.6094003,10.8216216 C25.1604142,10.5100167 26.4397791,10.4306014 27.0123877,10.8811537 C27.5672609,11.317751 26.1381001,14.0969872 26.5024311,14.627027 C26.863995,15.1530411 29.4817047,14.9461899 29.1053485,12.9621622 C29.0456694,12.6475535 28.1764829,11.9582196 28.5137763,11.4162162 C28.9937739,10.6448988 29.3130053,11.3285222 29.4602917,10.5837838 C29.6075782,9.83904534 28.4326284,8.53936294 28.8687196,8.20540541 C29.4898703,7.72972973 29.5074471,7.73283625 30.4068071,7.61081081 C31.3061672,7.48878537 31.5455546,7.32367504 31.7082658,6.8972973 C31.870977,6.47091955 31.6824791,5.14908564 31.5899514,4.28108108 C31.563379,4.0318047 31.358363,3.82108319 31.708728,3.44864865 L33.7191489,0.237373311 Z M25.5563779,6.18378378 C25.4210579,6.61124802 23.069002,10.0125317 21.178282,9.87024124 C19.287562,9.7279508 22.30906,7.28533599 21.7703163,7.13513514 C19.8281804,6.59367082 20.5313944,4.94689348 20.9416532,4.4 C21.3519119,3.85310652 22.4877448,4.38818936 22.8342218,3.9238598 C23.2376586,3.38319567 25.2899037,1.15954364 25.910859,1.42702703 C27.2688812,2.01201015 25.5763893,3.86793255 25.4376013,4.51891892 C25.3216161,5.06294854 25.7242168,5.65359503 25.5563779,6.18378378 Z M19.1664746,13.1995355 C19.3024925,12.2894797 19.6893574,9.75169975 20.9413643,11.5260188 C21.3991751,12.1748191 19.2135535,15.1723911 19.2852512,15.3405405 C19.6909668,16.2920469 20.4295975,16.4558276 19.9951378,16.7675676 C19.1664746,17.3621622 18.2429981,19.4984458 17.6288493,19.027027 C16.8959122,18.4644267 18.2841161,17.9577763 18.4570502,17.3621622 C18.8074499,16.1553274 17.9840728,16.1765041 18.2204214,15.2216216 C18.5291146,13.9744564 18.8082301,15.5964447 19.1664746,13.1995355 Z M22.1247974,36.8648649 C24.2764677,36.2835093 26.9635035,36.4935298 27.9226664,37.2216216 C29.1537603,38.1561339 27.9637306,38.9060539 28.1588331,39.7189189 C28.4594375,40.9713419 32.2875905,40.457633 30.2884927,42.572973 C29.7019279,43.193645 31.2845304,43.4100186 31.1162315,44.5941301 C31.0884335,44.7897106 28.9654856,44.9143634 29.2232007,46.8535895 C29.4809159,48.7928157 26.6655756,46.628352 27.4489465,48.8756757 C27.9080206,50.192661 25.4593456,47.6620595 25.3192869,49.3513514 C25.2224889,50.5188616 23.7743908,54.102129 26.1440836,54.9893458 C28.5137763,55.8765625 29.6607561,63.1472815 26.7776508,60.6407517 C23.8945455,58.1342219 24.7994082,64.9119906 24.8460292,66.9513514 C24.8926501,68.9907121 18.8951787,66.3002175 16.8001861,70.0427787 C15.8755658,71.6945497 15.2015549,69.6627666 13.9305992,70.5303869 C12.6596434,71.3980073 11.1587891,71.8333272 10.4112072,73.2535895 C9.66362526,74.6738519 9.40582345,72.4900232 8.23816175,73.2535895 C7.07050006,74.0171558 5.39595275,73.7127713 4.6138004,73.6103463 C3.86987957,73.5129278 4.63267346,72.4583537 4.02269044,72.4216216 C1.50501379,72.2700116 3.13322889,71.2316559 2.83954619,71.1135135 C2.42107758,70.9451723 0.35718942,70.8661527 0.709886548,69.6864865 C0.853082672,69.2075384 4.19938217,68.6157517 3.90437601,67.7837838 C3.51019558,66.6721274 0.868123421,68.4823586 0.118314425,67.427027 C-0.201090815,66.9774746 4.32098953,66.8959855 4.37763371,65.6432432 C4.4342779,64.390501 6.72282653,63.3036411 6.86223663,62.7891892 C7.01773185,62.2153799 4.88517573,63.1846398 4.61426256,62.5674356 C4.27477295,61.7939981 6.98008889,58.8093539 7.6904376,57.9135135 C8.40078631,57.0176731 10.3057179,57.4853648 10.5299838,56.4864865 C10.9783784,54.4893412 8.07881565,57.0858984 6.62514561,56.8427787 C6.22786872,56.776336 3.07617504,53.8848738 3.07617504,53.3945946 C3.07617504,52.2666682 6.3894411,51.9520349 6.3894411,50.7783784 C6.3894411,49.6047218 3.83532884,50.2396201 3.31234172,50.0644003 C1.87364404,49.5823842 3.43158048,46.4149889 4.49594814,45.7837838 C5.66641058,45.0896609 7.46835737,45.7178527 8.75572959,45.9027027 C10.2969299,46.1239991 14.5115114,44.5506791 14.7893031,43.6432432 C15.5603851,41.124423 11.0838028,42.9298459 11.0032415,41.9783784 C10.9552309,41.4113498 12.6596434,41.5914274 12.6596434,40.7891892 C12.6596434,39.986951 13.3971019,40.7561257 13.5832239,39.6726694 C13.7591357,38.6486486 13.2414763,38.2521556 13.4878444,38.0540541 C13.9660434,37.6695403 16.2585593,36.8983145 16.5644816,36.8648649 C19.4863511,36.5453864 19.1177603,33.9396671 20.9416532,35.2 C21.3653841,35.4928034 20.7452327,35.7752587 21.0595054,36.3614627 C21.3737781,36.9476668 20.7891962,37.0220492 20.5867099,37.3405405 C20.4536126,37.5498897 20.2132237,37.6156537 20.1134522,37.8162162 C19.5048015,39.039737 20.6068817,38.9457509 21.2965964,38.6486486 L22.1247974,36.8648649 Z" id="uk-map"></path>
                </g>
            </g>
        </g>
    </g>
</svg>