<?xml version="1.0" encoding="UTF-8"?>
<svg width="100px" height="100px" viewBox="0 0 100 100" version="1.1" xmlns="http://www.w3.org/2000/svg" xmlns:xlink="http://www.w3.org/1999/xlink">
    <!-- Generator: Sketch 44.1 (41455) - http://www.bohemiancoding.com/sketch -->
    <title>readValueIcon</title>
    <desc>Created with Sketch.</desc>
    <defs></defs>
    <g id="Page-1" stroke="none" stroke-width="1" fill="none" fill-rule="evenodd">
        <g id="readValueIcon">
            <g id="icon">
                <circle id="Oval-Copy-6" fill="#961E61" cx="50" cy="50" r="50"></circle>
                <g id="book" transform="translate(14.000000, 17.000000)" fill-rule="nonzero" fill="#FFFFFF">
                    <path d="M7.67856787,51.7451658 C21.1900321,49.3844394 30.8882114,50.4047774 36.6793823,55.1694099 C42.6528062,50.4166094 52.3831199,49.3914364 65.7761977,51.7606235 C65.2883212,32.9780716 65.4016082,19.5308295 66.1263432,11.3423859 C51.1966699,5.09626612 43.8466942,5.48565739 38.9928295,12.7351096 L36.5879237,16.3269382 L34.0643364,12.8174779 C28.7388581,5.41153061 18.7258607,4.88827629 7.11209827,11.1089968 C7.97677089,20.4680351 8.16302263,33.9999654 7.67856787,51.7451658 Z M70.537147,6.70438803 L72.574034,7.59558631 L72.3140392,9.80365011 C71.3778495,17.7544514 71.2267597,32.9713708 71.8769303,55.3341839 L71.9877982,59.1475176 L68.2558455,58.3561047 C52.8593724,55.0910671 43.1435375,56.2845527 38.9312807,61.3096516 L36.5613721,64.1368831 L34.276706,61.2403324 C30.3689126,56.2859445 20.7301349,55.0878816 5.18291537,58.333889 L1.45126301,59.1129976 L1.57127178,55.3027696 C2.22253213,34.6255272 2.01086659,19.4316502 0.947774014,9.78132699 L0.734372712,7.84415653 L2.41757493,6.8618125 C15.6104656,-0.83777183 28.3374633,-1.40116424 36.3929498,6.36524997 C43.5245891,-1.25586219 53.8625724,-0.59123141 70.537147,6.70438803 Z" id="Path-2"></path>
                    <polygon id="Line" points="33.5 8.06603774 33.5 58.6981132 39.5 58.6981132 39.5 8.06603774"></polygon>
                    <polygon id="Line" points="42.0241935 17.9433962 62.3145161 17.9433962 62.3145161 14.9433962 42.0241935 14.9433962"></polygon>
                    <polygon id="Line-Copy" points="42.0241935 30.8490566 62.3145161 30.8490566 62.3145161 27.8490566 42.0241935 27.8490566"></polygon>
                    <polygon id="Line-Copy-2" points="42.0241935 24.3962264 62.3145161 24.3962264 62.3145161 21.3962264 42.0241935 21.3962264"></polygon>
                </g>
            </g>
        </g>
    </g>
</svg>