<?xml version="1.0" encoding="UTF-8"?>
<svg width="100px" height="100px" viewBox="0 0 100 100" version="1.1" xmlns="http://www.w3.org/2000/svg" xmlns:xlink="http://www.w3.org/1999/xlink">
    <!-- Generator: Sketch 44.1 (41455) - http://www.bohemiancoding.com/sketch -->
    <title>restApiCallIcon</title>
    <desc>Created with Sketch.</desc>
    <defs></defs>
    <g id="Page-1" stroke="none" stroke-width="1" fill="none" fill-rule="evenodd">
        <g id="restApiCallIcon">
            <g id="icon">
                <circle id="Oval-Copy-5" fill="#25A9E0" cx="50" cy="50" r="50"></circle>
                <path d="M26.5546875,49.9921875 C28.5338641,51.2682355 29.9010379,52.7525957 30.65625,54.4453125 C31.4114621,56.1380293 31.7890625,59.0546668 31.7890625,63.1953125 L31.7890625,68.9765625 C31.7890625,71.5547004 32.0039041,73.1757779 32.4335938,73.8398438 C32.8632834,74.5039096 33.6770773,74.9531238 34.875,75.1875 C35.1614598,75.2656254 35.591143,75.3437496 36.1640625,75.421875 C39.1067855,75.8645855 40.578125,77.3098836 40.578125,79.7578125 C40.578125,80.9557352 40.1484418,81.9192672 39.2890625,82.6484375 C38.4296832,83.3776078 37.2838613,83.7421875 35.8515625,83.7421875 C34.0286367,83.7421875 32.2643314,83.4427113 30.5585938,82.84375 C28.8528561,82.2447887 27.4401098,81.4244844 26.3203125,80.3828125 C25.096348,79.2630152 24.2304713,77.8177172 23.7226562,76.046875 C23.2148412,74.2760328 22.9609375,71.242209 22.9609375,66.9453125 L22.9609375,62.4140625 C22.9609375,57.7265391 20.7995008,55.0312535 16.4765625,54.328125 C16.2942699,54.2760414 16.1640629,54.25 16.0859375,54.25 C14.8359313,54.0416656 13.9114613,53.5989617 13.3125,52.921875 C12.7135387,52.2447883 12.4140625,51.2682355 12.4140625,49.9921875 C12.4140625,48.8723902 12.6679662,47.9869824 13.1757812,47.3359375 C13.6835963,46.6848926 14.4973902,46.2161473 15.6171875,45.9296875 C16.1119816,45.7734367 16.8281203,45.6041676 17.765625,45.421875 C21.229184,44.7708301 22.9609375,42.1927309 22.9609375,37.6875 L22.9609375,33.0390625 C22.9609375,29.0546676 23.156248,26.2617268 23.546875,24.6601562 C23.937502,23.0585857 24.6015578,21.6588602 25.5390625,20.4609375 C26.632818,19.1328059 28.0976471,18.09766 29.9335938,17.3554688 C31.7695404,16.6132775 33.7942598,16.2421875 36.0078125,16.2421875 C37.3880277,16.2421875 38.4947875,16.6002568 39.328125,17.3164062 C40.1614625,18.0325557 40.578125,18.9765566 40.578125,20.1484375 C40.578125,22.5963664 39.0026199,24.0677059 35.8515625,24.5625 C35.5651027,24.5885418 35.3567715,24.6145832 35.2265625,24.640625 C33.9244727,24.8489594 33.0260441,25.324215 32.53125,26.0664062 C32.0364559,26.8085975 31.7890625,28.4947785 31.7890625,31.125 L31.7890625,36.8671875 C31.7890625,40.773457 31.3984414,43.6380117 30.6171875,45.4609375 C29.8359336,47.2838633 28.4817805,48.7942648 26.5546875,49.9921875 Z M74.40625,49.9921875 C72.5051988,48.7942648 71.1640664,47.2838633 70.3828125,45.4609375 C69.6015586,43.6380117 69.2109375,40.773457 69.2109375,36.8671875 L69.2109375,28.625 C69.2109375,27.4010355 68.8984406,26.4700553 68.2734375,25.8320312 C67.6484344,25.1940072 66.6067781,24.7708344 65.1484375,24.5625 C63.2473863,24.302082 61.9843781,23.8593781 61.359375,23.234375 C60.7343719,22.6093719 60.421875,21.6588605 60.421875,20.3828125 C60.421875,19.0807227 60.8190064,18.0651078 61.6132812,17.3359375 C62.4075561,16.6067672 63.5338469,16.2421875 64.9921875,16.2421875 C66.9192805,16.2421875 68.7161375,16.528643 70.3828125,17.1015625 C72.0494875,17.674482 73.4427027,18.4817656 74.5625,19.5234375 C75.838548,20.6953184 76.7369766,22.1471268 77.2578125,23.8789062 C77.7786484,25.6106857 78.0390625,28.6640406 78.0390625,33.0390625 L78.0390625,37.6875 C78.0390625,42.2187727 79.8228988,44.835934 83.390625,45.5390625 C84.2500043,45.6692715 84.9140602,45.7994785 85.3828125,45.9296875 C86.476568,46.2161473 87.2838516,46.6914029 87.8046875,47.3554688 C88.3255234,48.0195346 88.5859375,48.898432 88.5859375,49.9921875 C88.5859375,51.1380266 88.3125027,52.0559861 87.765625,52.7460938 C87.2187473,53.4362014 86.398443,53.911457 85.3046875,54.171875 C84.8880188,54.2500004 84.3020871,54.354166 83.546875,54.484375 C79.8749816,55.1875035 78.0390625,57.8307062 78.0390625,62.4140625 L78.0390625,66.9453125 C78.0390625,71.0599164 77.843752,73.9179607 77.453125,75.5195312 C77.062498,77.1211018 76.3984422,78.4817652 75.4609375,79.6015625 C74.4453074,80.825527 72.9804783,81.8216107 71.0664062,82.5898438 C69.1523342,83.3580768 67.1536562,83.7421875 65.0703125,83.7421875 C63.6119719,83.7421875 62.4726604,83.3710975 61.6523438,82.6289062 C60.8320271,81.886715 60.421875,80.8515691 60.421875,79.5234375 C60.421875,78.299473 60.7278615,77.3750031 61.3398438,76.75 C61.951826,76.1249969 63.2213445,75.6562516 65.1484375,75.34375 C66.7369871,75.1093738 67.8111951,74.6796906 68.3710938,74.0546875 C68.9309924,73.4296844 69.2109375,72.4270902 69.2109375,71.046875 L69.2109375,63.1953125 C69.2109375,59.0546668 69.5885379,56.1380293 70.34375,54.4453125 C71.0989621,52.7525957 72.4531152,51.2682355 74.40625,49.9921875 Z" id="{}" fill="#FFFFFF"></path>
            </g>
        </g>
    </g>
</svg>