<?xml version="1.0" encoding="UTF-8"?>
<svg width="100px" height="100px" viewBox="0 0 100 100" version="1.1" xmlns="http://www.w3.org/2000/svg" xmlns:xlink="http://www.w3.org/1999/xlink">
    <!-- Generator: Sketch 44.1 (41455) - http://www.bohemiancoding.com/sketch -->
    <title>waitIcon</title>
    <desc>Created with Sketch.</desc>
    <defs></defs>
    <g id="Page-1" stroke="none" stroke-width="1" fill="none" fill-rule="evenodd">
        <g id="waitIcon">
            <g id="icon">
                <circle id="Oval-Copy-4" fill="#00AFF4" cx="50" cy="50" r="50"></circle>
                <path d="M41.4396421,50 C41.4396421,44.0516318 25.8537046,43.4981414 27.2936618,20.0426065 L22.9032258,20.0426065 L22.9032258,15 L77.0967742,15 L77.0967742,20.0426065 L72.7063382,20.0426065 C74.1462954,43.4981414 58.5603579,44.0516318 58.5603579,50 C58.5603579,55.9483682 74.1462954,56.5018586 72.7063382,79.9573935 L77.0967742,79.9573935 L77.0967742,85 L22.9032258,85 L22.9032258,79.9573935 L27.2936618,79.9573935 C25.8537046,56.5018586 41.4396421,55.9483682 41.4396421,50 L41.4396421,50 Z M31.0244849,19.9612741 C29.8845189,43.0384939 45.4499669,40.4128733 45.4499669,49.4354839 C45.4499669,58.4580944 30.8641528,56.8396542 32.0041189,79.9168741 L68.0215159,79.9168741 C69.161482,56.8396542 54.3121535,58.998354 54.3121535,49.4354839 C54.3121535,39.8726137 69.5992025,43.0384939 68.4592364,19.9612741 L31.0244849,19.9612741 Z M50,52.2580645 C55.4406345,61.5836064 65.1338836,63.3609501 63.6059964,76.6623614 L36.1875473,76.6623614 C34.0204448,64.460213 46.0919386,58.5476783 50,52.2580645 Z M49.9115187,47.583441 C49.1987068,41.9628119 37.7074408,37.7763514 36.7906534,31.7469443 C44.0270996,33.8076487 53.460969,36.5216261 60.1012002,36.5216261 C54.921875,39.6651926 50.9377363,44.8022067 49.9115187,47.583441 Z" id="Combined-Shape" fill="#FFFFFF"></path>
            </g>
        </g>
    </g>
</svg>