<?xml version="1.0" encoding="UTF-8"?>
<svg width="100px" height="100px" viewBox="0 0 100 100" version="1.1" xmlns="http://www.w3.org/2000/svg" xmlns:xlink="http://www.w3.org/1999/xlink">
    <!-- Generator: Sketch 44.1 (41455) - http://www.bohemiancoding.com/sketch -->
    <title>endCallIcon_warning</title>
    <desc>Created with Sketch.</desc>
    <defs></defs>
    <g id="Page-1" stroke="none" stroke-width="1" fill="none" fill-rule="evenodd">
        <g id="endCallIcon_warning">
            <g id="icon">
                <circle id="Oval-Copy-12" fill="#FF0012" cx="50" cy="50" r="50"></circle>
                <path d="M74.3159532,21.710032 C75.7069041,20.3677461 77.9226304,20.4071969 79.2649163,21.7981478 C80.6072022,23.1890988 80.5677514,25.404825 79.1768004,26.7471109 L24.3144816,79.689968 C22.9235306,81.0322539 20.7078044,80.9928031 19.3655185,79.6018522 C18.0232326,78.2109012 18.0626834,75.995175 19.4536344,74.6528891 L74.3159532,21.710032 Z M31.2944221,15.6749043 L44.7778891,29.9915502 C45.5909214,30.8548218 45.5504927,32.2140158 44.6875889,33.0273948 C44.6303306,33.0813669 44.5701498,33.1321494 44.5073191,33.1795124 C42.011632,35.0608088 39.7539662,37.6870439 37.7343217,41.0582177 C37.2125083,43.2176521 37.5569273,45.4605224 38.7675787,47.7868284 C38.9832505,48.2012487 38.9063122,48.7076234 38.5772921,49.0392129 L31.132499,56.5421455 C30.7148733,56.9630325 30.03527,56.9655321 29.6145624,56.5477284 C29.5817249,56.5151176 29.5510296,56.4804167 29.5226684,56.4438429 C22.3479488,47.1915048 18.5070594,38.0366824 18,28.9793757 C18.5216313,24.6067255 22.0129259,20.0827755 28.4738838,15.4075256 C29.3477222,14.7752026 30.5548527,14.889635 31.2944221,15.6749043 Z M83.442356,68.9023191 C84.2272907,69.6422039 84.3416743,70.8498492 83.7096208,71.7240603 C79.0363638,78.1877734 74.5143421,81.6805568 70.1435558,82.2024105 C61.0901099,81.6951349 51.9391898,77.8526076 42.6907956,70.6748284 C42.6542373,70.6464552 42.6195512,70.6157467 42.5869543,70.5828953 C42.1693287,70.1620083 42.1718272,69.4821151 42.5925348,69.0643114 L50.0922692,61.6163435 C50.4237174,61.2871831 50.9298762,61.210212 51.3441199,61.4259757 C53.6694343,62.6371434 55.9113485,62.9817093 58.0698625,62.4596734 C61.4395993,60.4391676 64.064715,58.180539 65.9452095,55.6837877 C65.9925522,55.6209302 66.0433131,55.5607238 66.0972622,55.503441 C66.9102945,54.6401693 68.2689091,54.5997233 69.1318128,55.4131023 L83.442356,68.9023191 Z" id="Combined-Shape" fill="#FFFFFF" fill-rule="nonzero"></path>
            </g>
        </g>
    </g>
</svg>