<?xml version="1.0" encoding="UTF-8"?>
<svg width="100px" height="100px" viewBox="0 0 100 100" version="1.1" xmlns="http://www.w3.org/2000/svg" xmlns:xlink="http://www.w3.org/1999/xlink">
    <!-- Generator: Sketch 44.1 (41455) - http://www.bohemiancoding.com/sketch -->
    <title>hoursCheckIcon_warning</title>
    <desc>Created with Sketch.</desc>
    <defs></defs>
    <g id="Page-1" stroke="none" stroke-width="1" fill="none" fill-rule="evenodd">
        <g id="hoursCheckIcon_warning">
            <g id="icon">
                <circle id="Oval-Copy-9" fill="#FF0012" cx="50" cy="50" r="50"></circle>
                <g id="clock" transform="translate(12.000000, 12.000000)" fill="#FFFFFF">
                    <path d="M38,79 C15.3563253,79 -3,60.6436747 -3,38 C-3,15.3563253 15.3563253,-3 38,-3 C60.6436747,-3 79,15.3563253 79,38 C79,60.6436747 60.6436747,79 38,79 Z M38,73 C57.3299662,73 73,57.3299662 73,38 C73,18.6700338 57.3299662,3 38,3 C18.6700338,3 3,18.6700338 3,38 C3,57.3299662 18.6700338,73 38,73 Z" id="Oval-2" fill-rule="nonzero"></path>
                    <path d="M35.6907001,6.45067334 L32,2 L44,2 L40.3092999,6.45067334 C39.2516878,7.72606448 37.360415,7.90260925 36.0850238,6.84499711 C35.9416246,6.72608399 35.8096132,6.59407255 35.6907001,6.45067334 L35.6907001,6.45067334 Z" id="Triangle-4"></path>
                    <path d="M35.6907001,70.085103 L32,74.5357763 L44,74.5357763 L40.3092999,70.085103 C39.2516878,68.8097118 37.360415,68.6331671 36.0850238,69.6907792 C35.9416246,69.8096923 35.8096132,69.9417038 35.6907001,70.085103 Z" id="Triangle-4-Copy"></path>
                    <path d="M70.085103,35.6907001 L74.5357763,32 L74.5357763,44 L70.085103,40.3092999 C68.8097118,39.2516878 68.6331671,37.360415 69.6907792,36.0850238 C69.8096923,35.9416246 69.9417038,35.8096132 70.085103,35.6907001 Z" id="Triangle-4-Copy-3"></path>
                    <path d="M5.95067334,35.7264764 L1.5,32.0357763 L1.5,44.0357763 L5.95067334,40.3450763 C7.22606448,39.2874641 7.40260925,37.3961913 6.34499711,36.1208001 C6.22608399,35.9774009 6.09407255,35.8453895 5.95067334,35.7264764 L5.95067334,35.7264764 Z" id="Triangle-4-Copy-2"></path>
                    <path d="M35,12 L35,37.5 C35,39.1568542 36.3431458,40.5 38,40.5 C39.6568542,40.5 41,39.1568542 41,37.5 L41,12 C41,10.3431458 39.6568542,9 38,9 C36.3431458,9 35,10.3431458 35,12 Z" id="Line" fill-rule="nonzero"></path>
                    <path d="M59,35 L38,35 C36.3431458,35 35,36.3431458 35,38 C35,39.6568542 36.3431458,41 38,41 L59,41 C60.6568542,41 62,39.6568542 62,38 C62,36.3431458 60.6568542,35 59,35 Z" id="Line-Copy-4" fill-rule="nonzero"></path>
                </g>
            </g>
        </g>
    </g>
</svg>