<?xml version="1.0" encoding="UTF-8"?>
<svg width="100px" height="100px" viewBox="0 0 100 100" version="1.1" xmlns="http://www.w3.org/2000/svg" xmlns:xlink="http://www.w3.org/1999/xlink">
    <!-- Generator: Sketch 44.1 (41455) - http://www.bohemiancoding.com/sketch -->
    <title>playSoundIcon_warning</title>
    <desc>Created with Sketch.</desc>
    <defs></defs>
    <g id="Page-1" stroke="none" stroke-width="1" fill="none" fill-rule="evenodd">
        <g id="playSoundIcon_warning">
            <g id="icon">
                <circle id="Oval-Copy-8" fill="#FF0012" cx="50" cy="50" r="50"></circle>
                <path d="M74.5027448,29.3379711 C73.5089913,28.0122185 73.7781298,26.1318872 75.1038824,25.1381337 C76.429635,24.1443803 78.3099662,24.4135187 79.3037197,25.7392713 C79.5680453,26.0919043 79.9832368,26.7052971 80.4978803,27.5639399 C81.3315016,28.9547722 82.1596447,30.5579675 82.9300047,32.358372 C88.1858606,44.6418069 88.1858606,58.7526762 79.4790734,73.3360339 C78.6297315,74.7586317 76.7879606,75.2233475 75.3653628,74.3740056 C73.942765,73.5246638 73.4780493,71.6828928 74.3273911,70.260295 C81.9638488,57.4696764 81.9638488,45.3526681 77.4137577,34.7186726 C76.7540838,33.1769519 76.0500477,31.8140145 75.3514898,30.6485249 C74.9468258,29.9733744 74.6470004,29.5304204 74.5027448,29.3379711 Z M63.6486929,39.3529213 C62.6549394,38.0271687 62.9240778,36.1468375 64.2498305,35.153084 C65.5755831,34.1593305 67.4559143,34.4284689 68.4496678,35.7542216 C68.6255616,35.988879 68.8859976,36.3736401 69.2016698,36.9003147 C69.7036721,37.7378665 70.2001963,38.6990834 70.6610452,39.7761313 C73.7945397,47.0994058 73.7945397,55.5336142 68.6250215,64.192254 C67.7756796,65.6148518 65.9339086,66.0795675 64.5113109,65.2302257 C63.0887131,64.3808838 62.6239973,62.5391129 63.4733392,61.1165151 C67.5725279,54.2506145 67.5725279,47.810267 65.1447982,42.1364319 C64.7946353,41.3180679 64.4222182,40.5971088 64.0552792,39.9848996 C63.8495867,39.6417175 63.7045167,39.4273951 63.6486929,39.3529213 Z M11.6304992,61.0991413 L11.6304992,38.7772776 C11.6304992,37.6727081 12.5259297,36.7772776 13.6304992,36.7772776 L24.6464433,36.7772776 L49.7169444,17.2021814 C51.4581782,15.8426226 53.9718672,16.1520314 55.3314259,17.8932652 C55.8804353,18.5964005 56.1786432,19.4628819 56.1786432,20.3549641 L56.1786432,78.9783429 C56.1786432,81.1874819 54.3877822,82.9783429 52.1786432,82.9783429 C51.2865611,82.9783429 50.4200797,82.680135 49.7169444,82.1311256 L25.3420255,63.0991413 L13.6304992,63.0991413 C12.5259297,63.0991413 11.6304992,62.2037108 11.6304992,61.0991413 Z" id="Combined-Shape" fill="#FFFFFF" fill-rule="nonzero"></path>
            </g>
        </g>
    </g>
</svg>