<?xml version="1.0" encoding="UTF-8"?>
<svg width="100px" height="100px" viewBox="0 0 100 100" version="1.1" xmlns="http://www.w3.org/2000/svg" xmlns:xlink="http://www.w3.org/1999/xlink">
    <!-- Generator: Sketch 44.1 (41455) - http://www.bohemiancoding.com/sketch -->
    <title>readValueIcon_warning</title>
    <desc>Created with Sketch.</desc>
    <defs></defs>
    <g id="Page-1" stroke="none" stroke-width="1" fill="none" fill-rule="evenodd">
        <g id="readValueIcon_warning">
            <g id="icon">
                <circle id="Oval-Copy-6" fill="#FF0012" cx="50" cy="50" r="50"></circle>
                <g id="book" transform="translate(17.000000, 20.000000)" fill-rule="nonzero" fill="#FFFFFF">
                    <path d="M4.67856787,48.7451658 C18.1900321,46.3844394 27.8882114,47.4047774 33.6793823,52.1694099 C39.6528062,47.4166094 49.3831199,46.3914364 62.7761977,48.7606235 C62.2883212,29.9780716 62.4016082,16.5308295 63.1263432,8.34238587 C48.1966699,2.09626612 40.8466942,2.48565739 35.9928295,9.73510965 L33.5879237,13.3269382 L31.0643364,9.81747792 C25.7388581,2.41153061 15.7258607,1.88827629 4.11209827,8.10899683 C4.97677089,17.4680351 5.16302263,30.9999654 4.67856787,48.7451658 Z M67.537147,3.70438803 L69.574034,4.59558631 L69.3140392,6.80365011 C68.3778495,14.7544514 68.2267597,29.9713708 68.8769303,52.3341839 L68.9877982,56.1475176 L65.2558455,55.3561047 C49.8593724,52.0910671 40.1435375,53.2845527 35.9312807,58.3096516 L33.5613721,61.1368831 L31.276706,58.2403324 C27.3689126,53.2859445 17.7301349,52.0878816 2.18291537,55.333889 L-1.54873699,56.1129976 L-1.42872822,52.3027696 C-0.77746787,31.6255272 -0.989133408,16.4316502 -2.05222599,6.78132699 L-2.26562729,4.84415653 L-0.582425072,3.8618125 C12.6104656,-3.83777183 25.3374633,-4.40116424 33.3929498,3.36524997 C40.5245891,-4.25586219 50.8625724,-3.59123141 67.537147,3.70438803 Z" id="Path-2"></path>
                    <polygon id="Line" points="30.5 5.06603774 30.5 55.6981132 36.5 55.6981132 36.5 5.06603774"></polygon>
                    <polygon id="Line" points="39.0241935 14.9433962 59.3145161 14.9433962 59.3145161 11.9433962 39.0241935 11.9433962"></polygon>
                    <polygon id="Line-Copy" points="39.0241935 27.8490566 59.3145161 27.8490566 59.3145161 24.8490566 39.0241935 24.8490566"></polygon>
                    <polygon id="Line-Copy-2" points="39.0241935 21.3962264 59.3145161 21.3962264 59.3145161 18.3962264 39.0241935 18.3962264"></polygon>
                </g>
            </g>
        </g>
    </g>
</svg>