<?xml version="1.0" encoding="UTF-8"?>
<svg width="100px" height="100px" viewBox="0 0 100 100" version="1.1" xmlns="http://www.w3.org/2000/svg" xmlns:xlink="http://www.w3.org/1999/xlink">
    <!-- Generator: Sketch 44.1 (41455) - http://www.bohemiancoding.com/sketch -->
    <title>voicemailIcon_warning</title>
    <desc>Created with Sketch.</desc>
    <defs></defs>
    <g id="Page-1" stroke="none" stroke-width="1" fill="none" fill-rule="evenodd">
        <g id="voicemailIcon_warning">
            <g id="icon">
                <circle id="Oval-Copy-3" fill="#FF0012" cx="50" cy="50" r="50"></circle>
                <path d="M57.1270701,61.8 C54.5535452,58.3737918 53.0285714,54.1149843 53.0285714,49.5 C53.0285714,38.1781626 62.2067341,29 73.5285714,29 C84.8504088,29 94.0285714,38.1781626 94.0285714,49.5 C94.0285714,60.6259454 85.1652648,69.6817546 74.1142857,69.9917936 L74.1142857,70 L23.7428571,70 L23.7428571,69.9257472 C13.2435753,69.0344676 5,60.2299289 5,49.5 C5,38.1781626 14.1781626,29 25.5,29 C36.8218374,29 46,38.1781626 46,49.5 C46,54.1149843 44.4750262,58.3737918 41.9015014,61.8 L57.1270701,61.8 L57.1270701,61.8 Z M25.5,61.8 C32.2931024,61.8 37.8,56.2931024 37.8,49.5 C37.8,42.7068976 32.2931024,37.2 25.5,37.2 C18.7068976,37.2 13.2,42.7068976 13.2,49.5 C13.2,56.2931024 18.7068976,61.8 25.5,61.8 Z M73.5285714,61.8 C80.3216739,61.8 85.8285714,56.2931024 85.8285714,49.5 C85.8285714,42.7068976 80.3216739,37.2 73.5285714,37.2 C66.735469,37.2 61.2285714,42.7068976 61.2285714,49.5 C61.2285714,56.2931024 66.735469,61.8 73.5285714,61.8 Z" id="Combined-Shape-Copy-2" fill="#FFFFFF"></path>
            </g>
        </g>
    </g>
</svg>