<?xml version="1.0" encoding="UTF-8"?>
<svg width="200px" height="50px" viewBox="0 0 200 50" version="1.1" xmlns="http://www.w3.org/2000/svg" xmlns:xlink="http://www.w3.org/1999/xlink">
    <!-- Generator: Sketch 44.1 (41455) - http://www.bohemiancoding.com/sketch -->
    <title>bridge_label</title>
    <desc>Created with Sketch.</desc>
    <defs>
        <rect id="path-1" x="0" y="0" width="200" height="50" rx="12"></rect>
    </defs>
    <g id="Page-1" stroke="none" stroke-width="1" fill="none" fill-rule="evenodd">
        <g id="bridge_label">
            <g id="label">
                <mask id="mask-2" fill="white">
                    <use xlink:href="#path-1"></use>
                </mask>
                <use id="Mask" fill="#2CA69C" xlink:href="#path-1"></use>
                <path d="M55.5141194,78.8482965 L64.2006166,83.863448 C64.6789092,84.1395904 65.2904996,83.9757152 65.566642,83.4974226 L93.066642,35.8660254 C93.3427844,35.3877328 93.1789092,34.7761424 92.7006166,34.5 L4.3660254,-16.5 L4.3660254,-16.5 C3.88773278,-16.7761424 3.27614237,-16.6122672 3,-16.1339746 L3,-16.1339746 L-24.5,31.4974226 C-24.7761424,31.9757152 -24.6122672,32.5873056 -24.1339746,32.863448 L-24.1339746,32.863448 L-15.4474774,37.8785995 C-4.07961626,18.1888865 21.0211505,11.3985995 40.6166543,22.7120689 C60.2121582,34.0255383 66.8819805,59.1585835 55.5141194,78.8482965 Z M107.492969,32 L107.492969,17.54 L112.482969,17.54 C113.42964,17.54 114.237965,17.6299991 114.907969,17.81 C115.577972,17.9900009 116.127967,18.246665 116.557969,18.58 C116.987971,18.913335 117.302968,19.3166643 117.502969,19.79 C117.70297,20.2633357 117.802969,20.7966637 117.802969,21.39 C117.802969,21.7300017 117.752969,22.0549984 117.652969,22.365 C117.552968,22.6750015 117.39797,22.9649986 117.187969,23.235 C116.977968,23.5050013 116.711304,23.7499989 116.387969,23.97 C116.064634,24.1900011 115.679638,24.3766659 115.232969,24.53 C117.219645,24.9766689 118.212969,26.0499915 118.212969,27.75 C118.212969,28.3633364 118.096303,28.9299974 117.862969,29.45 C117.629634,29.9700026 117.289638,30.4183314 116.842969,30.795 C116.3963,31.1716685 115.846305,31.4666656 115.192969,31.68 C114.539632,31.8933344 113.792973,32 112.952969,32 L107.492969,32 Z M110.182969,25.66 L110.182969,29.9 L112.912969,29.9 C113.412971,29.9 113.8313,29.8400006 114.167969,29.72 C114.504637,29.5999994 114.774634,29.440001 114.977969,29.24 C115.181303,29.039999 115.327968,28.806668 115.417969,28.54 C115.507969,28.273332 115.552969,27.9900015 115.552969,27.69 C115.552969,27.3766651 115.502969,27.0950012 115.402969,26.845 C115.302968,26.5949987 115.146303,26.3816675 114.932969,26.205 C114.719634,26.0283324 114.446304,25.8933338 114.112969,25.8 C113.779634,25.7066662 113.376304,25.66 112.902969,25.66 L110.182969,25.66 Z M110.182969,23.8 L112.332969,23.8 C113.246307,23.8 113.939633,23.633335 114.412969,23.3 C114.886304,22.966665 115.122969,22.4366703 115.122969,21.71 C115.122969,20.9566629 114.909638,20.4200016 114.482969,20.1 C114.0563,19.7799984 113.38964,19.62 112.482969,19.62 L110.182969,19.62 L110.182969,23.8 Z M123.302969,26.35 L123.302969,32 L120.612969,32 L120.612969,17.54 L125.022969,17.54 C126.00964,17.54 126.854632,17.6416656 127.557969,17.845 C128.261306,18.0483343 128.837966,18.3333315 129.287969,18.7 C129.737971,19.0666685 130.067968,19.5049974 130.277969,20.015 C130.48797,20.5250025 130.592969,21.0866636 130.592969,21.7 C130.592969,22.1866691 130.521303,22.6466645 130.377969,23.08 C130.234635,23.5133355 130.02797,23.9066649 129.757969,24.26 C129.487967,24.6133351 129.154637,24.923332 128.757969,25.19 C128.3613,25.456668 127.909638,25.6699992 127.402969,25.83 C127.74297,26.0233343 128.036301,26.2999982 128.282969,26.66 L131.902969,32 L129.482969,32 C129.249634,32 129.051303,31.9533338 128.887969,31.86 C128.724635,31.7666662 128.586303,31.6333342 128.472969,31.46 L125.432969,26.83 C125.319635,26.6566658 125.194636,26.5333337 125.057969,26.46 C124.921301,26.3866663 124.719637,26.35 124.452969,26.35 L123.302969,26.35 Z M123.302969,24.42 L124.982969,24.42 C125.489638,24.42 125.9313,24.3566673 126.307969,24.23 C126.684637,24.1033327 126.994634,23.9283345 127.237969,23.705 C127.481303,23.4816656 127.662968,23.2166682 127.782969,22.91 C127.902969,22.6033318 127.962969,22.2666685 127.962969,21.9 C127.962969,21.166663 127.721304,20.6033353 127.237969,20.21 C126.754633,19.8166647 126.016307,19.62 125.022969,19.62 L123.302969,19.62 L123.302969,24.42 Z M136.652969,32 L133.952969,32 L133.952969,17.54 L136.652969,17.54 L136.652969,32 Z M152.742969,24.77 C152.742969,25.8300053 152.566304,26.8033289 152.212969,27.69 C151.859634,28.5766711 151.362972,29.3399968 150.722969,29.98 C150.082966,30.6200032 149.312973,31.1166649 148.412969,31.47 C147.512964,31.8233351 146.516308,32 145.422969,32 L139.902969,32 L139.902969,17.54 L145.422969,17.54 C146.516308,17.54 147.512964,17.7183315 148.412969,18.075 C149.312973,18.4316684 150.082966,18.9283301 150.722969,19.565 C151.362972,20.2016698 151.859634,20.9633289 152.212969,21.85 C152.566304,22.7366711 152.742969,23.7099947 152.742969,24.77 Z M149.992969,24.77 C149.992969,23.9766627 149.886303,23.2650031 149.672969,22.635 C149.459634,22.0049968 149.156304,21.4716688 148.762969,21.035 C148.369633,20.5983311 147.891305,20.2633345 147.327969,20.03 C146.764633,19.7966655 146.129639,19.68 145.422969,19.68 L142.612969,19.68 L142.612969,29.86 L145.422969,29.86 C146.129639,29.86 146.764633,29.7433345 147.327969,29.51 C147.891305,29.2766655 148.369633,28.9416688 148.762969,28.505 C149.156304,28.0683311 149.459634,27.5350031 149.672969,26.905 C149.886303,26.2749968 149.992969,25.5633373 149.992969,24.77 Z M161.492969,30.02 C162.099638,30.02 162.627967,29.9650005 163.077969,29.855 C163.527971,29.7449995 163.9563,29.5933343 164.362969,29.4 L164.362969,26.77 L162.552969,26.77 C162.379635,26.77 162.242969,26.7216671 162.142969,26.625 C162.042968,26.5283328 161.992969,26.4100007 161.992969,26.27 L161.992969,24.75 L166.802969,24.75 L166.802969,30.6 C166.4363,30.866668 166.054637,31.0983323 165.657969,31.295 C165.2613,31.4916676 164.837971,31.6533327 164.387969,31.78 C163.937967,31.9066673 163.456305,32.0016664 162.942969,32.065 C162.429633,32.1283336 161.876305,32.16 161.282969,32.16 C160.22963,32.16 159.25964,31.9766685 158.372969,31.61 C157.486298,31.2433315 156.719639,30.7333366 156.072969,30.08 C155.426299,29.4266634 154.921304,28.6466712 154.557969,27.74 C154.194634,26.8333288 154.012969,25.8433387 154.012969,24.77 C154.012969,23.6833279 154.189634,22.6866712 154.542969,21.78 C154.896304,20.8733288 155.397965,20.0933366 156.047969,19.44 C156.697972,18.7866634 157.486297,18.2800018 158.412969,17.92 C159.33964,17.5599982 160.37963,17.38 161.532969,17.38 C162.712975,17.38 163.734631,17.5549982 164.597969,17.905 C165.461306,18.2550017 166.192966,18.7099972 166.792969,19.27 L166.012969,20.49 C165.859635,20.7366679 165.656303,20.86 165.402969,20.86 C165.242968,20.86 165.079636,20.8066672 164.912969,20.7 C164.699634,20.5733327 164.481303,20.4466673 164.257969,20.32 C164.034634,20.1933327 163.78797,20.0833338 163.517969,19.99 C163.247967,19.8966662 162.944637,19.8200003 162.607969,19.76 C162.2713,19.6999997 161.882971,19.67 161.442969,19.67 C160.729632,19.67 160.084638,19.7899988 159.507969,20.03 C158.931299,20.2700012 158.439637,20.6133311 158.032969,21.06 C157.6263,21.5066689 157.31297,22.0433302 157.092969,22.67 C156.872968,23.2966698 156.762969,23.9966628 156.762969,24.77 C156.762969,25.6033375 156.879634,26.3449967 157.112969,26.995 C157.346303,27.6450032 157.672967,28.1933311 158.092969,28.64 C158.512971,29.0866689 159.012966,29.4283321 159.592969,29.665 C160.172972,29.9016678 160.806299,30.02 161.492969,30.02 Z M178.432969,17.54 L178.432969,19.68 L172.022969,19.68 L172.022969,23.69 L177.072969,23.69 L177.072969,25.76 L172.022969,25.76 L172.022969,29.85 L178.432969,29.85 L178.432969,32 L169.312969,32 L169.312969,17.54 L178.432969,17.54 Z" id="Combined-Shape" fill="#FFFFFF" mask="url(#mask-2)"></path>
            </g>
        </g>
    </g>
</svg>