<?xml version="1.0" encoding="UTF-8"?>
<svg width="200px" height="50px" viewBox="0 0 200 50" version="1.1" xmlns="http://www.w3.org/2000/svg" xmlns:xlink="http://www.w3.org/1999/xlink">
    <!-- Generator: Sketch 44.1 (41455) - http://www.bohemiancoding.com/sketch -->
    <title>DialToRecordMessage_label</title>
    <desc>Created with Sketch.</desc>
    <defs>
        <rect id="path-1" x="0" y="0" width="200" height="50" rx="12"></rect>
    </defs>
    <g id="Page-1" stroke="none" stroke-width="1" fill="none" fill-rule="evenodd">
        <g id="DialToRecordMessage_label">
            <g id="label">
                <mask id="mask-2" fill="white">
                    <use xlink:href="#path-1"></use>
                </mask>
                <use id="Mask" fill="#009640" xlink:href="#path-1"></use>
                <path d="M8.84297369,41.5319247 C-7.99966944,47.6412031 -35.3786812,47.9645588 -40.3106907,29.5580486 C-44.1503671,15.2281812 -34.8961658,2.25872257 -11.9994881,-3.87642375 C10.8971896,-10.0115701 25.6670345,-2.39636661 29.2359688,10.9230774 C31.0901582,17.8430066 27.4288681,24.7480116 23.0070134,31.4098316 C21.9597279,32.9876372 38.3614409,36.1791186 35.9737017,39.2651036 C22.9116879,42.7650596 21.6235287,42.0118313 8.84297369,41.5319247 Z M33.2941797,18.54 L35.4641797,18.54 C35.6975142,18.54 35.8875123,18.5966661 36.0341797,18.71 C36.1808471,18.8233339 36.290846,18.9699991 36.3641797,19.15 L39.7641797,27.97 C39.8775136,28.2566681 39.9858458,28.5716649 40.0891797,28.915 C40.1925135,29.258335 40.2908459,29.6199981 40.3841797,30 C40.5375138,29.2333295 40.7275119,28.5566696 40.9541797,27.97 L44.3441797,19.15 C44.40418,18.9966659 44.5108456,18.8566673 44.6641797,18.73 C44.8175138,18.6033327 45.0075119,18.54 45.2341797,18.54 L47.4041797,18.54 L41.5641797,33 L39.1341797,33 L33.2941797,18.54 Z M62.7841797,25.77 C62.7841797,26.8300053 62.6075148,27.8116621 62.2541797,28.715 C61.9008446,29.6183378 61.4041829,30.3999967 60.7641797,31.06 C60.1241765,31.7200033 59.3541842,32.2349981 58.4541797,32.605 C57.5541752,32.9750018 56.5575185,33.16 55.4641797,33.16 C54.3708409,33.16 53.3725175,32.9750018 52.4691797,32.605 C51.5658418,32.2349981 50.7925162,31.7200033 50.1491797,31.06 C49.5058431,30.3999967 49.0075148,29.6183378 48.6541797,28.715 C48.3008446,27.8116621 48.1241797,26.8300053 48.1241797,25.77 C48.1241797,24.7099947 48.3008446,23.7283378 48.6541797,22.825 C49.0075148,21.9216621 49.5058431,21.1400033 50.1491797,20.48 C50.7925162,19.8199967 51.5658418,19.3050019 52.4691797,18.935 C53.3725175,18.5649981 54.3708409,18.38 55.4641797,18.38 C56.5575185,18.38 57.5541752,18.5666648 58.4541797,18.94 C59.3541842,19.3133352 60.1241765,19.82833 60.7641797,20.485 C61.4041829,21.1416699 61.9008446,21.9216621 62.2541797,22.825 C62.6075148,23.7283378 62.7841797,24.7099947 62.7841797,25.77 Z M60.0241797,25.77 C60.0241797,24.9766627 59.9191807,24.2650031 59.7091797,23.635 C59.4991786,23.0049968 59.197515,22.4700022 58.8041797,22.03 C58.4108444,21.5899978 57.9325158,21.2533345 57.3691797,21.02 C56.8058435,20.7866655 56.1708499,20.67 55.4641797,20.67 C54.7575095,20.67 54.1208492,20.7866655 53.5541797,21.02 C52.9875102,21.2533345 52.5058483,21.5899978 52.1091797,22.03 C51.712511,22.4700022 51.4075141,23.0049968 51.1941797,23.635 C50.9808453,24.2650031 50.8741797,24.9766627 50.8741797,25.77 C50.8741797,26.5633373 50.9808453,27.2749968 51.1941797,27.905 C51.4075141,28.5350031 51.712511,29.0683311 52.1091797,29.505 C52.5058483,29.9416688 52.9875102,30.2766655 53.5541797,30.51 C54.1208492,30.7433345 54.7575095,30.86 55.4641797,30.86 C56.1708499,30.86 56.8058435,30.7433345 57.3691797,30.51 C57.9325158,30.2766655 58.4108444,29.9416688 58.8041797,29.505 C59.197515,29.0683311 59.4991786,28.5350031 59.7091797,27.905 C59.9191807,27.2749968 60.0241797,26.5633373 60.0241797,25.77 Z M67.9341797,33 L65.2341797,33 L65.2341797,18.54 L67.9341797,18.54 L67.9341797,33 Z M81.1241797,29.59 C81.2708471,29.59 81.3975125,29.6466661 81.5041797,29.76 L82.5641797,30.91 C81.9775101,31.6366703 81.2558506,32.1933314 80.3991797,32.58 C79.5425087,32.9666686 78.5141857,33.16 77.3141797,33.16 C76.240841,33.16 75.2758506,32.9766685 74.4191797,32.61 C73.5625087,32.2433315 72.8308494,31.7333366 72.2241797,31.08 C71.61751,30.4266634 71.1525146,29.6466712 70.8291797,28.74 C70.5058447,27.8333288 70.3441797,26.8433387 70.3441797,25.77 C70.3441797,24.6833279 70.5241779,23.6883378 70.8841797,22.785 C71.2441815,21.8816621 71.7508431,21.1033366 72.4041797,20.45 C73.0575163,19.7966634 73.8391751,19.2883351 74.7491797,18.925 C75.6591842,18.5616648 76.6641742,18.38 77.7641797,18.38 C78.8375184,18.38 79.7758423,18.5516649 80.5791797,18.895 C81.382517,19.238335 82.0708435,19.6933305 82.6441797,20.26 L81.7441797,21.51 C81.6908461,21.5900004 81.6225134,21.6599997 81.5391797,21.72 C81.4558459,21.7800003 81.3408471,21.81 81.1941797,21.81 C81.0408456,21.81 80.8841805,21.7500006 80.7241797,21.63 C80.5641789,21.5099994 80.3608476,21.3800007 80.1141797,21.24 C79.8675118,21.0999993 79.5558482,20.9700006 79.1791797,20.85 C78.8025111,20.7299994 78.3241826,20.67 77.7441797,20.67 C77.0641763,20.67 76.4391825,20.7883321 75.8691797,21.025 C75.2991768,21.2616678 74.8091817,21.5999978 74.3991797,22.04 C73.9891776,22.4800022 73.6691808,23.0149968 73.4391797,23.645 C73.2091785,24.2750031 73.0941797,24.9833294 73.0941797,25.77 C73.0941797,26.5833374 73.2091785,27.3066635 73.4391797,27.94 C73.6691808,28.5733365 73.9808444,29.1066645 74.3741797,29.54 C74.767515,29.9733355 75.2308437,30.3049988 75.7641797,30.535 C76.2975157,30.7650011 76.8708433,30.88 77.4841797,30.88 C77.8508482,30.88 78.1825115,30.8600002 78.4791797,30.82 C78.7758478,30.7799998 79.0491784,30.7166671 79.2991797,30.63 C79.5491809,30.5433329 79.7858452,30.4316673 80.0091797,30.295 C80.2325141,30.1583326 80.4541786,29.990001 80.6741797,29.79 C80.7408467,29.7299997 80.810846,29.6816668 80.8841797,29.645 C80.9575134,29.6083331 81.0375126,29.59 81.1241797,29.59 Z M93.7141797,18.54 L93.7141797,20.68 L87.3041797,20.68 L87.3041797,24.69 L92.3541797,24.69 L92.3541797,26.76 L87.3041797,26.76 L87.3041797,30.85 L93.7141797,30.85 L93.7141797,33 L84.5941797,33 L84.5941797,18.54 L93.7141797,18.54 Z M109.84418,29.59 C109.990847,29.59 110.117512,29.6466661 110.22418,29.76 L111.28418,30.91 C110.69751,31.6366703 109.975851,32.1933314 109.11918,32.58 C108.262509,32.9666686 107.234186,33.16 106.03418,33.16 C104.960841,33.16 103.995851,32.9766685 103.13918,32.61 C102.282509,32.2433315 101.550849,31.7333366 100.94418,31.08 C100.33751,30.4266634 99.8725146,29.6466712 99.5491797,28.74 C99.2258447,27.8333288 99.0641797,26.8433387 99.0641797,25.77 C99.0641797,24.6833279 99.2441779,23.6883378 99.6041797,22.785 C99.9641815,21.8816621 100.470843,21.1033366 101.12418,20.45 C101.777516,19.7966634 102.559175,19.2883351 103.46918,18.925 C104.379184,18.5616648 105.384174,18.38 106.48418,18.38 C107.557518,18.38 108.495842,18.5516649 109.29918,18.895 C110.102517,19.238335 110.790843,19.6933305 111.36418,20.26 L110.46418,21.51 C110.410846,21.5900004 110.342513,21.6599997 110.25918,21.72 C110.175846,21.7800003 110.060847,21.81 109.91418,21.81 C109.760846,21.81 109.60418,21.7500006 109.44418,21.63 C109.284179,21.5099994 109.080848,21.3800007 108.83418,21.24 C108.587512,21.0999993 108.275848,20.9700006 107.89918,20.85 C107.522511,20.7299994 107.044183,20.67 106.46418,20.67 C105.784176,20.67 105.159183,20.7883321 104.58918,21.025 C104.019177,21.2616678 103.529182,21.5999978 103.11918,22.04 C102.709178,22.4800022 102.389181,23.0149968 102.15918,23.645 C101.929179,24.2750031 101.81418,24.9833294 101.81418,25.77 C101.81418,26.5833374 101.929179,27.3066635 102.15918,27.94 C102.389181,28.5733365 102.700844,29.1066645 103.09418,29.54 C103.487515,29.9733355 103.950844,30.3049988 104.48418,30.535 C105.017516,30.7650011 105.590843,30.88 106.20418,30.88 C106.570848,30.88 106.902512,30.8600002 107.19918,30.82 C107.495848,30.7799998 107.769178,30.7166671 108.01918,30.63 C108.269181,30.5433329 108.505845,30.4316673 108.72918,30.295 C108.952514,30.1583326 109.174179,29.990001 109.39418,29.79 C109.460847,29.7299997 109.530846,29.6816668 109.60418,29.645 C109.677513,29.6083331 109.757513,29.59 109.84418,29.59 Z M126.02418,33 L123.94418,33 C123.710845,33 123.51918,32.9416672 123.36918,32.825 C123.219179,32.7083327 123.110847,32.5633342 123.04418,32.39 L121.96418,29.44 L115.97418,29.44 L114.89418,32.39 C114.840846,32.5433341 114.735847,32.6833327 114.57918,32.81 C114.422512,32.9366673 114.230847,33 114.00418,33 L111.91418,33 L117.59418,18.54 L120.34418,18.54 L126.02418,33 Z M116.66418,27.54 L121.27418,27.54 L119.51418,22.73 C119.434179,22.5166656 119.345847,22.2650014 119.24918,21.975 C119.152513,21.6849985 119.057513,21.3700017 118.96418,21.03 C118.870846,21.3700017 118.77918,21.6866652 118.68918,21.98 C118.599179,22.2733348 118.510847,22.5299989 118.42418,22.75 L116.66418,27.54 Z M130.29418,27.91 L130.29418,33 L127.60418,33 L127.60418,18.54 L132.31418,18.54 C133.280851,18.54 134.117509,18.6533322 134.82418,18.88 C135.53085,19.1066678 136.114177,19.4233313 136.57418,19.83 C137.034182,20.2366687 137.374179,20.7233305 137.59418,21.29 C137.814181,21.8566695 137.92418,22.4766633 137.92418,23.15 C137.92418,23.8500035 137.807514,24.4916637 137.57418,25.075 C137.340845,25.6583362 136.990849,26.1599979 136.52418,26.58 C136.057511,27.0000021 135.474183,27.3266655 134.77418,27.56 C134.074176,27.7933345 133.254184,27.91 132.31418,27.91 L130.29418,27.91 Z M130.29418,25.81 L132.31418,25.81 C132.807515,25.81 133.237511,25.748334 133.60418,25.625 C133.970848,25.5016661 134.274178,25.3250012 134.51418,25.095 C134.754181,24.8649989 134.934179,24.5850017 135.05418,24.255 C135.17418,23.9249984 135.23418,23.5566687 135.23418,23.15 C135.23418,22.7633314 135.17418,22.4133349 135.05418,22.1 C134.934179,21.7866651 134.754181,21.5200011 134.51418,21.3 C134.274178,21.0799989 133.970848,20.9116673 133.60418,20.795 C133.237511,20.6783328 132.807515,20.62 132.31418,20.62 L130.29418,20.62 L130.29418,25.81 Z M150.20418,18.54 L150.20418,20.75 L145.85418,20.75 L145.85418,33 L143.16418,33 L143.16418,20.75 L138.79418,20.75 L138.79418,18.54 L150.20418,18.54 Z M157.73418,30.83 C158.254182,30.83 158.719178,30.7433342 159.12918,30.57 C159.539182,30.3966658 159.885845,30.1533349 160.16918,29.84 C160.452514,29.5266651 160.669179,29.1466689 160.81918,28.7 C160.96918,28.2533311 161.04418,27.7533361 161.04418,27.2 L161.04418,18.54 L163.73418,18.54 L163.73418,27.2 C163.73418,28.0600043 163.595848,28.8549963 163.31918,29.585 C163.042512,30.3150036 162.644182,30.9449973 162.12418,31.475 C161.604177,32.0050026 160.974183,32.4183318 160.23418,32.715 C159.494176,33.0116681 158.660851,33.16 157.73418,33.16 C156.807508,33.16 155.974183,33.0116681 155.23418,32.715 C154.494176,32.4183318 153.865849,32.0050026 153.34918,31.475 C152.83251,30.9449973 152.435848,30.3150036 152.15918,29.585 C151.882512,28.8549963 151.74418,28.0600043 151.74418,27.2 L151.74418,18.54 L154.43418,18.54 L154.43418,27.19 C154.43418,27.7433361 154.509179,28.2433311 154.65918,28.69 C154.80918,29.1366689 155.024178,29.5183317 155.30418,29.835 C155.584181,30.1516682 155.929178,30.3966658 156.33918,30.57 C156.749182,30.7433342 157.214177,30.83 157.73418,30.83 Z M169.25418,27.35 L169.25418,33 L166.56418,33 L166.56418,18.54 L170.97418,18.54 C171.960851,18.54 172.805843,18.6416656 173.50918,18.845 C174.212517,19.0483343 174.789177,19.3333315 175.23918,19.7 C175.689182,20.0666685 176.019179,20.5049974 176.22918,21.015 C176.439181,21.5250025 176.54418,22.0866636 176.54418,22.7 C176.54418,23.1866691 176.472514,23.6466645 176.32918,24.08 C176.185846,24.5133355 175.979181,24.9066649 175.70918,25.26 C175.439178,25.6133351 175.105848,25.923332 174.70918,26.19 C174.312511,26.456668 173.860849,26.6699992 173.35418,26.83 C173.694181,27.0233343 173.987512,27.2999982 174.23418,27.66 L177.85418,33 L175.43418,33 C175.200845,33 175.002514,32.9533338 174.83918,32.86 C174.675846,32.7666662 174.537514,32.6333342 174.42418,32.46 L171.38418,27.83 C171.270846,27.6566658 171.145847,27.5333337 171.00918,27.46 C170.872512,27.3866663 170.670848,27.35 170.40418,27.35 L169.25418,27.35 Z M169.25418,25.42 L170.93418,25.42 C171.440849,25.42 171.882511,25.3566673 172.25918,25.23 C172.635848,25.1033327 172.945845,24.9283345 173.18918,24.705 C173.432514,24.4816656 173.614179,24.2166682 173.73418,23.91 C173.85418,23.6033318 173.91418,23.2666685 173.91418,22.9 C173.91418,22.166663 173.672515,21.6033353 173.18918,21.21 C172.705844,20.8166647 171.967518,20.62 170.97418,20.62 L169.25418,20.62 L169.25418,25.42 Z M188.69418,18.54 L188.69418,20.68 L182.28418,20.68 L182.28418,24.69 L187.33418,24.69 L187.33418,26.76 L182.28418,26.76 L182.28418,30.85 L188.69418,30.85 L188.69418,33 L179.57418,33 L179.57418,18.54 L188.69418,18.54 Z" id="Combined-Shape" fill="#FFFFFF" mask="url(#mask-2)"></path>
            </g>
        </g>
    </g>
</svg>