<?xml version="1.0" encoding="UTF-8"?>
<svg width="200px" height="50px" viewBox="0 0 200 50" version="1.1" xmlns="http://www.w3.org/2000/svg" xmlns:xlink="http://www.w3.org/1999/xlink">
    <!-- Generator: Sketch 44.1 (41455) - http://www.bohemiancoding.com/sketch -->
    <title>DigitCapture_label</title>
    <desc>Created with Sketch.</desc>
    <defs>
        <rect id="path-1" x="0" y="0" width="200" height="50" rx="12"></rect>
    </defs>
    <g id="Page-1" stroke="none" stroke-width="1" fill="none" fill-rule="evenodd">
        <g id="DigitCapture_label">
            <g id="label">
                <mask id="mask-2" fill="white">
                    <use xlink:href="#path-1"></use>
                </mask>
                <use id="Mask" fill="#C8B4FB" xlink:href="#path-1"></use>
                <path d="M12.3855792,11.3343027 C11.7236648,10.0094689 11.5130062,8.45091892 11.8993787,6.90126346 C12.7597082,3.45067018 16.2544017,1.35084651 19.704995,2.21117605 C23.1555882,3.07150558 25.2554119,6.56619902 24.3950824,10.0167923 C24.0613592,11.3552827 23.3312497,12.4905261 22.3610866,13.3285881 L22.7909955,9.84577566 C23.0570499,7.69039401 21.8063195,5.63490346 19.7697788,4.88061112 C17.3444412,3.98231648 14.6501049,5.22022941 13.7518102,7.64556704 L12.3855792,11.3343027 L12.3855792,11.3343027 Z M1.82181632,11.0248911 C-1.62877697,10.1645616 -3.72860063,6.66986812 -2.8682711,3.21927483 C-2.00794156,-0.231318455 1.48675187,-2.33114212 4.93734516,-1.47081258 C8.38793845,-0.610483049 10.4877621,2.88421039 9.62743258,6.33480367 C8.76710304,9.78539696 5.27240961,11.8852206 1.82181632,11.0248911 Z M-1.86017231,25.7925409 C-5.3107656,24.9322114 -7.41058926,21.4375179 -6.55025973,17.9869246 C-5.68993019,14.5363313 -2.19523676,12.4365077 1.25535653,13.2968372 C4.70594982,14.1571667 6.80577348,17.6518602 5.94544395,21.1024535 C5.08511441,24.5530468 1.59042098,26.6528704 -1.86017231,25.7925409 Z M31.3571159,18.3888684 C27.9065226,17.5285388 25.806699,14.0338454 26.6670285,10.5832521 C27.527358,7.13265881 31.0220515,5.03283514 34.4726447,5.89316468 C37.923238,6.75349421 40.0230617,10.2481876 39.1627322,13.6987809 C38.3024026,17.1493742 34.8077092,19.2491979 31.3571159,18.3888684 Z M20.2714547,-0.0607700745 C16.8208615,-0.921099608 14.7210378,-4.41579304 15.5813673,-7.86638633 C16.4416969,-11.3169796 19.9363903,-13.4168033 23.3869836,-12.5564737 C26.8375769,-11.6961442 28.9374005,-8.20145078 28.077071,-4.75085749 C27.2167415,-1.3002642 23.722048,0.799559459 20.2714547,-0.0607700745 Z M5.50380495,-3.7427587 C2.05321166,-4.60308824 -0.0466120006,-8.09778167 0.813717533,-11.548375 C1.67404707,-14.9989682 5.1687405,-17.0987919 8.61933379,-16.2384624 C12.0699271,-15.3781328 14.1697507,-11.8834394 13.3094212,-8.43284612 C12.4490917,-4.98225283 8.95439824,-2.88242917 5.50380495,-3.7427587 Z M35.0391045,3.62121856 C31.5885113,2.76088902 29.4886876,-0.733804413 30.3490171,-4.1843977 C31.2093467,-7.63499099 34.7040401,-9.73481465 38.1546334,-8.87448512 C41.6052267,-8.01415558 43.7050503,-4.51946215 42.8447208,-1.06886886 C41.9843913,2.38172443 38.4896978,4.48154809 35.0391045,3.62121856 Z M27.6751273,33.1565181 C24.224534,32.2961886 22.1247103,28.8014952 22.9850399,25.3509019 C23.8453694,21.9003086 27.3400628,19.8004849 30.7906561,20.6608145 C34.2412494,21.521144 36.3410731,25.0158374 35.4807435,28.4664307 C34.620414,31.917024 31.1257206,34.0168477 27.6751273,33.1565181 Z M20.467134,9.55892451 L16.9361067,38.1647664 C16.6984714,40.0899163 18.0664723,41.8432001 19.9916222,42.0808353 C20.8281445,42.1840934 21.6739041,41.9830809 22.3745148,41.5144911 L28.7967148,37.219128 C30.3157917,36.2031231 32.3708815,36.6109434 33.3868865,38.1300203 C34.1104993,39.2119281 34.1326489,40.6175533 33.4434837,41.7217233 L16.4996181,68.8689276 C15.9622782,69.7298455 14.9315124,70.1466132 13.946811,69.9010995 L-8.65345187,64.2662211 C-9.64690451,64.0185256 -10.3642155,63.1540898 -10.424437,62.1319966 L-11.6052308,42.0912667 C-11.7664139,39.3556259 -10.0081593,36.8742889 -7.37374643,36.119584 L7.25473961,31.9288246 L15.9475414,8.4588202 C16.3966887,7.24615139 17.7438568,6.62719492 18.9565256,7.07634224 C19.974796,7.45348841 20.6001612,8.48123369 20.467134,9.55892451 L20.467134,9.55892451 Z M54.6855469,23.77 C54.6855469,24.8300053 54.508882,25.8033289 54.1555469,26.69 C53.8022118,27.5766711 53.3055501,28.3399968 52.6655469,28.98 C52.0255437,29.6200032 51.2555514,30.1166649 50.3555469,30.47 C49.4555424,30.8233351 48.4588857,31 47.3655469,31 L41.8455469,31 L41.8455469,16.54 L47.3655469,16.54 C48.4588857,16.54 49.4555424,16.7183315 50.3555469,17.075 C51.2555514,17.4316684 52.0255437,17.9283301 52.6655469,18.565 C53.3055501,19.2016698 53.8022118,19.9633289 54.1555469,20.85 C54.508882,21.7366711 54.6855469,22.7099947 54.6855469,23.77 Z M51.9355469,23.77 C51.9355469,22.9766627 51.8288813,22.2650031 51.6155469,21.635 C51.4022125,21.0049968 51.0988822,20.4716688 50.7055469,20.035 C50.3122116,19.5983311 49.833883,19.2633345 49.2705469,19.03 C48.7072107,18.7966655 48.0722171,18.68 47.3655469,18.68 L44.5555469,18.68 L44.5555469,28.86 L47.3655469,28.86 C48.0722171,28.86 48.7072107,28.7433345 49.2705469,28.51 C49.833883,28.2766655 50.3122116,27.9416688 50.7055469,27.505 C51.0988822,27.0683311 51.4022125,26.5350031 51.6155469,25.905 C51.8288813,25.2749968 51.9355469,24.5633373 51.9355469,23.77 Z M59.8255469,31 L57.1255469,31 L57.1255469,16.54 L59.8255469,16.54 L59.8255469,31 Z M69.7155469,29.02 C70.3222166,29.02 70.8505446,28.9650005 71.3005469,28.855 C71.7505491,28.7449994 72.1788782,28.5933343 72.5855469,28.4 L72.5855469,25.77 L70.7755469,25.77 C70.6022127,25.77 70.4655474,25.7216672 70.3655469,25.625 C70.2655464,25.5283328 70.2155469,25.4100007 70.2155469,25.27 L70.2155469,23.75 L75.0255469,23.75 L75.0255469,29.6 C74.6588784,29.866668 74.2772155,30.0983323 73.8805469,30.295 C73.4838782,30.4916676 73.0605491,30.6533327 72.6105469,30.78 C72.1605446,30.9066673 71.6788828,31.0016663 71.1655469,31.065 C70.652211,31.1283337 70.0988832,31.16 69.5055469,31.16 C68.4522083,31.16 67.482218,30.9766685 66.5955469,30.61 C65.7088758,30.2433315 64.9422168,29.7333366 64.2955469,29.08 C63.648877,28.4266634 63.143882,27.6466712 62.7805469,26.74 C62.4172117,25.8333288 62.2355469,24.8433387 62.2355469,23.77 C62.2355469,22.6833279 62.4122118,21.6866712 62.7655469,20.78 C63.118882,19.8733288 63.6205436,19.0933366 64.2705469,18.44 C64.9205501,17.7866634 65.7088756,17.2800018 66.6355469,16.92 C67.5622182,16.5599982 68.6022078,16.38 69.7555469,16.38 C70.9355528,16.38 71.9572092,16.5549982 72.8205469,16.905 C73.6838845,17.2550017 74.4155439,17.7099972 75.0155469,18.27 L74.2355469,19.49 C74.0822128,19.7366679 73.8788815,19.86 73.6255469,19.86 C73.4655461,19.86 73.3022144,19.8066672 73.1355469,19.7 C72.9222125,19.5733327 72.7038813,19.4466673 72.4805469,19.32 C72.2572124,19.1933327 72.0105482,19.0833338 71.7405469,18.99 C71.4705455,18.8966662 71.1672152,18.8200003 70.8305469,18.76 C70.4938785,18.6999997 70.1055491,18.67 69.6655469,18.67 C68.95221,18.67 68.3072164,18.7899988 67.7305469,19.03 C67.1538773,19.2700012 66.6622156,19.6133311 66.2555469,20.06 C65.8488782,20.5066689 65.535548,21.0433302 65.3155469,21.67 C65.0955458,22.2966698 64.9855469,22.9966628 64.9855469,23.77 C64.9855469,24.6033375 65.1022124,25.3449967 65.3355469,25.995 C65.5688814,26.6450032 65.8955448,27.1933311 66.3155469,27.64 C66.735549,28.0866689 67.235544,28.4283322 67.8155469,28.665 C68.3955498,28.9016678 69.0288768,29.02 69.7155469,29.02 Z M80.5655469,31 L77.8655469,31 L77.8655469,16.54 L80.5655469,16.54 L80.5655469,31 Z M94.0055469,16.54 L94.0055469,18.75 L89.6555469,18.75 L89.6555469,31 L86.9655469,31 L86.9655469,18.75 L82.5955469,18.75 L82.5955469,16.54 L94.0055469,16.54 Z M109.515547,27.59 C109.662214,27.59 109.78888,27.6466661 109.895547,27.76 L110.955547,28.91 C110.368877,29.6366703 109.647218,30.1933314 108.790547,30.58 C107.933876,30.9666686 106.905553,31.16 105.705547,31.16 C104.632208,31.16 103.667218,30.9766685 102.810547,30.61 C101.953876,30.2433315 101.222217,29.7333366 100.615547,29.08 C100.008877,28.4266634 99.5438818,27.6466712 99.2205469,26.74 C98.8972119,25.8333288 98.7355469,24.8433387 98.7355469,23.77 C98.7355469,22.6833279 98.9155451,21.6883378 99.2755469,20.785 C99.6355487,19.8816621 100.14221,19.1033366 100.795547,18.45 C101.448883,17.7966634 102.230542,17.2883351 103.140547,16.925 C104.050551,16.5616648 105.055541,16.38 106.155547,16.38 C107.228886,16.38 108.16721,16.5516649 108.970547,16.895 C109.773884,17.238335 110.462211,17.6933305 111.035547,18.26 L110.135547,19.51 C110.082213,19.5900004 110.013881,19.6599997 109.930547,19.72 C109.847213,19.7800003 109.732214,19.81 109.585547,19.81 C109.432213,19.81 109.275548,19.7500006 109.115547,19.63 C108.955546,19.5099994 108.752215,19.3800007 108.505547,19.24 C108.258879,19.0999993 107.947215,18.9700006 107.570547,18.85 C107.193878,18.7299994 106.71555,18.67 106.135547,18.67 C105.455543,18.67 104.83055,18.7883322 104.260547,19.025 C103.690544,19.2616678 103.200549,19.5999978 102.790547,20.04 C102.380545,20.4800022 102.060548,21.0149968 101.830547,21.645 C101.600546,22.2750031 101.485547,22.9833294 101.485547,23.77 C101.485547,24.5833374 101.600546,25.3066635 101.830547,25.94 C102.060548,26.5733365 102.372212,27.1066645 102.765547,27.54 C103.158882,27.9733355 103.622211,28.3049988 104.155547,28.535 C104.688883,28.7650011 105.26221,28.88 105.875547,28.88 C106.242215,28.88 106.573879,28.8600002 106.870547,28.82 C107.167215,28.7799998 107.440546,28.7166671 107.690547,28.63 C107.940548,28.5433329 108.177212,28.4316673 108.400547,28.295 C108.623881,28.1583326 108.845546,27.990001 109.065547,27.79 C109.132214,27.7299997 109.202213,27.6816668 109.275547,27.645 C109.348881,27.6083331 109.42888,27.59 109.515547,27.59 Z M125.695547,31 L123.615547,31 C123.382212,31 123.190548,30.9416672 123.040547,30.825 C122.890546,30.7083327 122.782214,30.5633342 122.715547,30.39 L121.635547,27.44 L115.645547,27.44 L114.565547,30.39 C114.512213,30.5433341 114.407214,30.6833327 114.250547,30.81 C114.093879,30.9366673 113.902215,31 113.675547,31 L111.585547,31 L117.265547,16.54 L120.015547,16.54 L125.695547,31 Z M116.335547,25.54 L120.945547,25.54 L119.185547,20.73 C119.105546,20.5166656 119.017214,20.2650014 118.920547,19.975 C118.82388,19.6849985 118.728881,19.3700017 118.635547,19.03 C118.542213,19.3700017 118.450547,19.6866652 118.360547,19.98 C118.270546,20.2733348 118.182214,20.5299989 118.095547,20.75 L116.335547,25.54 Z M129.965547,25.91 L129.965547,31 L127.275547,31 L127.275547,16.54 L131.985547,16.54 C132.952218,16.54 133.788877,16.6533322 134.495547,16.88 C135.202217,17.1066678 135.785545,17.4233313 136.245547,17.83 C136.705549,18.2366687 137.045546,18.7233305 137.265547,19.29 C137.485548,19.8566695 137.595547,20.4766633 137.595547,21.15 C137.595547,21.8500035 137.478881,22.4916637 137.245547,23.075 C137.012212,23.6583362 136.662216,24.1599979 136.195547,24.58 C135.728878,25.0000021 135.14555,25.3266655 134.445547,25.56 C133.745543,25.7933345 132.925552,25.91 131.985547,25.91 L129.965547,25.91 Z M129.965547,23.81 L131.985547,23.81 C132.478883,23.81 132.908878,23.748334 133.275547,23.625 C133.642215,23.5016661 133.945546,23.3250012 134.185547,23.095 C134.425548,22.8649989 134.605546,22.5850017 134.725547,22.255 C134.845547,21.9249984 134.905547,21.5566687 134.905547,21.15 C134.905547,20.7633314 134.845547,20.4133349 134.725547,20.1 C134.605546,19.7866651 134.425548,19.5200011 134.185547,19.3 C133.945546,19.0799989 133.642215,18.9116673 133.275547,18.795 C132.908878,18.6783328 132.478883,18.62 131.985547,18.62 L129.965547,18.62 L129.965547,23.81 Z M149.875547,16.54 L149.875547,18.75 L145.525547,18.75 L145.525547,31 L142.835547,31 L142.835547,18.75 L138.465547,18.75 L138.465547,16.54 L149.875547,16.54 Z M157.405547,28.83 C157.925549,28.83 158.390545,28.7433342 158.800547,28.57 C159.210549,28.3966658 159.557212,28.1533349 159.840547,27.84 C160.123882,27.5266651 160.340546,27.1466689 160.490547,26.7 C160.640548,26.2533311 160.715547,25.7533361 160.715547,25.2 L160.715547,16.54 L163.405547,16.54 L163.405547,25.2 C163.405547,26.0600043 163.267215,26.8549963 162.990547,27.585 C162.713879,28.3150036 162.315549,28.9449973 161.795547,29.475 C161.275544,30.0050026 160.645551,30.4183318 159.905547,30.715 C159.165543,31.0116681 158.332218,31.16 157.405547,31.16 C156.478876,31.16 155.645551,31.0116681 154.905547,30.715 C154.165543,30.4183318 153.537216,30.0050026 153.020547,29.475 C152.503878,28.9449973 152.107215,28.3150036 151.830547,27.585 C151.553879,26.8549963 151.415547,26.0600043 151.415547,25.2 L151.415547,16.54 L154.105547,16.54 L154.105547,25.19 C154.105547,25.7433361 154.180546,26.2433311 154.330547,26.69 C154.480548,27.1366689 154.695545,27.5183317 154.975547,27.835 C155.255548,28.1516682 155.600545,28.3966658 156.010547,28.57 C156.420549,28.7433342 156.885544,28.83 157.405547,28.83 Z M168.925547,25.35 L168.925547,31 L166.235547,31 L166.235547,16.54 L170.645547,16.54 C171.632218,16.54 172.47721,16.6416656 173.180547,16.845 C173.883884,17.0483343 174.460545,17.3333315 174.910547,17.7 C175.360549,18.0666685 175.690546,18.5049974 175.900547,19.015 C176.110548,19.5250025 176.215547,20.0866636 176.215547,20.7 C176.215547,21.1866691 176.143881,21.6466645 176.000547,22.08 C175.857213,22.5133355 175.650548,22.9066649 175.380547,23.26 C175.110546,23.6133351 174.777216,23.923332 174.380547,24.19 C173.983878,24.456668 173.532216,24.6699992 173.025547,24.83 C173.365549,25.0233343 173.658879,25.2999982 173.905547,25.66 L177.525547,31 L175.105547,31 C174.872212,31 174.673881,30.9533338 174.510547,30.86 C174.347213,30.7666662 174.208881,30.6333342 174.095547,30.46 L171.055547,25.83 C170.942213,25.6566658 170.817214,25.5333337 170.680547,25.46 C170.54388,25.3866663 170.342215,25.35 170.075547,25.35 L168.925547,25.35 Z M168.925547,23.42 L170.605547,23.42 C171.112216,23.42 171.553878,23.3566673 171.930547,23.23 C172.307215,23.1033327 172.617212,22.9283345 172.860547,22.705 C173.103881,22.4816656 173.285546,22.2166682 173.405547,21.91 C173.525547,21.6033318 173.585547,21.2666685 173.585547,20.9 C173.585547,20.166663 173.343883,19.6033353 172.860547,19.21 C172.377211,18.8166647 171.638885,18.62 170.645547,18.62 L168.925547,18.62 L168.925547,23.42 Z M188.365547,16.54 L188.365547,18.68 L181.955547,18.68 L181.955547,22.69 L187.005547,22.69 L187.005547,24.76 L181.955547,24.76 L181.955547,28.85 L188.365547,28.85 L188.365547,31 L179.245547,31 L179.245547,16.54 L188.365547,16.54 Z" id="Combined-Shape" fill="#FFFFFF" mask="url(#mask-2)"></path>
            </g>
        </g>
    </g>
</svg>