<?xml version="1.0" encoding="UTF-8"?>
<svg width="200px" height="50px" viewBox="0 0 200 50" version="1.1" xmlns="http://www.w3.org/2000/svg" xmlns:xlink="http://www.w3.org/1999/xlink">
    <!-- Generator: Sketch 44.1 (41455) - http://www.bohemiancoding.com/sketch -->
    <title>EndCall_label</title>
    <desc>Created with Sketch.</desc>
    <defs>
        <rect id="path-1" x="0" y="0" width="200" height="50" rx="12"></rect>
    </defs>
    <g id="Page-1" stroke="none" stroke-width="1" fill="none" fill-rule="evenodd">
        <g id="EndCall_label">
            <g id="label">
                <mask id="mask-2" fill="white">
                    <use xlink:href="#path-1"></use>
                </mask>
                <use id="Mask" fill="#F44800" xlink:href="#path-1"></use>
                <path d="M64.0536133,4.0570344 C65.7445779,3.12049038 67.8745945,3.73206908 68.8111385,5.42303367 C69.7476825,7.11399826 69.1361038,9.24401485 67.4451392,10.1805589 L0.749588814,47.1200189 C-0.941375777,48.0565629 -3.07139236,47.4449842 -4.00793638,45.7540196 C-4.9444804,44.0630551 -4.33290169,41.9330385 -2.6419371,40.9964945 L64.0536133,4.0570344 Z M24.0600113,-12.9072428 L33.3786197,4.41135319 C33.9405175,5.45563783 33.549681,6.75805461 32.505662,7.32038247 C32.4363857,7.357696 32.3651121,7.3911722 32.2921638,7.42065953 C29.3945999,8.59192098 26.5341425,10.5443424 23.7107917,13.2779237 C22.6478559,15.228722 22.4000415,17.4843105 22.9673487,20.0446892 C23.0684118,20.5008085 22.8630357,20.9700157 22.459405,21.20515 L13.3263852,26.5255721 C12.8140563,26.8240283 12.1569629,26.6505483 11.8587261,26.1380938 C11.8354478,26.0980952 11.8147797,26.0566322 11.7968509,26.0139642 C7.26128528,15.2199378 5.92071333,5.38296307 7.77513507,-3.49696001 C9.41071732,-7.58560763 13.9539333,-11.0517942 21.4047832,-13.8955199 C22.4125035,-14.280131 23.5488848,-13.8571694 24.0600113,-12.9072428 Z M60.6547788,52.0033702 C61.2214711,52.9212001 61.0193956,54.1173005 60.1826163,54.7981361 C53.9956646,59.8320756 48.7237283,62.03546 44.3668072,61.4082893 C35.7531426,58.5750944 27.9085518,52.4950656 20.8330349,43.1682028 C20.8050659,43.1313344 20.7795096,43.0926949 20.756526,43.0525261 C20.4620643,42.537891 20.6404469,41.8818113 21.1549548,41.587131 L30.3268179,36.3340206 C30.7321653,36.1018611 31.2409987,36.1585163 31.5852836,36.4741423 C33.5178916,38.2458761 35.5942342,39.1589512 37.8143114,39.2133678 C41.5921726,38.1338611 44.7124157,36.6316233 47.1750407,34.7066545 C47.2370391,34.6581921 47.3016528,34.613175 47.3685896,34.5718072 C48.3773496,33.948379 49.7001387,34.2609465 50.3231217,35.2699462 L60.6547788,52.0033702 Z M95.7733203,17.54 L95.7733203,19.68 L89.3633203,19.68 L89.3633203,23.69 L94.4133203,23.69 L94.4133203,25.76 L89.3633203,25.76 L89.3633203,29.85 L95.7733203,29.85 L95.7733203,32 L86.6533203,32 L86.6533203,17.54 L95.7733203,17.54 Z M99.5133203,17.54 C99.6333209,17.54 99.7333199,17.545 99.8133203,17.555 C99.8933207,17.5650001 99.9649867,17.5849999 100.02832,17.615 C100.091654,17.6450002 100.15332,17.6883331 100.21332,17.745 C100.273321,17.801667 100.339987,17.8766662 100.41332,17.97 L108.00332,27.64 C107.976654,27.4066655 107.95832,27.1783345 107.94832,26.955 C107.93832,26.7316656 107.93332,26.5233343 107.93332,26.33 L107.93332,17.54 L110.30332,17.54 L110.30332,32 L108.91332,32 C108.699986,32 108.523321,31.966667 108.38332,31.9 C108.24332,31.833333 108.106654,31.7133342 107.97332,31.54 L100.41332,21.91 C100.43332,22.1233344 100.44832,22.334999 100.45832,22.545 C100.46832,22.7550011 100.47332,22.9466658 100.47332,23.12 L100.47332,32 L98.1033203,32 L98.1033203,17.54 L99.5133203,17.54 Z M126.06332,24.77 C126.06332,25.8300053 125.886655,26.8033289 125.53332,27.69 C125.179985,28.5766711 124.683324,29.3399968 124.04332,29.98 C123.403317,30.6200032 122.633325,31.1166649 121.73332,31.47 C120.833316,31.8233351 119.836659,32 118.74332,32 L113.22332,32 L113.22332,17.54 L118.74332,17.54 C119.836659,17.54 120.833316,17.7183316 121.73332,18.075 C122.633325,18.4316685 123.403317,18.9283302 124.04332,19.565 C124.683324,20.2016699 125.179985,20.9633289 125.53332,21.85 C125.886655,22.7366711 126.06332,23.7099947 126.06332,24.77 Z M123.31332,24.77 C123.31332,23.9766627 123.206655,23.2650031 122.99332,22.635 C122.779986,22.0049968 122.476656,21.4716688 122.08332,21.035 C121.689985,20.5983311 121.211656,20.2633345 120.64832,20.03 C120.084984,19.7966655 119.449991,19.68 118.74332,19.68 L115.93332,19.68 L115.93332,29.86 L118.74332,29.86 C119.449991,29.86 120.084984,29.7433345 120.64832,29.51 C121.211656,29.2766655 121.689985,28.9416688 122.08332,28.505 C122.476656,28.0683311 122.779986,27.5350031 122.99332,26.905 C123.206655,26.2749968 123.31332,25.5633373 123.31332,24.77 Z M141.97332,28.59 C142.119988,28.59 142.246653,28.6466661 142.35332,28.76 L143.41332,29.91 C142.826651,30.6366703 142.104991,31.1933314 141.24832,31.58 C140.391649,31.9666686 139.363326,32.16 138.16332,32.16 C137.089982,32.16 136.124991,31.9766685 135.26832,31.61 C134.411649,31.2433315 133.67999,30.7333366 133.07332,30.08 C132.466651,29.4266634 132.001655,28.6466712 131.67832,27.74 C131.354985,26.8333288 131.19332,25.8433387 131.19332,24.77 C131.19332,23.6833279 131.373319,22.6883379 131.73332,21.785 C132.093322,20.8816622 132.599984,20.1033366 133.25332,19.45 C133.906657,18.7966634 134.688316,18.2883352 135.59832,17.925 C136.508325,17.5616649 137.513315,17.38 138.61332,17.38 C139.686659,17.38 140.624983,17.551665 141.42832,17.895 C142.231658,18.2383351 142.919984,18.6933305 143.49332,19.26 L142.59332,20.51 C142.539987,20.5900004 142.471654,20.6599997 142.38832,20.72 C142.304987,20.7800003 142.189988,20.81 142.04332,20.81 C141.889986,20.81 141.733321,20.7500006 141.57332,20.63 C141.41332,20.5099994 141.209988,20.3800007 140.96332,20.24 C140.716652,20.0999993 140.404989,19.9700006 140.02832,19.85 C139.651652,19.7299994 139.173323,19.67 138.59332,19.67 C137.913317,19.67 137.288323,19.7883322 136.71832,20.025 C136.148317,20.2616679 135.658322,20.5999978 135.24832,21.04 C134.838318,21.4800022 134.518321,22.0149969 134.28832,22.645 C134.058319,23.2750032 133.94332,23.9833294 133.94332,24.77 C133.94332,25.5833374 134.058319,26.3066635 134.28832,26.94 C134.518321,27.5733365 134.829985,28.1066645 135.22332,28.54 C135.616656,28.9733355 136.079984,29.3049989 136.61332,29.535 C137.146656,29.7650012 137.719984,29.88 138.33332,29.88 C138.699989,29.88 139.031652,29.8600002 139.32832,29.82 C139.624988,29.7799998 139.898319,29.7166671 140.14832,29.63 C140.398322,29.5433329 140.634986,29.4316674 140.85832,29.295 C141.081655,29.1583327 141.303319,28.990001 141.52332,28.79 C141.589987,28.7299997 141.659987,28.6816669 141.73332,28.645 C141.806654,28.6083332 141.886653,28.59 141.97332,28.59 Z M158.15332,32 L156.07332,32 C155.839986,32 155.648321,31.9416673 155.49832,31.825 C155.34832,31.7083328 155.239987,31.5633342 155.17332,31.39 L154.09332,28.44 L148.10332,28.44 L147.02332,31.39 C146.969987,31.5433341 146.864988,31.6833327 146.70832,31.81 C146.551653,31.9366673 146.359988,32 146.13332,32 L144.04332,32 L149.72332,17.54 L152.47332,17.54 L158.15332,32 Z M148.79332,26.54 L153.40332,26.54 L151.64332,21.73 C151.56332,21.5166656 151.474987,21.2650015 151.37832,20.975 C151.281653,20.6849986 151.186654,20.3700017 151.09332,20.03 C150.999987,20.3700017 150.908321,20.6866652 150.81832,20.98 C150.72832,21.2733348 150.639987,21.5299989 150.55332,21.75 L148.79332,26.54 Z M162.33332,29.78 L168.12332,29.78 L168.12332,32 L159.64332,32 L159.64332,17.54 L162.33332,17.54 L162.33332,29.78 Z M172.67332,29.78 L178.46332,29.78 L178.46332,32 L169.98332,32 L169.98332,17.54 L172.67332,17.54 L172.67332,29.78 Z" id="Combined-Shape" fill="#FFFFFF" fill-rule="nonzero" mask="url(#mask-2)"></path>
            </g>
        </g>
    </g>
</svg>