<?xml version="1.0" encoding="UTF-8"?>
<svg width="200px" height="50px" viewBox="0 0 200 50" version="1.1" xmlns="http://www.w3.org/2000/svg" xmlns:xlink="http://www.w3.org/1999/xlink">
    <!-- Generator: Sketch 44.1 (41455) - http://www.bohemiancoding.com/sketch -->
    <title>EndCall_label CROSS</title>
    <desc>Created with Sketch.</desc>
    <defs>
        <rect id="path-1" x="0" y="0" width="200" height="50" rx="12"></rect>
    </defs>
    <g id="Page-1" stroke="none" stroke-width="1" fill="none" fill-rule="evenodd">
        <g id="EndCall_label-CROSS">
            <g id="label">
                <mask id="mask-2" fill="white">
                    <use xlink:href="#path-1"></use>
                </mask>
                <use id="Mask" fill="#F44800" xlink:href="#path-1"></use>
                <path d="M93.7733203,17.54 L93.7733203,19.68 L87.3633203,19.68 L87.3633203,23.69 L92.4133203,23.69 L92.4133203,25.76 L87.3633203,25.76 L87.3633203,29.85 L93.7733203,29.85 L93.7733203,32 L84.6533203,32 L84.6533203,17.54 L93.7733203,17.54 Z M97.5133203,17.54 C97.6333209,17.54 97.7333199,17.545 97.8133203,17.555 C97.8933207,17.5650001 97.9649867,17.5849999 98.0283203,17.615 C98.091654,17.6450002 98.15332,17.6883331 98.2133203,17.745 C98.2733206,17.801667 98.3399866,17.8766662 98.4133203,17.97 L106.00332,27.64 C105.976654,27.4066655 105.95832,27.1783345 105.94832,26.955 C105.93832,26.7316656 105.93332,26.5233343 105.93332,26.33 L105.93332,17.54 L108.30332,17.54 L108.30332,32 L106.91332,32 C106.699986,32 106.523321,31.966667 106.38332,31.9 C106.24332,31.833333 106.106654,31.7133342 105.97332,31.54 L98.4133203,21.91 C98.4333204,22.1233344 98.4483203,22.334999 98.4583203,22.545 C98.4683204,22.7550011 98.4733203,22.9466658 98.4733203,23.12 L98.4733203,32 L96.1033203,32 L96.1033203,17.54 L97.5133203,17.54 Z M124.06332,24.77 C124.06332,25.8300053 123.886655,26.8033289 123.53332,27.69 C123.179985,28.5766711 122.683324,29.3399968 122.04332,29.98 C121.403317,30.6200032 120.633325,31.1166649 119.73332,31.47 C118.833316,31.8233351 117.836659,32 116.74332,32 L111.22332,32 L111.22332,17.54 L116.74332,17.54 C117.836659,17.54 118.833316,17.7183316 119.73332,18.075 C120.633325,18.4316685 121.403317,18.9283302 122.04332,19.565 C122.683324,20.2016699 123.179985,20.9633289 123.53332,21.85 C123.886655,22.7366711 124.06332,23.7099947 124.06332,24.77 Z M121.31332,24.77 C121.31332,23.9766627 121.206655,23.2650031 120.99332,22.635 C120.779986,22.0049968 120.476656,21.4716688 120.08332,21.035 C119.689985,20.5983311 119.211656,20.2633345 118.64832,20.03 C118.084984,19.7966655 117.449991,19.68 116.74332,19.68 L113.93332,19.68 L113.93332,29.86 L116.74332,29.86 C117.449991,29.86 118.084984,29.7433345 118.64832,29.51 C119.211656,29.2766655 119.689985,28.9416688 120.08332,28.505 C120.476656,28.0683311 120.779986,27.5350031 120.99332,26.905 C121.206655,26.2749968 121.31332,25.5633373 121.31332,24.77 Z M139.97332,28.59 C140.119988,28.59 140.246653,28.6466661 140.35332,28.76 L141.41332,29.91 C140.826651,30.6366703 140.104991,31.1933314 139.24832,31.58 C138.391649,31.9666686 137.363326,32.16 136.16332,32.16 C135.089982,32.16 134.124991,31.9766685 133.26832,31.61 C132.411649,31.2433315 131.67999,30.7333366 131.07332,30.08 C130.466651,29.4266634 130.001655,28.6466712 129.67832,27.74 C129.354985,26.8333288 129.19332,25.8433387 129.19332,24.77 C129.19332,23.6833279 129.373319,22.6883379 129.73332,21.785 C130.093322,20.8816622 130.599984,20.1033366 131.25332,19.45 C131.906657,18.7966634 132.688316,18.2883352 133.59832,17.925 C134.508325,17.5616649 135.513315,17.38 136.61332,17.38 C137.686659,17.38 138.624983,17.551665 139.42832,17.895 C140.231658,18.2383351 140.919984,18.6933305 141.49332,19.26 L140.59332,20.51 C140.539987,20.5900004 140.471654,20.6599997 140.38832,20.72 C140.304987,20.7800003 140.189988,20.81 140.04332,20.81 C139.889986,20.81 139.733321,20.7500006 139.57332,20.63 C139.41332,20.5099994 139.209988,20.3800007 138.96332,20.24 C138.716652,20.0999993 138.404989,19.9700006 138.02832,19.85 C137.651652,19.7299994 137.173323,19.67 136.59332,19.67 C135.913317,19.67 135.288323,19.7883322 134.71832,20.025 C134.148317,20.2616679 133.658322,20.5999978 133.24832,21.04 C132.838318,21.4800022 132.518321,22.0149969 132.28832,22.645 C132.058319,23.2750032 131.94332,23.9833294 131.94332,24.77 C131.94332,25.5833374 132.058319,26.3066635 132.28832,26.94 C132.518321,27.5733365 132.829985,28.1066645 133.22332,28.54 C133.616656,28.9733355 134.079984,29.3049989 134.61332,29.535 C135.146656,29.7650012 135.719984,29.88 136.33332,29.88 C136.699989,29.88 137.031652,29.8600002 137.32832,29.82 C137.624988,29.7799998 137.898319,29.7166671 138.14832,29.63 C138.398322,29.5433329 138.634986,29.4316674 138.85832,29.295 C139.081655,29.1583327 139.303319,28.990001 139.52332,28.79 C139.589987,28.7299997 139.659987,28.6816669 139.73332,28.645 C139.806654,28.6083332 139.886653,28.59 139.97332,28.59 Z M156.15332,32 L154.07332,32 C153.839986,32 153.648321,31.9416673 153.49832,31.825 C153.34832,31.7083328 153.239987,31.5633342 153.17332,31.39 L152.09332,28.44 L146.10332,28.44 L145.02332,31.39 C144.969987,31.5433341 144.864988,31.6833327 144.70832,31.81 C144.551653,31.9366673 144.359988,32 144.13332,32 L142.04332,32 L147.72332,17.54 L150.47332,17.54 L156.15332,32 Z M146.79332,26.54 L151.40332,26.54 L149.64332,21.73 C149.56332,21.5166656 149.474987,21.2650014 149.37832,20.975 C149.281653,20.6849985 149.186654,20.3700017 149.09332,20.03 C148.999987,20.3700017 148.908321,20.6866652 148.81832,20.98 C148.72832,21.2733348 148.639987,21.5299989 148.55332,21.75 L146.79332,26.54 Z M160.33332,29.78 L166.12332,29.78 L166.12332,32 L157.64332,32 L157.64332,17.54 L160.33332,17.54 L160.33332,29.78 Z M170.67332,29.78 L176.46332,29.78 L176.46332,32 L167.98332,32 L167.98332,17.54 L170.67332,17.54 L170.67332,29.78 Z" id="Combined-Shape" fill="#FFFFFF" fill-rule="nonzero" mask="url(#mask-2)"></path>
            </g>
            <g id="endCall" transform="translate(-12.000000, -13.000000)" fill-rule="nonzero" fill="#FFFFFF">
                <path d="M71,57.1346801 C71,58.7283951 70.4421998,60.0830527 69.3265993,61.1986532 L61.1986532,69.3265993 C60.0830527,70.4421998 58.7283951,71 57.1346801,71 C55.5409652,71 54.1863075,70.4421998 53.0707071,69.3265993 L35.5,51.7558923 L17.9292929,69.3265993 C16.8136925,70.4421998 15.4590348,71 13.8653199,71 C12.2716049,71 10.9169473,70.4421998 9.8013468,69.3265993 L1.67340067,61.1986532 C0.557800224,60.0830527 0,58.7283951 0,57.1346801 C0,55.5409652 0.557800224,54.1863075 1.67340067,53.0707071 L19.2441077,35.5 L1.67340067,17.9292929 C0.557800224,16.8136925 0,15.4590348 0,13.8653199 C0,12.2716049 0.557800224,10.9169473 1.67340067,9.8013468 L9.8013468,1.67340067 C10.9169473,0.557800224 12.2716049,0 13.8653199,0 C15.4590348,0 16.8136925,0.557800224 17.9292929,1.67340067 L35.5,19.2441077 L53.0707071,1.67340067 C54.1863075,0.557800224 55.5409652,0 57.1346801,0 C58.7283951,0 60.0830527,0.557800224 61.1986532,1.67340067 L69.3265993,9.8013468 C70.4421998,10.9169473 71,12.2716049 71,13.8653199 C71,15.4590348 70.4421998,16.8136925 69.3265993,17.9292929 L51.7558923,35.5 L69.3265993,53.0707071 C70.4421998,54.1863075 71,55.5409652 71,57.1346801 Z" id="Shape"></path>
            </g>
        </g>
    </g>
</svg>