<?xml version="1.0" encoding="UTF-8"?>
<svg width="200px" height="50px" viewBox="0 0 200 50" version="1.1" xmlns="http://www.w3.org/2000/svg" xmlns:xlink="http://www.w3.org/1999/xlink">
    <!-- Generator: Sketch 44.1 (41455) - http://www.bohemiancoding.com/sketch -->
    <title>GeoRouting_label</title>
    <desc>Created with Sketch.</desc>
    <defs>
        <rect id="path-1" x="0" y="0" width="200" height="50" rx="12"></rect>
    </defs>
    <g id="Page-1" stroke="none" stroke-width="1" fill="none" fill-rule="evenodd">
        <g id="GeoRouting_label">
            <g id="label">
                <mask id="mask-2" fill="white">
                    <use xlink:href="#path-1"></use>
                </mask>
                <use id="Mask" fill="#662186" xlink:href="#path-1"></use>
                <path d="M61.515,30.02 C62.1216697,30.02 62.6499977,29.9650005 63.1,29.855 C63.5500022,29.7449994 63.9783313,29.5933343 64.385,29.4 L64.385,26.77 L62.575,26.77 C62.4016658,26.77 62.2650005,26.7216671 62.165,26.625 C62.0649995,26.5283328 62.015,26.4100007 62.015,26.27 L62.015,24.75 L66.825,24.75 L66.825,30.6 C66.4583315,30.866668 66.0766686,31.0983323 65.68,31.295 C65.2833313,31.4916676 64.8600023,31.6533327 64.41,31.78 C63.9599977,31.9066673 63.4783359,32.0016663 62.965,32.065 C62.4516641,32.1283337 61.8983363,32.16 61.305,32.16 C60.2516614,32.16 59.2816711,31.9766685 58.395,31.61 C57.5083289,31.2433315 56.7416699,30.7333366 56.095,30.08 C55.4483301,29.4266634 54.9433351,28.6466712 54.58,27.74 C54.2166649,26.8333288 54.035,25.8433387 54.035,24.77 C54.035,23.6833279 54.2116649,22.6866712 54.565,21.78 C54.9183351,20.8733288 55.4199968,20.0933366 56.07,19.44 C56.7200032,18.7866634 57.5083287,18.2800018 58.435,17.92 C59.3616713,17.5599982 60.4016609,17.38 61.555,17.38 C62.7350059,17.38 63.7566623,17.5549982 64.62,17.905 C65.4833377,18.2550017 66.214997,18.7099972 66.815,19.27 L66.035,20.49 C65.8816659,20.7366679 65.6783346,20.86 65.425,20.86 C65.2649992,20.86 65.1016675,20.8066672 64.935,20.7 C64.7216656,20.5733327 64.5033345,20.4466673 64.28,20.32 C64.0566655,20.1933327 63.8100014,20.0833338 63.54,19.99 C63.2699986,19.8966662 62.9666683,19.8200003 62.63,19.76 C62.2933316,19.6999997 61.9050022,19.67 61.465,19.67 C60.7516631,19.67 60.1066695,19.7899988 59.53,20.03 C58.9533305,20.2700012 58.4616687,20.6133311 58.055,21.06 C57.6483313,21.5066689 57.3350011,22.0433302 57.115,22.67 C56.8949989,23.2966698 56.785,23.9966628 56.785,24.77 C56.785,25.6033375 56.9016655,26.3449967 57.135,26.995 C57.3683345,27.6450032 57.6949979,28.1933311 58.115,28.64 C58.5350021,29.0866689 59.0349971,29.4283321 59.615,29.665 C60.1950029,29.9016678 60.8283299,30.02 61.515,30.02 Z M78.455,17.54 L78.455,19.68 L72.045,19.68 L72.045,23.69 L77.095,23.69 L77.095,25.76 L72.045,25.76 L72.045,29.85 L78.455,29.85 L78.455,32 L69.335,32 L69.335,17.54 L78.455,17.54 Z M94.655,24.77 C94.655,25.8300053 94.4783351,26.8116621 94.125,27.715 C93.7716649,28.6183378 93.2750032,29.3999967 92.635,30.06 C91.9949968,30.7200033 91.2250045,31.2349981 90.325,31.605 C89.4249955,31.9750018 88.4283388,32.16 87.335,32.16 C86.2416612,32.16 85.2433378,31.9750018 84.34,31.605 C83.4366621,31.2349981 82.6633365,30.7200033 82.02,30.06 C81.3766634,29.3999967 80.8783351,28.6183378 80.525,27.715 C80.1716649,26.8116621 79.995,25.8300053 79.995,24.77 C79.995,23.7099947 80.1716649,22.7283378 80.525,21.825 C80.8783351,20.9216621 81.3766634,20.1400033 82.02,19.48 C82.6633365,18.8199967 83.4366621,18.3050019 84.34,17.935 C85.2433378,17.5649981 86.2416612,17.38 87.335,17.38 C88.4283388,17.38 89.4249955,17.5666648 90.325,17.94 C91.2250045,18.3133352 91.9949968,18.82833 92.635,19.485 C93.2750032,20.1416699 93.7716649,20.9216621 94.125,21.825 C94.4783351,22.7283378 94.655,23.7099947 94.655,24.77 Z M91.895,24.77 C91.895,23.9766627 91.7900011,23.2650031 91.58,22.635 C91.3699989,22.0049968 91.0683353,21.4700022 90.675,21.03 C90.2816647,20.5899978 89.8033362,20.2533345 89.24,20.02 C88.6766639,19.7866655 88.0416702,19.67 87.335,19.67 C86.6283298,19.67 85.9916695,19.7866655 85.425,20.02 C84.8583305,20.2533345 84.3766686,20.5899978 83.98,21.03 C83.5833314,21.4700022 83.2783344,22.0049968 83.065,22.635 C82.8516656,23.2650031 82.745,23.9766627 82.745,24.77 C82.745,25.5633373 82.8516656,26.2749968 83.065,26.905 C83.2783344,27.5350031 83.5833314,28.0683311 83.98,28.505 C84.3766686,28.9416688 84.8583305,29.2766655 85.425,29.51 C85.9916695,29.7433345 86.6283298,29.86 87.335,29.86 C88.0416702,29.86 88.6766639,29.7433345 89.24,29.51 C89.8033362,29.2766655 90.2816647,28.9416688 90.675,28.505 C91.0683353,28.0683311 91.3699989,27.5350031 91.58,26.905 C91.7900011,26.2749968 91.895,25.5633373 91.895,24.77 Z M103.415,26.35 L103.415,32 L100.725,32 L100.725,17.54 L105.135,17.54 C106.121672,17.54 106.966663,17.6416656 107.67,17.845 C108.373337,18.0483343 108.949998,18.3333315 109.4,18.7 C109.850002,19.0666685 110.179999,19.5049974 110.39,20.015 C110.600001,20.5250025 110.705,21.0866636 110.705,21.7 C110.705,22.1866691 110.633334,22.6466645 110.49,23.08 C110.346666,23.5133355 110.140001,23.9066649 109.87,24.26 C109.599999,24.6133351 109.266669,24.923332 108.87,25.19 C108.473331,25.456668 108.021669,25.6699992 107.515,25.83 C107.855002,26.0233343 108.148332,26.2999982 108.395,26.66 L112.015,32 L109.595,32 C109.361666,32 109.163334,31.9533338 109,31.86 C108.836666,31.7666662 108.698334,31.6333342 108.585,31.46 L105.545,26.83 C105.431666,26.6566658 105.306667,26.5333337 105.17,26.46 C105.033333,26.3866663 104.831668,26.35 104.565,26.35 L103.415,26.35 Z M103.415,24.42 L105.095,24.42 C105.601669,24.42 106.043331,24.3566673 106.42,24.23 C106.796669,24.1033327 107.106665,23.9283344 107.35,23.705 C107.593335,23.4816655 107.774999,23.2166682 107.895,22.91 C108.015001,22.6033318 108.075,22.2666685 108.075,21.9 C108.075,21.166663 107.833336,20.6033353 107.35,20.21 C106.866664,19.8166647 106.128338,19.62 105.135,19.62 L103.415,19.62 L103.415,24.42 Z M127.605,24.77 C127.605,25.8300053 127.428335,26.8116621 127.075,27.715 C126.721665,28.6183378 126.225003,29.3999967 125.585,30.06 C124.944997,30.7200033 124.175005,31.2349981 123.275,31.605 C122.374996,31.9750018 121.378339,32.16 120.285,32.16 C119.191661,32.16 118.193338,31.9750018 117.29,31.605 C116.386662,31.2349981 115.613337,30.7200033 114.97,30.06 C114.326663,29.3999967 113.828335,28.6183378 113.475,27.715 C113.121665,26.8116621 112.945,25.8300053 112.945,24.77 C112.945,23.7099947 113.121665,22.7283378 113.475,21.825 C113.828335,20.9216621 114.326663,20.1400033 114.97,19.48 C115.613337,18.8199967 116.386662,18.3050019 117.29,17.935 C118.193338,17.5649981 119.191661,17.38 120.285,17.38 C121.378339,17.38 122.374996,17.5666648 123.275,17.94 C124.175005,18.3133352 124.944997,18.82833 125.585,19.485 C126.225003,20.1416699 126.721665,20.9216621 127.075,21.825 C127.428335,22.7283378 127.605,23.7099947 127.605,24.77 Z M124.845,24.77 C124.845,23.9766627 124.740001,23.2650031 124.53,22.635 C124.319999,22.0049968 124.018335,21.4700022 123.625,21.03 C123.231665,20.5899978 122.753336,20.2533345 122.19,20.02 C121.626664,19.7866655 120.99167,19.67 120.285,19.67 C119.57833,19.67 118.941669,19.7866655 118.375,20.02 C117.808331,20.2533345 117.326669,20.5899978 116.93,21.03 C116.533331,21.4700022 116.228334,22.0049968 116.015,22.635 C115.801666,23.2650031 115.695,23.9766627 115.695,24.77 C115.695,25.5633373 115.801666,26.2749968 116.015,26.905 C116.228334,27.5350031 116.533331,28.0683311 116.93,28.505 C117.326669,28.9416688 117.808331,29.2766655 118.375,29.51 C118.941669,29.7433345 119.57833,29.86 120.285,29.86 C120.99167,29.86 121.626664,29.7433345 122.19,29.51 C122.753336,29.2766655 123.231665,28.9416688 123.625,28.505 C124.018335,28.0683311 124.319999,27.5350031 124.53,26.905 C124.740001,26.2749968 124.845,25.5633373 124.845,24.77 Z M135.545,29.83 C136.065003,29.83 136.529998,29.7433342 136.94,29.57 C137.350002,29.3966658 137.696665,29.1533349 137.98,28.84 C138.263335,28.5266651 138.479999,28.1466689 138.63,27.7 C138.780001,27.2533311 138.855,26.7533361 138.855,26.2 L138.855,17.54 L141.545,17.54 L141.545,26.2 C141.545,27.0600043 141.406668,27.8549964 141.13,28.585 C140.853332,29.3150037 140.455003,29.9449974 139.935,30.475 C139.414997,31.0050027 138.785004,31.4183319 138.045,31.715 C137.304996,32.0116681 136.471671,32.16 135.545,32.16 C134.618329,32.16 133.785004,32.0116681 133.045,31.715 C132.304996,31.4183319 131.676669,31.0050027 131.16,30.475 C130.643331,29.9449974 130.246668,29.3150037 129.97,28.585 C129.693332,27.8549964 129.555,27.0600043 129.555,26.2 L129.555,17.54 L132.245,17.54 L132.245,26.19 C132.245,26.7433361 132.319999,27.2433311 132.47,27.69 C132.620001,28.1366689 132.834999,28.5183318 133.115,28.835 C133.395001,29.1516683 133.739998,29.3966658 134.15,29.57 C134.560002,29.7433342 135.024997,29.83 135.545,29.83 Z M154.475,17.54 L154.475,19.75 L150.125,19.75 L150.125,32 L147.435,32 L147.435,19.75 L143.065,19.75 L143.065,17.54 L154.475,17.54 Z M159.215,32 L156.515,32 L156.515,17.54 L159.215,17.54 L159.215,32 Z M163.875,17.54 C163.995001,17.54 164.095,17.5449999 164.175,17.555 C164.255,17.565 164.326666,17.5849998 164.39,17.615 C164.453334,17.6450001 164.515,17.688333 164.575,17.745 C164.635,17.8016669 164.701666,17.8766662 164.775,17.97 L172.365,27.64 C172.338333,27.4066655 172.32,27.1783344 172.31,26.955 C172.3,26.7316655 172.295,26.5233343 172.295,26.33 L172.295,17.54 L174.665,17.54 L174.665,32 L173.275,32 C173.061666,32 172.885001,31.966667 172.745,31.9 C172.604999,31.833333 172.468334,31.7133342 172.335,31.54 L164.775,21.91 C164.795,22.1233344 164.81,22.3349989 164.82,22.545 C164.83,22.755001 164.835,22.9466658 164.835,23.12 L164.835,32 L162.465,32 L162.465,17.54 L163.875,17.54 Z M184.225,30.02 C184.83167,30.02 185.359998,29.9650005 185.81,29.855 C186.260002,29.7449994 186.688331,29.5933343 187.095,29.4 L187.095,26.77 L185.285,26.77 C185.111666,26.77 184.975,26.7216671 184.875,26.625 C184.775,26.5283328 184.725,26.4100007 184.725,26.27 L184.725,24.75 L189.535,24.75 L189.535,30.6 C189.168332,30.866668 188.786669,31.0983323 188.39,31.295 C187.993331,31.4916676 187.570002,31.6533327 187.12,31.78 C186.669998,31.9066673 186.188336,32.0016663 185.675,32.065 C185.161664,32.1283337 184.608336,32.16 184.015,32.16 C182.961661,32.16 181.991671,31.9766685 181.105,31.61 C180.218329,31.2433315 179.45167,30.7333366 178.805,30.08 C178.15833,29.4266634 177.653335,28.6466712 177.29,27.74 C176.926665,26.8333288 176.745,25.8433387 176.745,24.77 C176.745,23.6833279 176.921665,22.6866712 177.275,21.78 C177.628335,20.8733288 178.129997,20.0933366 178.78,19.44 C179.430003,18.7866634 180.218329,18.2800018 181.145,17.92 C182.071671,17.5599982 183.111661,17.38 184.265,17.38 C185.445006,17.38 186.466662,17.5549982 187.33,17.905 C188.193338,18.2550017 188.924997,18.7099972 189.525,19.27 L188.745,20.49 C188.591666,20.7366679 188.388335,20.86 188.135,20.86 C187.974999,20.86 187.811667,20.8066672 187.645,20.7 C187.431666,20.5733327 187.213334,20.4466673 186.99,20.32 C186.766666,20.1933327 186.520001,20.0833338 186.25,19.99 C185.979999,19.8966662 185.676668,19.8200003 185.34,19.76 C185.003332,19.6999997 184.615002,19.67 184.175,19.67 C183.461663,19.67 182.81667,19.7899988 182.24,20.03 C181.66333,20.2700012 181.171669,20.6133311 180.765,21.06 C180.358331,21.5066689 180.045001,22.0433302 179.825,22.67 C179.604999,23.2966698 179.495,23.9966628 179.495,24.77 C179.495,25.6033375 179.611666,26.3449967 179.845,26.995 C180.078335,27.6450032 180.404998,28.1933311 180.825,28.64 C181.245002,29.0866689 181.744997,29.4283321 182.325,29.665 C182.905003,29.9016678 183.53833,30.02 184.225,30.02 Z" id="GEO-ROUTING" fill="#FFFFFF" mask="url(#mask-2)"></path>
                <g id="geo-map" mask="url(#mask-2)" fill="#FFFFFF">
                    <g transform="translate(27.877662, 25.227163) rotate(11.000000) translate(-27.877662, -25.227163) translate(-0.122338, -8.272837)" id="uk-map">
                        <path d="M25.8667443,0.180727407 C28.9370663,1.78627468 31.0427111,-2.84217094e-14 34.2171799,-2.84217094e-14 C34.4971663,-2.84217094e-14 33.6089481,1.14067926 33.6726094,1.26756757 C33.7492436,1.42031328 34.0110853,2.17922639 33.9445401,2.44424092 C33.9114588,2.57598616 30.8981614,5.04917818 30.7682334,5.16081081 C30.2236629,5.62869939 30.4552463,7.74743 30.4051864,7.87702703 C30.3816817,7.93787698 29.2419859,8.91320165 29.4068071,9.05405405 C29.6606738,9.27100261 32.147301,8.37534164 33.0372771,8.14864865 C34.7553611,7.71102168 35.3653176,8.18100857 36.9400324,8.23918919 C37.4842298,8.25929552 39.9520534,8.73325822 40.0262865,9.32567568 C40.3237325,11.6994446 38.9748257,10.5193681 38.6645057,11.8608108 C38.4777262,12.6682157 38.418804,13.5029454 38.2103424,14.3050517 C38.1423101,14.5668223 35.0601607,18.1198899 34.9432739,18.8324324 C34.8263871,19.544975 36.8968102,19.1231517 36.3043456,20.0091058 C35.9197275,20.5842524 33.2043689,20.5619816 33.6726094,21.7297297 C33.9348941,22.3838432 36.4255755,22.0503352 37.2621303,22.272973 C38.098685,22.4956107 39.4252659,24.0271963 39.6628849,24.3554054 C40.0642053,24.9097254 40.5646549,26.8598497 40.7520259,27.4337838 C41.004301,28.2065245 41.6586552,28.7893548 42.023045,29.5162162 C42.4497418,30.3673638 42.4355227,31.6346871 43.0210697,32.4135135 C43.6121907,33.1997539 43.5369078,32.2715911 44.2920887,33.0472973 C44.7388289,33.5061795 44.3576561,33.6632205 45.2901135,33.9527027 C45.6306694,33.9998077 45.7446756,33.7935052 46.1980855,33.9527027 C47.2178478,34.2313094 46.8686017,35.9160211 46.923825,36.5783784 C47.053187,36.8862958 47.3958626,36.7950643 47.46875,36.9405405 C47.5769031,37.1564039 47.0447698,37.9666901 47.0145867,38.027027 C46.945705,38.1647235 46.8617721,38.6307852 47.0145867,38.764172 C47.1163703,38.8530156 47.8904503,39.1904966 47.9225588,39.2945946 C48.0208289,39.6131943 48.2494983,40.2313001 48.012966,40.2905405 C47.7764337,40.3497809 47.2382338,40.0464171 47.0928067,40.3827389 C46.9473796,40.7190608 48.2727574,41.2556585 48.8301763,41.7391892 C48.9832832,41.8720011 49.0565401,42.0852006 49.102107,42.2824324 C49.1496683,42.4882971 49.0260316,42.7190563 49.102107,42.9162162 C49.1870153,43.1362678 49.5015538,43.2300739 49.5562703,43.4594595 C49.6612951,43.8997509 49.7293735,44.5548099 49.5555612,44.8172139 C49.3817489,45.0796179 47.7740516,45.7397062 48.376013,46.2662162 C48.6614171,46.5158471 50.270891,46.8544563 50.554295,46.6283784 C52.4346985,45.1283365 51.823076,45.326416 53.6401945,45.4513514 C54.021478,45.5047782 55.1557119,45.901932 55.6373075,46.8094595 C55.8821161,47.3527027 55.9833109,48.7757633 55.9088837,49.3442409 C55.8892905,49.4938945 55.698399,49.5688401 55.636953,49.7067568 C55.5743375,49.8472981 55.6275481,50.0286863 55.5458367,50.1591058 C55.4656765,50.2870496 55.2245983,50.2859814 55.1831442,50.4310811 C55.1460609,50.5608824 55.4206551,50.6703712 55.3646677,50.7932432 C55.2407344,51.0652321 53.9525968,52.2488932 53.821718,52.422973 C53.5782104,52.7468585 53.6457333,53.3404202 53.2767929,53.5091058 C52.7810929,53.7357479 52.1880358,53.3916439 51.643436,53.4189189 C51.3730721,53.4324595 51.4298746,53.9994363 51.4619125,54.0527027 C51.583483,54.2548264 51.6183635,54.3500209 51.3711507,54.9581081 C51.2982268,55.1374843 51.4922053,55.3665384 51.3707962,55.5009977 C51.1713763,55.7218531 51.0865896,55.741496 50.5539404,55.8631598 C50.0212913,55.9848237 50.2398197,56.5878378 50.736173,56.5878378 C51.3416543,56.5878378 51.9636625,56.350719 52.551408,56.4972973 C52.8834723,56.580111 52.9148096,57.0708681 53.277502,57.2216216 C53.6401945,57.3723752 54.4793908,56.8976799 54.8200972,56.95 C54.9811228,56.9747276 55.069102,57.254774 55.0016207,57.4027027 C53.6725036,60.3163217 54.8478336,57.1939529 54.0940032,57.9459459 C53.8626284,58.1767568 53.8063721,58.5587904 53.5490782,58.7604571 C53.3529749,58.9141627 52.6594313,58.9293365 52.4602917,59.122973 C52.2611521,59.3166095 52.2616997,59.8070695 52.0061284,60.0280247 C51.6687439,60.319712 49.1349017,61.4557845 48.3756584,61.3861328 C47.6164151,61.3164811 46.6030123,60.789529 46.1069692,60.8432432 C45.4510125,60.9142738 44.290086,61.5617362 43.5652857,61.4766734 C41.9672904,61.2891321 44.4873117,60.7180456 42.1134522,60.9337838 C40.6740894,61.0645942 41.4061128,61.2874516 40.3886244,61.748295 C39.9652849,61.940035 39.1326289,61.2419443 38.8460292,61.5675676 C38.1248544,63.4037324 36.7656662,62.7442409 35.8505369,62.2915382 C34.2204832,61.8622282 35.6848615,60.8925827 33.3095624,62.0202703 C33.0185636,62.1584237 32.3986865,62.8634585 32.3111831,63.0162162 C32.1400823,63.314913 32.0995311,63.6766739 31.6758509,64.1932432 C31.3995721,64.5300943 31.383906,65.239972 30.9494024,65.2793761 C30.4311961,65.3263709 30.1395536,64.6160817 29.6790924,64.3743243 C29.0212236,64.0289215 26.8561621,64.061713 26.2301459,64.3743243 C23.8128581,65.5814359 25.5447019,66.9727008 24.3730975,66.9727008 C23.2014932,66.9727008 24.5373176,66.1635407 23.9611021,65.7324324 C23.0331412,65.038158 22.6742302,66.3604058 22.3270361,66.6374842 C22.1635786,66.7679315 22.0769079,65.4530329 22.1458671,65.3702703 C23.4235559,63.8368283 24.4899549,63.7837348 24.7779579,63.5594595 C25.5631046,62.9480456 25.2819223,63.3194898 26.2301459,62.472973 C26.5505621,62.1869247 26.751279,61.7884179 27.0470016,61.477027 C27.34979,61.1581961 28.124258,60.9061205 27.8638574,60.3 C27.6889731,59.8929312 27.0347257,60.1915879 27.5915721,59.4851351 C27.7727411,59.0757243 28.5339787,59.6690898 29.0589388,59.2198465 C29.185599,58.8155217 28.945965,58.1741639 29.2256382,57.8554054 C29.4877171,57.5567 30.00935,57.637272 30.4055409,57.6743243 C30.9973411,57.7296704 31.541593,58.0431717 32.1300142,58.127027 C32.6092118,58.195317 33.1032904,58.1972836 33.5822022,58.127027 C34.1413779,58.0449957 34.6928173,57.8878347 35.2159137,57.6743243 C35.3742323,57.609704 35.6972435,57.1497042 35.5786062,56.95 C35.4599689,56.7502958 35.1793138,56.8931395 35.0340357,56.7689189 C34.8812923,56.6383152 37.7258661,55.0521412 37.3938412,54.4148649 C37.0618162,53.7775886 35.4074903,55.040243 34.6706341,55.5915382 C34.5272845,55.6987884 33.7349175,55.9407848 33.6726094,56.0445946 C33.5810089,56.1972076 33.6606767,56.6215143 33.4907314,56.6780247 C32.1706103,57.1169926 30.8861908,55.5908482 30.3144246,55.4108108 C28.4254284,54.8160047 29.6839568,55.4404608 28.7711203,55.5915382 C28.1488723,55.6945223 29.0265072,54.6196275 28.1361426,54.4148649 C27.0708979,54.169884 27.0793421,55.0932226 26.3205531,55.2293761 C25.8898225,55.1182119 25.9214547,55.368995 25.7759826,55.4104571 C25.5160275,55.484549 25.1666346,54.9378776 25.1410049,54.8675676 C25.0789705,54.6973888 25.2147285,54.4897983 25.1410049,54.3243243 C25.0312895,54.0780664 23.9059606,53.8404157 24.3241491,53.2378378 C25.0968123,52.1244889 25.6398044,52.5510291 26.9562399,52.1513514 C29.4889938,51.3823919 28.3406635,51.4547851 29.1345219,50.0689189 C29.6735964,49.1278378 30.4738606,49.7879281 29.9513776,48.1675676 C29.785608,47.6534714 29.4020127,47.2288933 29.2249291,46.7185652 C29.1255141,46.4320662 29.3132627,46.0587158 29.1345219,45.8135135 C28.7710361,45.3148723 27.940865,46.1007824 27.7727411,46.175322 C27.5838705,46.2815819 27.7093281,46.6491108 27.5004558,46.7185652 C27.1571021,46.8327375 27.0488048,45.9244407 27.1377634,45.8135135 C27.3160606,45.5911851 28.395977,45.0074527 28.4995442,44.727027 C28.6250515,44.3871946 28.268398,43.9201045 28.4991896,43.6405405 C28.785174,43.2941201 29.3678169,43.3884998 29.7702087,43.1878378 C29.9232894,43.1115006 30.6673949,42.6034137 30.9501114,42.5540541 C31.881484,42.3914452 32.8219488,42.2658098 33.7633712,42.1918919 C34.235771,42.1548003 35.1300268,42.8502781 35.4156737,42.2187269 C35.7013207,41.5871757 33.9869757,41.8274646 34.2171799,41.1959459 C34.3096553,40.9422584 34.5030942,39.6793179 34.5802269,39.2945946 C34.6280625,39.0559993 34.9222394,37.8018978 35.0340357,37.3932432 C35.1091953,37.1185085 35.9508379,36.531185 35.5786062,36.2162162 C34.7004153,35.4604702 32.9874499,38.3705298 32.2204214,35.8540541 C32.1060065,35.4786803 32.4641477,34.1470556 32.4927066,33.8621622 C32.5860769,32.9307355 32.4609533,31.3443571 32.5834684,31.0554054 C32.7167969,30.7537215 34.4444167,30.3771803 34.0356564,29.7878378 C33.7633712,29.4580479 31.7890586,30.1523412 31.3128039,30.4216216 C31.1505806,30.5133448 31.4482485,30.7710736 30.7678788,31.0550517 C29.8761048,30.8170955 29.6929821,31.2539973 29.4064526,31.2361328 C29.1631736,31.2209649 28.5671612,30.3266823 28.0975644,30.7131153 C27.6279677,31.0995483 28.461323,31.6160533 28.3173116,31.9604571 C28.0115902,32.6915908 26.8693116,31.0664458 26.3209076,31.0554054 C25.7725037,31.044365 25.8238022,33.2325367 24.8687196,31.327027 C24.5388433,30.6688823 25.2706329,28.972973 26.2301459,27.6148649 C26.397933,27.3773766 27.025264,26.5170387 27.0470016,25.9851351 C27.0687392,25.4532316 26.257578,25.020923 26.0482678,24.7172139 C25.893135,24.4921161 26.1319315,24.1135697 25.9578606,23.9027027 C25.6642958,23.5470825 24.9121284,22.9147586 24.4476281,23.1502171 C23.9831278,23.3856755 24.9257626,23.7880232 25.0505976,24.0837838 C25.1914806,24.4175653 24.9872305,24.8136049 25.0502431,25.1702703 C25.0808617,25.3435785 25.341404,27.1778834 25.2314121,27.4334301 C25.0798028,27.7856673 24.702022,27.3864605 24.3241491,26.8 C24.1630391,26.5499565 23.5451403,25.1702703 23.3257699,25.2608108 C23.1063994,25.3513514 22.7570908,26.1409727 22.5996759,26.6189189 C22.398109,27.23092 22.9871623,27.7626568 22.2362743,27.9766734 C21.9158758,28.0679927 20.8743273,27.323548 21.3290113,26.9810811 C21.7836954,26.6386141 23.2640359,23.1685971 22.8719611,22.8162162 C22.4798863,22.4638354 21.5062385,23.3000562 21.3286568,23.3591058 C21.0804718,23.521068 21.0095725,24.1992473 20.7844408,24.5364865 C20.5593092,24.8737257 19.624647,25.1607763 19.1507293,24.8081081 C18.6768116,24.4554399 19.5137763,24.1742027 19.4233691,23.9027027 C19.3329619,23.6312027 18.2771022,23.7331653 18.3338736,23.45 C18.4503775,22.8689 20.7097109,22.4934555 21.0567261,22.0013514 C21.4037413,21.5092472 21.3694992,21.0024729 21.5105348,20.7337838 C21.719167,20.3363157 22.1686722,20.111146 22.4181524,19.7378378 C22.5403261,19.5550239 23.0506245,18.3553826 23.3257699,18.0175676 C23.447928,17.8675855 24.6265812,17.3589161 23.7795786,16.9310811 C22.932576,16.5032461 22.4172274,18.8318688 21.6009421,19.375322 C21.0817737,19.7209655 19.6136112,19.8103841 19.42266,19.5564031 C19.3022445,19.3962403 19.0602148,18.631012 19.2414911,18.4702703 C19.3449591,18.3785228 20.1338302,18.5277976 20.1338302,18.1332411 C20.1338302,17.7386846 19.3313998,17.7650259 19.2414911,17.6554054 C19.0882277,17.46854 19.0749221,17.1622722 19.2414911,16.9310811 C19.567655,16.4783784 19.8187372,16.043086 19.9675851,15.9351351 C20.2172293,15.7540825 20.537073,15.8536685 20.8755571,15.7540541 C21.2140413,15.6544396 21.3969386,15.2159059 21.1474878,15.0297297 C20.8980371,14.8435535 20.4486071,14.928833 20.1491086,14.7581081 C19.9959426,14.670798 19.8768233,14.2344275 19.5137763,14.0337838 C19.1507293,13.8331401 19.1208817,14.2572726 18.4242808,14.0334301 C17.7276799,13.8095876 18.1964125,13.5172098 18.7876823,13.5810811 C19.3789522,13.6449524 21.6871097,14.5174287 21.2382496,13.3094595 C21.0932657,12.9192797 19.7260991,12.5285702 19.3322528,12.222973 C19.0886094,12.0339227 19.3568639,11.5460871 19.1503748,11.3172139 C18.7686188,10.8940743 18.0474628,10.8626306 17.6985413,10.4121622 C17.475795,10.1245897 17.3724106,9.6030625 17.6077796,9.32567568 C17.8432246,9.04819918 18.3771715,9.41621622 18.6972751,9.23513514 C19.0173787,9.05405405 18.6675079,8.35758054 18.8784441,8.23918919 C19.3011397,8.0019445 20.2825703,7.94148065 20.7218316,8.28451472 C21.1474878,8.61692406 20.0511453,10.7329334 20.3306321,11.1364865 C20.6079961,11.5369745 22.6161022,11.3794855 22.3273906,9.86891892 C22.2816094,9.62938734 21.6148362,9.10455353 21.8735818,8.69189189 C22.2417992,8.10463887 22.486689,8.62512487 22.5996759,8.05810811 C22.7126627,7.49109134 21.8113314,6.50156042 22.1458671,6.2472973 C22.6223663,5.88513514 22.6358498,5.88750033 23.3257699,5.79459459 C24.0156899,5.70168886 24.1993295,5.57597986 24.3241491,5.25135135 C24.4489687,4.92672284 24.3043675,3.92032656 24.2333874,3.25945946 C24.213003,3.06966949 24.0557305,2.90923379 24.3245036,2.62567568 L25.8667443,0.180727407 Z M19.6048926,4.70810811 C19.5010855,5.03356384 17.6967686,7.62317752 16.2463533,7.51484276 C14.795938,7.406508 17.1137994,5.5467899 16.7005166,5.43243243 C15.2106589,5.02018119 15.7501108,3.76638481 16.0648298,3.35 C16.3795489,2.93361519 17.2508728,3.34100781 17.5166633,2.98748416 C17.8261491,2.57584216 19.4004741,0.882834361 19.8768233,1.08648649 C20.9185938,1.53187136 19.6202438,2.94490319 19.5137763,3.44054054 C19.4248014,3.85474491 19.7336458,4.30444167 19.6048926,4.70810811 Z M14.703049,10.0496463 C14.8073915,9.35676293 15.1041646,7.42458958 16.0646082,8.77549158 C16.4158056,9.26946454 14.7391643,11.5517068 14.7941653,11.6797297 C15.1053992,12.4041721 15.67202,12.5288687 15.3387358,12.7662162 C14.703049,13.2189189 13.9946287,14.8454076 13.5235008,14.4864865 C12.9612477,14.0581431 14.0261712,13.6723978 14.1588331,13.2189189 C14.4276328,12.3000788 13.7960011,12.316202 13.9773096,11.5891892 C14.2141153,10.6396429 14.4282313,11.8745659 14.703049,10.0496463 Z M16.9724473,28.0675676 C18.6230437,27.6249446 20.6843314,27.7848465 21.4201276,28.3391892 C22.3645285,29.0506928 21.4516289,29.6216547 21.6012966,30.2405405 C21.8318973,31.1940898 24.7685626,30.8029706 23.2350081,32.4135135 C22.7850406,32.8860706 23.9990918,33.0508096 23.8699858,33.952349 C23.8486613,34.1012569 22.2200985,34.196163 22.4177978,35.6726193 C22.6154971,37.1490756 20.455784,35.5011316 21.0567261,37.2121622 C21.4088925,38.2148669 19.5304569,36.2881589 19.4230146,37.5743243 C19.3487586,38.4632242 18.2378888,41.1913937 20.0557353,41.8668882 C21.8735818,42.5423828 22.7534567,48.0780438 20.5417595,46.1696632 C18.3300623,44.2612826 19.0242036,49.4216292 19.0599676,50.9743243 C19.0957316,52.5270194 14.4949316,50.4785747 12.887814,53.3280247 C12.1785163,54.5856231 11.6614668,53.0386973 10.686487,53.6992719 C9.71150729,54.3598465 8.56016701,54.6912832 7.9866795,55.7726193 C7.41319198,56.8539554 7.21542621,55.1912677 6.31968573,55.7726193 C5.42394525,56.3539709 4.13936101,56.1222236 3.53935373,56.0442409 C2.96867474,55.97007 3.55383169,55.1671557 3.08589951,55.1391892 C1.15453112,55.0237588 2.40357285,54.2331926 2.17828201,54.1432432 C1.857265,54.0150744 0.274008322,53.9549117 0.544570502,53.0567568 C0.654419584,52.6921031 3.22144386,52.2415382 2.99513776,51.6081081 C2.69275277,50.7617334 0.665957693,52.1399776 0.0907617504,51.3364865 C-0.154261447,50.9942136 3.31473169,50.9321708 3.35818476,49.9783784 C3.40163784,49.024586 5.15723679,48.1970904 5.26418152,47.8054054 C5.38346553,47.3685279 3.74753207,48.1064871 3.53970827,47.6365703 C3.27927788,47.0477031 5.35458874,44.7753035 5.89951378,44.0932432 C6.44443882,43.411183 7.90575618,43.7672664 8.07779579,43.0067568 C8.42176972,41.486203 6.19744763,43.4631272 5.08230348,43.2780247 C4.77754313,43.2274376 2.35980551,41.0259835 2.35980551,40.6527027 C2.35980551,39.7939406 4.90148906,39.5543902 4.90148906,38.6608108 C4.90148906,37.7672314 2.94217007,38.2506198 2.54097447,38.1172139 C1.43731598,37.7502244 2.6324453,35.3386847 3.44894652,34.8581081 C4.34683551,34.3296282 5.72915086,34.8079106 6.71672407,34.9486486 C7.89901473,35.1171357 11.1321183,33.919267 11.3452188,33.2283784 C11.9367338,31.3106402 8.50264321,32.6852236 8.44084279,31.9608108 C8.40401273,31.5290959 9.71150729,31.6662004 9.71150729,31.0554054 C9.71150729,30.4446104 10.2772288,31.030232 10.4200073,30.2053279 C10.5549534,29.4256757 10.1578448,29.1238003 10.3468395,28.972973 C10.7136771,28.6802182 12.4723194,28.0930349 12.7069996,28.0675676 C14.9484337,27.8243283 14.6656792,25.8404284 16.0648298,26.8 C16.3898837,27.0229299 15.9141511,27.237981 16.155237,27.6842955 C16.3963229,28.13061 15.9478766,28.187242 15.7925446,28.4297297 C15.6904425,28.5891206 15.5060346,28.6391909 15.4294976,28.7918919 C14.9625875,29.7234361 15.8080189,29.6518785 16.3371151,29.4256757 L16.9724473,28.0675676 Z"></path>
                    </g>
                </g>
            </g>
        </g>
    </g>
</svg>