<?xml version="1.0" encoding="UTF-8"?>
<svg width="200px" height="50px" viewBox="0 0 200 50" version="1.1" xmlns="http://www.w3.org/2000/svg" xmlns:xlink="http://www.w3.org/1999/xlink">
    <!-- Generator: Sketch 44.1 (41455) - http://www.bohemiancoding.com/sketch -->
    <title>GoToIVR_label</title>
    <desc>Created with Sketch.</desc>
    <defs>
        <rect id="path-1" x="0" y="0" width="200" height="50" rx="12"></rect>
    </defs>
    <g id="Page-1" stroke="none" stroke-width="1" fill="none" fill-rule="evenodd">
        <g id="GoToIVR_label">
            <g id="label">
                <mask id="mask-2" fill="white">
                    <use xlink:href="#path-1"></use>
                </mask>
                <use id="Mask" fill="#9FC831" xlink:href="#path-1"></use>
                <path d="M40.5588061,18.9081532 C47.2574208,25.6279572 53.5243121,31.9742852 59.3593532,37.9469875 C64.5128247,43.0216227 63.9781223,49.9352747 58.8838623,55.2521319 C53.8554181,60.5002973 47.2232858,61.2528218 42.4337524,56.4632884 L18.398384,32.42792 C16.4457625,30.4752986 13.2799376,30.4752986 11.3273162,32.42792 C9.37469473,34.3805415 9.37469473,37.5463664 11.3273162,39.4989878 L35.3626846,63.5343562 C44.477235,72.6489066 57.4780878,71.1737461 66.1044644,62.1704341 C74.7313749,53.1665648 75.7460053,40.0474887 66.4435736,30.88977 C60.6393899,24.9475019 54.3542858,18.5826847 47.6298828,11.8370765 L54.2771552,5.18980412 C54.4602386,5.00672069 54.5598798,4.75634274 54.552657,4.49752444 C54.5381459,3.97754457 54.1048554,3.56778114 53.5848755,3.5822922 L34.8116758,4.10619545 L34.8116758,4.10619545 C34.3120958,4.12013722 33.9103853,4.52184769 33.8964436,5.02142769 L33.3725403,23.7946274 C33.3653175,24.0534457 33.4649587,24.3038237 33.6480421,24.4869071 C34.0158665,24.8547315 34.6122278,24.8547315 34.9800522,24.4869071 L40.5588057,18.9081536 Z M91.639375,31.02 C92.2460447,31.02 92.7743728,30.9650005 93.224375,30.855 C93.6743773,30.7449994 94.1027063,30.5933343 94.509375,30.4 L94.509375,27.77 L92.699375,27.77 C92.5260408,27.77 92.3893755,27.7216671 92.289375,27.625 C92.1893745,27.5283328 92.139375,27.4100007 92.139375,27.27 L92.139375,25.75 L96.949375,25.75 L96.949375,31.6 C96.5827065,31.866668 96.2010437,32.0983323 95.804375,32.295 C95.4077064,32.4916676 94.9843773,32.6533327 94.534375,32.78 C94.0843728,32.9066673 93.6027109,33.0016663 93.089375,33.065 C92.5760391,33.1283336 92.0227113,33.16 91.429375,33.16 C90.3760364,33.16 89.4060461,32.9766685 88.519375,32.61 C87.6327039,32.2433315 86.8660449,31.7333366 86.219375,31.08 C85.5727051,30.4266634 85.0677102,29.6466712 84.704375,28.74 C84.3410399,27.8333288 84.159375,26.8433387 84.159375,25.77 C84.159375,24.6833279 84.3360399,23.6866712 84.689375,22.78 C85.0427101,21.8733288 85.5443718,21.0933366 86.194375,20.44 C86.8443783,19.7866634 87.6327037,19.2800018 88.559375,18.92 C89.4860463,18.5599982 90.5260359,18.38 91.679375,18.38 C92.8593809,18.38 93.8810374,18.5549982 94.744375,18.905 C95.6077127,19.2550017 96.339372,19.7099972 96.939375,20.27 L96.159375,21.49 C96.0060409,21.7366679 95.8027096,21.86 95.549375,21.86 C95.3893742,21.86 95.2260425,21.8066672 95.059375,21.7 C94.8460406,21.5733327 94.6277095,21.4466673 94.404375,21.32 C94.1810406,21.1933327 93.9343764,21.0833338 93.664375,20.99 C93.3943737,20.8966662 93.0910434,20.8200003 92.754375,20.76 C92.4177067,20.6999997 92.0293772,20.67 91.589375,20.67 C90.8760381,20.67 90.2310446,20.7899988 89.654375,21.03 C89.0777055,21.2700012 88.5860437,21.6133311 88.179375,22.06 C87.7727063,22.5066689 87.4593761,23.0433302 87.239375,23.67 C87.0193739,24.2966698 86.909375,24.9966628 86.909375,25.77 C86.909375,26.6033375 87.0260405,27.3449967 87.259375,27.995 C87.4927095,28.6450032 87.8193729,29.1933311 88.239375,29.64 C88.6593771,30.0866689 89.1593721,30.4283321 89.739375,30.665 C90.3193779,30.9016678 90.9527049,31.02 91.639375,31.02 Z M113.329375,25.77 C113.329375,26.8300053 113.15271,27.8116621 112.799375,28.715 C112.44604,29.6183378 111.949378,30.3999967 111.309375,31.06 C110.669372,31.7200033 109.89938,32.2349981 108.999375,32.605 C108.09937,32.9750018 107.102714,33.16 106.009375,33.16 C104.916036,33.16 103.917713,32.9750018 103.014375,32.605 C102.111037,32.2349981 101.337712,31.7200033 100.694375,31.06 C100.051038,30.3999967 99.5527101,29.6183378 99.199375,28.715 C98.8460399,27.8116621 98.669375,26.8300053 98.669375,25.77 C98.669375,24.7099947 98.8460399,23.7283378 99.199375,22.825 C99.5527101,21.9216621 100.051038,21.1400033 100.694375,20.48 C101.337712,19.8199967 102.111037,19.3050019 103.014375,18.935 C103.917713,18.5649981 104.916036,18.38 106.009375,18.38 C107.102714,18.38 108.09937,18.5666648 108.999375,18.94 C109.89938,19.3133352 110.669372,19.82833 111.309375,20.485 C111.949378,21.1416699 112.44604,21.9216621 112.799375,22.825 C113.15271,23.7283378 113.329375,24.7099947 113.329375,25.77 Z M110.569375,25.77 C110.569375,24.9766627 110.464376,24.2650032 110.254375,23.635 C110.044374,23.0049969 109.74271,22.4700022 109.349375,22.03 C108.95604,21.5899978 108.477711,21.2533345 107.914375,21.02 C107.351039,20.7866655 106.716045,20.67 106.009375,20.67 C105.302705,20.67 104.666044,20.7866655 104.099375,21.02 C103.532706,21.2533345 103.051044,21.5899978 102.654375,22.03 C102.257706,22.4700022 101.952709,23.0049969 101.739375,23.635 C101.526041,24.2650032 101.419375,24.9766627 101.419375,25.77 C101.419375,26.5633373 101.526041,27.2749969 101.739375,27.905 C101.952709,28.5350032 102.257706,29.0683312 102.654375,29.505 C103.051044,29.9416689 103.532706,30.2766655 104.099375,30.51 C104.666044,30.7433345 105.302705,30.86 106.009375,30.86 C106.716045,30.86 107.351039,30.7433345 107.914375,30.51 C108.477711,30.2766655 108.95604,29.9416689 109.349375,29.505 C109.74271,29.0683312 110.044374,28.5350032 110.254375,27.905 C110.464376,27.2749969 110.569375,26.5633373 110.569375,25.77 Z M129.499375,18.54 L129.499375,20.75 L125.149375,20.75 L125.149375,33 L122.459375,33 L122.459375,20.75 L118.089375,20.75 L118.089375,18.54 L129.499375,18.54 Z M145.079375,25.77 C145.079375,26.8300053 144.90271,27.8116621 144.549375,28.715 C144.19604,29.6183378 143.699378,30.3999967 143.059375,31.06 C142.419372,31.7200033 141.64938,32.2349981 140.749375,32.605 C139.849371,32.9750018 138.852714,33.16 137.759375,33.16 C136.666036,33.16 135.667713,32.9750018 134.764375,32.605 C133.861037,32.2349981 133.087712,31.7200033 132.444375,31.06 C131.801038,30.3999967 131.30271,29.6183378 130.949375,28.715 C130.59604,27.8116621 130.419375,26.8300053 130.419375,25.77 C130.419375,24.7099947 130.59604,23.7283378 130.949375,22.825 C131.30271,21.9216621 131.801038,21.1400033 132.444375,20.48 C133.087712,19.8199967 133.861037,19.3050019 134.764375,18.935 C135.667713,18.5649981 136.666036,18.38 137.759375,18.38 C138.852714,18.38 139.849371,18.5666648 140.749375,18.94 C141.64938,19.3133352 142.419372,19.82833 143.059375,20.485 C143.699378,21.1416699 144.19604,21.9216621 144.549375,22.825 C144.90271,23.7283378 145.079375,24.7099947 145.079375,25.77 Z M142.319375,25.77 C142.319375,24.9766627 142.214376,24.2650032 142.004375,23.635 C141.794374,23.0049969 141.49271,22.4700022 141.099375,22.03 C140.70604,21.5899978 140.227711,21.2533345 139.664375,21.02 C139.101039,20.7866655 138.466045,20.67 137.759375,20.67 C137.052705,20.67 136.416044,20.7866655 135.849375,21.02 C135.282705,21.2533345 134.801044,21.5899978 134.404375,22.03 C134.007706,22.4700022 133.702709,23.0049969 133.489375,23.635 C133.276041,24.2650032 133.169375,24.9766627 133.169375,25.77 C133.169375,26.5633373 133.276041,27.2749969 133.489375,27.905 C133.702709,28.5350032 134.007706,29.0683312 134.404375,29.505 C134.801044,29.9416689 135.282705,30.2766655 135.849375,30.51 C136.416044,30.7433345 137.052705,30.86 137.759375,30.86 C138.466045,30.86 139.101039,30.7433345 139.664375,30.51 C140.227711,30.2766655 140.70604,29.9416689 141.099375,29.505 C141.49271,29.0683312 141.794374,28.5350032 142.004375,27.905 C142.214376,27.2749969 142.319375,26.5633373 142.319375,25.77 Z M154.089375,33 L151.389375,33 L151.389375,18.54 L154.089375,18.54 L154.089375,33 Z M155.919375,18.54 L158.089375,18.54 C158.32271,18.54 158.512708,18.5966661 158.659375,18.71 C158.806042,18.8233339 158.916041,18.9699991 158.989375,19.15 L162.389375,27.97 C162.502709,28.2566681 162.611041,28.571665 162.714375,28.915 C162.817709,29.2583351 162.916041,29.6199981 163.009375,30 C163.162709,29.2333295 163.352707,28.5566696 163.579375,27.97 L166.969375,19.15 C167.029375,18.9966659 167.136041,18.8566673 167.289375,18.73 C167.442709,18.6033327 167.632707,18.54 167.859375,18.54 L170.029375,18.54 L164.189375,33 L161.759375,33 L155.919375,18.54 Z M174.319375,27.35 L174.319375,33 L171.629375,33 L171.629375,18.54 L176.039375,18.54 C177.026047,18.54 177.871038,18.6416657 178.574375,18.845 C179.277712,19.0483344 179.854373,19.3333315 180.304375,19.7 C180.754377,20.0666685 181.084374,20.5049975 181.294375,21.015 C181.504376,21.5250026 181.609375,22.0866636 181.609375,22.7 C181.609375,23.1866691 181.537709,23.6466645 181.394375,24.08 C181.251041,24.5133355 181.044376,24.9066649 180.774375,25.26 C180.504374,25.6133351 180.171044,25.923332 179.774375,26.19 C179.377706,26.456668 178.926044,26.6699992 178.419375,26.83 C178.759377,27.0233343 179.052707,27.2999982 179.299375,27.66 L182.919375,33 L180.499375,33 C180.266041,33 180.067709,32.9533338 179.904375,32.86 C179.741041,32.7666662 179.602709,32.6333342 179.489375,32.46 L176.449375,27.83 C176.336041,27.6566658 176.211042,27.5333337 176.074375,27.46 C175.937708,27.3866663 175.736043,27.35 175.469375,27.35 L174.319375,27.35 Z M174.319375,25.42 L175.999375,25.42 C176.506044,25.42 176.947706,25.3566673 177.324375,25.23 C177.701044,25.1033327 178.01104,24.9283345 178.254375,24.705 C178.49771,24.4816656 178.679374,24.2166682 178.799375,23.91 C178.919376,23.6033318 178.979375,23.2666685 178.979375,22.9 C178.979375,22.166663 178.737711,21.6033353 178.254375,21.21 C177.771039,20.8166647 177.032713,20.62 176.039375,20.62 L174.319375,20.62 L174.319375,25.42 Z" id="Combined-Shape" fill="#FFFFFF" fill-rule="nonzero" mask="url(#mask-2)"></path>
            </g>
        </g>
    </g>
</svg>