<?xml version="1.0" encoding="UTF-8"?>
<svg width="200px" height="50px" viewBox="0 0 200 50" version="1.1" xmlns="http://www.w3.org/2000/svg" xmlns:xlink="http://www.w3.org/1999/xlink">
    <!-- Generator: Sketch 44.1 (41455) - http://www.bohemiancoding.com/sketch -->
    <title>HoursCheck_label</title>
    <desc>Created with Sketch.</desc>
    <defs>
        <rect id="path-1" x="0" y="0" width="200" height="50" rx="12"></rect>
    </defs>
    <g id="Page-1" stroke="none" stroke-width="1" fill="none" fill-rule="evenodd">
        <g id="HoursCheck_label">
            <g id="label">
                <mask id="mask-2" fill="white">
                    <use xlink:href="#path-1"></use>
                </mask>
                <use id="Mask" fill="#DC790C" xlink:href="#path-1"></use>
                <g id="clock-copy" mask="url(#mask-2)" fill="#FFFFFF">
                    <g transform="translate(16.890873, 17.890873) rotate(-315.000000) translate(-16.890873, -17.890873) translate(-10.609127, -9.609127)">
                        <path d="M27.3253942,57.6507883 C10.5771414,57.6507883 -3,44.0736469 -3,27.3253942 C-3,10.5771414 10.5771414,-3 27.3253942,-3 C44.0736469,-3 57.6507883,10.5771414 57.6507883,27.3253942 C57.6507883,44.0736469 44.0736469,57.6507883 27.3253942,57.6507883 Z M27.3253942,51.6507883 C40.7599384,51.6507883 51.6507883,40.7599384 51.6507883,27.3253942 C51.6507883,13.8908499 40.7599384,3 27.3253942,3 C13.8908499,3 3,13.8908499 3,27.3253942 C3,40.7599384 13.8908499,51.6507883 27.3253942,51.6507883 Z" id="Oval-2" fill-rule="nonzero"></path>
                        <path d="M30.3253942,24.3253942 L30.3253942,8.62907184 C30.3253942,6.97221759 28.9822484,5.62907184 27.3253942,5.62907184 C25.6685399,5.62907184 24.3253942,6.97221759 24.3253942,8.62907184 L24.3253942,26.9658495 C24.3253942,27.0262065 24.3271766,27.0861472 24.3306917,27.1456218 C24.3271766,27.2050965 24.3253942,27.2650372 24.3253942,27.3253942 C24.3253942,28.9822484 25.6685399,30.3253942 27.3253942,30.3253942 L42.4262699,30.3253942 C44.0831241,30.3253942 45.4262699,28.9822484 45.4262699,27.3253942 C45.4262699,25.6685399 44.0831241,24.3253942 42.4262699,24.3253942 L30.3253942,24.3253942 Z M25.0160942,3.8563243 L23.0108582,1.43817864 L31.6399301,1.43817864 L29.6346941,3.8563243 L29.6346941,3.8563243 C28.577082,5.13171544 26.6858091,5.3082602 25.410418,4.25064806 C25.2670188,4.13173494 25.1350073,3.9997235 25.0160942,3.8563243 L25.0160942,3.8563243 Z M25.0160942,51.1797351 C25.1350073,51.0363359 25.2670188,50.9043244 25.410418,50.7854113 C26.6858091,49.7277992 28.577082,49.9043439 29.6346941,51.1797351 L31.6399301,53.5978807 L23.0108582,53.5978807 L25.0160942,51.1797351 Z M51.1797351,25.0160942 L53.5978807,23.0108582 L53.5978807,31.6399301 L51.1797351,29.6346941 C49.9043439,28.577082 49.7277992,26.6858091 50.7854113,25.410418 C50.9043244,25.2670188 51.0363359,25.1350073 51.1797351,25.0160942 L51.1797351,25.0160942 Z M3.49677964,25.0418206 L3.49677964,25.0418206 C3.64017884,25.1607337 3.77219028,25.2927452 3.8911034,25.4361444 C4.94871554,26.7115355 4.77217078,28.6028083 3.49677964,29.6604205 L3.49677964,29.6604205 L1.07863398,31.6656565 L1.07863398,23.0365846 L3.49677964,25.0418206 Z" id="Combined-Shape" fill-rule="evenodd"></path>
                    </g>
                </g>
                <path d="M64.2522656,33 L61.5422656,33 L61.5422656,26.68 L54.7622656,26.68 L54.7622656,33 L52.0522656,33 L52.0522656,18.54 L54.7622656,18.54 L54.7622656,24.76 L61.5422656,24.76 L61.5422656,18.54 L64.2522656,18.54 L64.2522656,33 Z M81.0422656,25.77 C81.0422656,26.8300053 80.8656007,27.8116621 80.5122656,28.715 C80.1589305,29.6183378 79.6622688,30.3999967 79.0222656,31.06 C78.3822624,31.7200033 77.6122701,32.2349981 76.7122656,32.605 C75.8122611,32.9750018 74.8156044,33.16 73.7222656,33.16 C72.6289268,33.16 71.6306035,32.9750018 70.7272656,32.605 C69.8239278,32.2349981 69.0506022,31.7200033 68.4072656,31.06 C67.7639291,30.3999967 67.2656007,29.6183378 66.9122656,28.715 C66.5589305,27.8116621 66.3822656,26.8300053 66.3822656,25.77 C66.3822656,24.7099947 66.5589305,23.7283378 66.9122656,22.825 C67.2656007,21.9216621 67.7639291,21.1400033 68.4072656,20.48 C69.0506022,19.8199967 69.8239278,19.3050019 70.7272656,18.935 C71.6306035,18.5649981 72.6289268,18.38 73.7222656,18.38 C74.8156044,18.38 75.8122611,18.5666648 76.7122656,18.94 C77.6122701,19.3133352 78.3822624,19.82833 79.0222656,20.485 C79.6622688,21.1416699 80.1589305,21.9216621 80.5122656,22.825 C80.8656007,23.7283378 81.0422656,24.7099947 81.0422656,25.77 Z M78.2822656,25.77 C78.2822656,24.9766627 78.1772667,24.2650031 77.9672656,23.635 C77.7572646,23.0049968 77.4556009,22.4700022 77.0622656,22.03 C76.6689303,21.5899978 76.1906018,21.2533345 75.6272656,21.02 C75.0639295,20.7866655 74.4289358,20.67 73.7222656,20.67 C73.0155954,20.67 72.3789351,20.7866655 71.8122656,21.02 C71.2455961,21.2533345 70.7639343,21.5899978 70.3672656,22.03 C69.970597,22.4700022 69.6656,23.0049968 69.4522656,23.635 C69.2389312,24.2650031 69.1322656,24.9766627 69.1322656,25.77 C69.1322656,26.5633373 69.2389312,27.2749968 69.4522656,27.905 C69.6656,28.5350031 69.970597,29.0683311 70.3672656,29.505 C70.7639343,29.9416688 71.2455961,30.2766655 71.8122656,30.51 C72.3789351,30.7433345 73.0155954,30.86 73.7222656,30.86 C74.4289358,30.86 75.0639295,30.7433345 75.6272656,30.51 C76.1906018,30.2766655 76.6689303,29.9416688 77.0622656,29.505 C77.4556009,29.0683311 77.7572646,28.5350031 77.9672656,27.905 C78.1772667,27.2749968 78.2822656,26.5633373 78.2822656,25.77 Z M88.9822656,30.83 C89.5022682,30.83 89.9672636,30.7433342 90.3772656,30.57 C90.7872677,30.3966658 91.1339309,30.1533349 91.4172656,29.84 C91.7006004,29.5266651 91.9172649,29.1466689 92.0672656,28.7 C92.2172664,28.2533311 92.2922656,27.7533361 92.2922656,27.2 L92.2922656,18.54 L94.9822656,18.54 L94.9822656,27.2 C94.9822656,28.0600043 94.8439337,28.8549964 94.5672656,29.585 C94.2905976,30.3150037 93.8922682,30.9449974 93.3722656,31.475 C92.852263,32.0050027 92.2222693,32.4183319 91.4822656,32.715 C90.7422619,33.0116681 89.9089369,33.16 88.9822656,33.16 C88.0555943,33.16 87.2222693,33.0116681 86.4822656,32.715 C85.7422619,32.4183319 85.1139349,32.0050027 84.5972656,31.475 C84.0805964,30.9449974 83.6839337,30.3150037 83.4072656,29.585 C83.1305976,28.8549964 82.9922656,28.0600043 82.9922656,27.2 L82.9922656,18.54 L85.6822656,18.54 L85.6822656,27.19 C85.6822656,27.7433361 85.7572649,28.2433311 85.9072656,28.69 C86.0572664,29.1366689 86.2722642,29.5183318 86.5522656,29.835 C86.832267,30.1516683 87.1772636,30.3966658 87.5872656,30.57 C87.9972677,30.7433342 88.462263,30.83 88.9822656,30.83 Z M100.502266,27.35 L100.502266,33 L97.8122656,33 L97.8122656,18.54 L102.222266,18.54 C103.208937,18.54 104.053929,18.6416656 104.757266,18.845 C105.460602,19.0483343 106.037263,19.3333315 106.487266,19.7 C106.937268,20.0666685 107.267265,20.5049974 107.477266,21.015 C107.687267,21.5250025 107.792266,22.0866636 107.792266,22.7 C107.792266,23.1866691 107.7206,23.6466645 107.577266,24.08 C107.433932,24.5133355 107.227267,24.9066649 106.957266,25.26 C106.687264,25.6133351 106.353934,25.923332 105.957266,26.19 C105.560597,26.456668 105.108935,26.6699992 104.602266,26.83 C104.942267,27.0233343 105.235598,27.2999982 105.482266,27.66 L109.102266,33 L106.682266,33 C106.448931,33 106.2506,32.9533338 106.087266,32.86 C105.923931,32.7666662 105.7856,32.6333342 105.672266,32.46 L102.632266,27.83 C102.518932,27.6566658 102.393933,27.5333337 102.257266,27.46 C102.120598,27.3866663 101.918934,27.35 101.652266,27.35 L100.502266,27.35 Z M100.502266,25.42 L102.182266,25.42 C102.688935,25.42 103.130597,25.3566673 103.507266,25.23 C103.883934,25.1033327 104.193931,24.9283344 104.437266,24.705 C104.6806,24.4816655 104.862265,24.2166682 104.982266,23.91 C105.102266,23.6033318 105.162266,23.2666685 105.162266,22.9 C105.162266,22.166663 104.920601,21.6033353 104.437266,21.21 C103.95393,20.8166647 103.215604,20.62 102.222266,20.62 L100.502266,20.62 L100.502266,25.42 Z M118.572266,21.17 C118.498932,21.3166674 118.413933,21.4199997 118.317266,21.48 C118.220598,21.5400003 118.1056,21.57 117.972266,21.57 C117.838932,21.57 117.688933,21.5183338 117.522266,21.415 C117.355598,21.3116661 117.158933,21.1966673 116.932266,21.07 C116.705598,20.9433327 116.4406,20.8283338 116.137266,20.725 C115.833931,20.6216661 115.475601,20.57 115.062266,20.57 C114.68893,20.57 114.363934,20.6149995 114.087266,20.705 C113.810598,20.7950004 113.577267,20.9199992 113.387266,21.08 C113.197265,21.2400008 113.055599,21.4316655 112.962266,21.655 C112.868932,21.8783344 112.822266,22.123332 112.822266,22.39 C112.822266,22.7300017 112.917265,23.0133322 113.107266,23.24 C113.297267,23.4666678 113.548931,23.6599992 113.862266,23.82 C114.175601,23.9800008 114.532264,24.1233327 114.932266,24.25 C115.332268,24.3766673 115.740597,24.5116659 116.157266,24.655 C116.573934,24.798334 116.982264,24.964999 117.382266,25.155 C117.782268,25.3450009 118.138931,25.5849985 118.452266,25.875 C118.765601,26.1650014 119.017265,26.5199979 119.207266,26.94 C119.397267,27.3600021 119.492266,27.869997 119.492266,28.47 C119.492266,29.1233366 119.3806,29.7349971 119.157266,30.305 C118.933931,30.8750028 118.607268,31.3716645 118.177266,31.795 C117.747263,32.2183354 117.222269,32.5516655 116.602266,32.795 C115.982263,33.0383346 115.27227,33.16 114.472266,33.16 C114.012263,33.16 113.558935,33.1150004 113.112266,33.025 C112.665597,32.9349996 112.237268,32.8066675 111.827266,32.64 C111.417264,32.4733325 111.033934,32.2733345 110.677266,32.04 C110.320597,31.8066655 110.002267,31.5466681 109.722266,31.26 L110.502266,29.97 C110.575599,29.8766662 110.663932,29.7983336 110.767266,29.735 C110.870599,29.6716663 110.985598,29.64 111.112266,29.64 C111.278933,29.64 111.458931,29.7083326 111.652266,29.845 C111.8456,29.9816673 112.073931,30.1333325 112.337266,30.3 C112.6006,30.4666675 112.910597,30.6183326 113.267266,30.755 C113.623934,30.8916673 114.052263,30.96 114.552266,30.96 C115.318936,30.96 115.912264,30.7783351 116.332266,30.415 C116.752268,30.0516648 116.962266,29.5300034 116.962266,28.85 C116.962266,28.4699981 116.867267,28.1600012 116.677266,27.92 C116.487265,27.6799988 116.235601,27.4783341 115.922266,27.315 C115.608931,27.1516658 115.252268,27.0133339 114.852266,26.9 C114.452264,26.7866661 114.045601,26.663334 113.632266,26.53 C113.21893,26.396666 112.812268,26.2366676 112.412266,26.05 C112.012264,25.8633324 111.655601,25.6200015 111.342266,25.32 C111.028931,25.0199985 110.777267,24.6450022 110.587266,24.195 C110.397265,23.7449977 110.302266,23.1900033 110.302266,22.53 C110.302266,22.0033307 110.407265,21.4900025 110.617266,20.99 C110.827267,20.4899975 111.13393,20.0466686 111.537266,19.66 C111.940601,19.2733314 112.435596,18.9633345 113.022266,18.73 C113.608935,18.4966655 114.278929,18.38 115.032266,18.38 C115.885603,18.38 116.672262,18.513332 117.392266,18.78 C118.112269,19.046668 118.725596,19.4199976 119.232266,19.9 L118.572266,21.17 Z M135.352266,29.59 C135.498933,29.59 135.625598,29.6466661 135.732266,29.76 L136.792266,30.91 C136.205596,31.6366703 135.483937,32.1933314 134.627266,32.58 C133.770595,32.9666686 132.742272,33.16 131.542266,33.16 C130.468927,33.16 129.503937,32.9766685 128.647266,32.61 C127.790595,32.2433315 127.058935,31.7333366 126.452266,31.08 C125.845596,30.4266634 125.380601,29.6466712 125.057266,28.74 C124.733931,27.8333288 124.572266,26.8433387 124.572266,25.77 C124.572266,24.6833279 124.752264,23.6883378 125.112266,22.785 C125.472267,21.8816621 125.978929,21.1033366 126.632266,20.45 C127.285602,19.7966634 128.067261,19.2883351 128.977266,18.925 C129.88727,18.5616648 130.89226,18.38 131.992266,18.38 C133.065604,18.38 134.003928,18.5516649 134.807266,18.895 C135.610603,19.238335 136.298929,19.6933305 136.872266,20.26 L135.972266,21.51 C135.918932,21.5900004 135.850599,21.6599997 135.767266,21.72 C135.683932,21.7800003 135.568933,21.81 135.422266,21.81 C135.268932,21.81 135.112266,21.7500006 134.952266,21.63 C134.792265,21.5099994 134.588934,21.3800007 134.342266,21.24 C134.095598,21.0999993 133.783934,20.9700006 133.407266,20.85 C133.030597,20.7299994 132.552269,20.67 131.972266,20.67 C131.292262,20.67 130.667268,20.7883321 130.097266,21.025 C129.527263,21.2616678 129.037268,21.5999978 128.627266,22.04 C128.217264,22.4800022 127.897267,23.0149968 127.667266,23.645 C127.437264,24.2750031 127.322266,24.9833294 127.322266,25.77 C127.322266,26.5833374 127.437264,27.3066635 127.667266,27.94 C127.897267,28.5733365 128.20893,29.1066645 128.602266,29.54 C128.995601,29.9733355 129.45893,30.3049988 129.992266,30.535 C130.525602,30.7650011 131.098929,30.88 131.712266,30.88 C132.078934,30.88 132.410597,30.8600002 132.707266,30.82 C133.003934,30.7799998 133.277264,30.7166671 133.527266,30.63 C133.777267,30.5433329 134.013931,30.4316673 134.237266,30.295 C134.4606,30.1583326 134.682265,29.990001 134.902266,29.79 C134.968933,29.7299997 135.038932,29.6816668 135.112266,29.645 C135.185599,29.6083331 135.265599,29.59 135.352266,29.59 Z M151.022266,33 L148.312266,33 L148.312266,26.68 L141.532266,26.68 L141.532266,33 L138.822266,33 L138.822266,18.54 L141.532266,18.54 L141.532266,24.76 L148.312266,24.76 L148.312266,18.54 L151.022266,18.54 L151.022266,33 Z M163.062266,18.54 L163.062266,20.68 L156.652266,20.68 L156.652266,24.69 L161.702266,24.69 L161.702266,26.76 L156.652266,26.76 L156.652266,30.85 L163.062266,30.85 L163.062266,33 L153.942266,33 L153.942266,18.54 L163.062266,18.54 Z M175.332266,29.59 C175.478933,29.59 175.605598,29.6466661 175.712266,29.76 L176.772266,30.91 C176.185596,31.6366703 175.463937,32.1933314 174.607266,32.58 C173.750595,32.9666686 172.722272,33.16 171.522266,33.16 C170.448927,33.16 169.483937,32.9766685 168.627266,32.61 C167.770595,32.2433315 167.038935,31.7333366 166.432266,31.08 C165.825596,30.4266634 165.360601,29.6466712 165.037266,28.74 C164.713931,27.8333288 164.552266,26.8433387 164.552266,25.77 C164.552266,24.6833279 164.732264,23.6883378 165.092266,22.785 C165.452267,21.8816621 165.958929,21.1033366 166.612266,20.45 C167.265602,19.7966634 168.047261,19.2883351 168.957266,18.925 C169.86727,18.5616648 170.87226,18.38 171.972266,18.38 C173.045604,18.38 173.983928,18.5516649 174.787266,18.895 C175.590603,19.238335 176.278929,19.6933305 176.852266,20.26 L175.952266,21.51 C175.898932,21.5900004 175.830599,21.6599997 175.747266,21.72 C175.663932,21.7800003 175.548933,21.81 175.402266,21.81 C175.248932,21.81 175.092266,21.7500006 174.932266,21.63 C174.772265,21.5099994 174.568934,21.3800007 174.322266,21.24 C174.075598,21.0999993 173.763934,20.9700006 173.387266,20.85 C173.010597,20.7299994 172.532269,20.67 171.952266,20.67 C171.272262,20.67 170.647268,20.7883321 170.077266,21.025 C169.507263,21.2616678 169.017268,21.5999978 168.607266,22.04 C168.197264,22.4800022 167.877267,23.0149968 167.647266,23.645 C167.417264,24.2750031 167.302266,24.9833294 167.302266,25.77 C167.302266,26.5833374 167.417264,27.3066635 167.647266,27.94 C167.877267,28.5733365 168.18893,29.1066645 168.582266,29.54 C168.975601,29.9733355 169.43893,30.3049988 169.972266,30.535 C170.505602,30.7650011 171.078929,30.88 171.692266,30.88 C172.058934,30.88 172.390597,30.8600002 172.687266,30.82 C172.983934,30.7799998 173.257264,30.7166671 173.507266,30.63 C173.757267,30.5433329 173.993931,30.4316673 174.217266,30.295 C174.4406,30.1583326 174.662265,29.990001 174.882266,29.79 C174.948933,29.7299997 175.018932,29.6816668 175.092266,29.645 C175.165599,29.6083331 175.245599,29.59 175.332266,29.59 Z M181.582266,24.6 L182.212266,24.6 C182.4656,24.6 182.675598,24.5650003 182.842266,24.495 C183.008933,24.4249996 183.152265,24.3133341 183.272266,24.16 L187.262266,19.11 C187.428933,18.8966656 187.603931,18.7483337 187.787266,18.665 C187.9706,18.5816662 188.202264,18.54 188.482266,18.54 L190.802266,18.54 L185.932266,24.55 C185.778932,24.7366676 185.632266,24.8933327 185.492266,25.02 C185.352265,25.1466673 185.202266,25.2499996 185.042266,25.33 C185.262267,25.4100004 185.460598,25.5233326 185.637266,25.67 C185.813933,25.8166674 185.985598,26.0033322 186.152266,26.23 L191.172266,33 L188.792266,33 C188.472264,33 188.233933,32.9550005 188.077266,32.865 C187.920598,32.7749996 187.788933,32.6433342 187.682266,32.47 L183.592266,27.13 C183.458932,26.9566658 183.308933,26.8316671 183.142266,26.755 C182.975598,26.6783329 182.738934,26.64 182.432266,26.64 L181.582266,26.64 L181.582266,33 L178.892266,33 L178.892266,18.53 L181.582266,18.53 L181.582266,24.6 Z" id="HOURS-CHECK" fill="#FFFFFF" mask="url(#mask-2)"></path>
            </g>
        </g>
    </g>
</svg>