<?xml version="1.0" encoding="UTF-8"?>
<svg width="200px" height="50px" viewBox="0 0 200 50" version="1.1" xmlns="http://www.w3.org/2000/svg" xmlns:xlink="http://www.w3.org/1999/xlink">
    <!-- Generator: Sketch 44.1 (41455) - http://www.bohemiancoding.com/sketch -->
    <title>PlaySound_label</title>
    <desc>Created with Sketch.</desc>
    <defs>
        <rect id="path-1" x="0" y="0" width="200" height="50" rx="12"></rect>
    </defs>
    <g id="Page-1" stroke="none" stroke-width="1" fill="none" fill-rule="evenodd">
        <g id="PlaySound_label">
            <g id="label">
                <mask id="mask-2" fill="white">
                    <use xlink:href="#path-1"></use>
                </mask>
                <use id="Mask" fill="#F2AAAA" xlink:href="#path-1"></use>
                <path d="M32.5045126,10.0132413 C30.8442181,9.31128485 30.0673316,7.39630209 30.7692881,5.73600759 C31.4712445,4.0757131 33.3862273,3.29882662 35.0465218,4.00078308 C35.436339,4.16559403 36.0672209,4.46903727 36.8908604,4.92284277 C38.2189061,5.65456387 39.6400457,6.55949529 41.1053194,7.65020989 C51.0953451,15.0865454 57.6689903,26.472433 57.379636,42.2979631 C57.346683,44.1002491 55.8589278,45.5345769 54.0566419,45.5016238 C52.2543559,45.4686708 50.8200281,43.9809156 50.8529811,42.1786296 C51.1005087,28.6407101 45.6203517,19.1487997 37.2075447,12.8865079 C35.989072,11.979506 34.81728,11.2333503 33.7407347,10.6401999 C33.1216197,10.2990825 32.6931394,10.0929909 32.5045126,10.0132413 Z M28.3955068,23.0149849 C26.7352123,22.3130284 25.9583259,20.3980457 26.6602823,18.7377512 C27.3622388,17.0774567 29.2772215,16.3005702 30.937516,17.0025267 C31.8203854,17.3757953 33.1367661,18.1010893 34.6670647,19.2402068 C40.6740521,23.7116642 44.6388188,30.5788416 44.4656652,40.0490598 C44.4327122,41.8513458 42.944957,43.2856735 41.142671,43.2527205 C39.340385,43.2197675 37.9060573,41.7320123 37.9390103,39.9297263 C38.0703372,32.7471187 35.1990587,27.7739185 30.76929,24.4765049 C30.131677,24.001881 29.5210891,23.6130803 28.9649843,23.3066799 C28.6581335,23.1376126 28.4589374,23.0418027 28.3955068,23.0149849 Z M-3.27075923,63.8285909 L-13.3677557,46.34008 L-13.3677557,46.34008 C-13.9200405,45.3834947 -13.5922902,44.1603139 -12.6357049,43.6080291 L-3.92090431,38.5765367 L6.98437185,11.9159866 L6.98437185,11.9159866 C7.82073821,9.87128947 10.1563016,8.89174382 12.2009988,9.72811017 C13.0215987,10.0637697 13.7074274,10.6625477 14.1507252,11.4303619 L40.4715806,57.0194209 L40.4715806,57.0194209 C41.5761501,58.9325913 40.9206495,61.378953 39.007479,62.4835225 C38.2396648,62.9268202 37.3463307,63.1024627 36.4678406,62.9828525 L8.73438008,59.2068215 L-0.538708424,64.5606417 L-0.538708424,64.5606417 C-1.49529367,65.1129264 -2.71847448,64.7851761 -3.27075923,63.8285909 L-3.27075923,63.8285909 Z M68.3805469,27.91 L68.3805469,33 L65.6905469,33 L65.6905469,18.54 L70.4005469,18.54 C71.3672184,18.54 72.2038767,18.6533322 72.9105469,18.88 C73.6172171,19.1066678 74.2005446,19.4233313 74.6605469,19.83 C75.1205492,20.2366687 75.4605458,20.7233305 75.6805469,21.29 C75.900548,21.8566695 76.0105469,22.4766633 76.0105469,23.15 C76.0105469,23.8500035 75.8938814,24.4916637 75.6605469,25.075 C75.4272124,25.6583362 75.0772159,26.1599979 74.6105469,26.58 C74.1438779,27.0000021 73.5605504,27.3266655 72.8605469,27.56 C72.1605434,27.7933345 71.3405516,27.91 70.4005469,27.91 L68.3805469,27.91 Z M68.3805469,25.81 L70.4005469,25.81 C70.8938827,25.81 71.3238784,25.7483339 71.6905469,25.625 C72.0572154,25.501666 72.3605457,25.3250011 72.6005469,25.095 C72.8405481,24.8649988 73.0205463,24.5850016 73.1405469,24.255 C73.2605475,23.9249983 73.3205469,23.5566687 73.3205469,23.15 C73.3205469,22.7633314 73.2605475,22.4133349 73.1405469,22.1 C73.0205463,21.7866651 72.8405481,21.5200011 72.6005469,21.3 C72.3605457,21.0799989 72.0572154,20.9116672 71.6905469,20.795 C71.3238784,20.6783327 70.8938827,20.62 70.4005469,20.62 L68.3805469,20.62 L68.3805469,25.81 Z M80.7905469,30.78 L86.5805469,30.78 L86.5805469,33 L78.1005469,33 L78.1005469,18.54 L80.7905469,18.54 L80.7905469,30.78 Z M101.150547,33 L99.0705469,33 C98.8372124,33 98.6455476,32.9416672 98.4955469,32.825 C98.3455461,32.7083327 98.2372139,32.5633342 98.1705469,32.39 L97.0905469,29.44 L91.1005469,29.44 L90.0205469,32.39 C89.9672133,32.5433341 89.8622143,32.6833327 89.7055469,32.81 C89.5488794,32.9366673 89.3572147,33 89.1305469,33 L87.0405469,33 L92.7205469,18.54 L95.4705469,18.54 L101.150547,33 Z M91.7905469,27.54 L96.4005469,27.54 L94.6405469,22.73 C94.5605465,22.5166656 94.472214,22.2650014 94.3755469,21.975 C94.2788797,21.6849985 94.1838807,21.3700017 94.0905469,21.03 C93.9972131,21.3700017 93.9055473,21.6866652 93.8155469,21.98 C93.7255464,22.2733348 93.637214,22.5299989 93.5505469,22.75 L91.7905469,27.54 Z M109.070547,27.38 L109.070547,33 L106.380547,33 L106.380547,27.38 L101.110547,18.54 L103.480547,18.54 C103.713881,18.54 103.89888,18.5966661 104.035547,18.71 C104.172214,18.8233339 104.287213,18.9666658 104.380547,19.14 L107.030547,23.97 C107.183881,24.2566681 107.317213,24.528332 107.430547,24.785 C107.543881,25.0416679 107.647213,25.2933321 107.740547,25.54 C107.827214,25.2866654 107.925546,25.0316679 108.035547,24.775 C108.145547,24.518332 108.277213,24.2500014 108.430547,23.97 L111.060547,19.14 C111.133881,18.9933326 111.243879,18.8566673 111.390547,18.73 C111.537214,18.6033327 111.723879,18.54 111.950547,18.54 L114.330547,18.54 L109.070547,27.38 Z M127.340547,21.17 C127.267213,21.3166674 127.182214,21.4199997 127.085547,21.48 C126.98888,21.5400003 126.873881,21.57 126.740547,21.57 C126.607213,21.57 126.457214,21.5183338 126.290547,21.415 C126.123879,21.3116661 125.927215,21.1966673 125.700547,21.07 C125.473879,20.9433327 125.208882,20.8283338 124.905547,20.725 C124.602212,20.6216661 124.243882,20.57 123.830547,20.57 C123.457212,20.57 123.132215,20.6149995 122.855547,20.705 C122.578879,20.7950004 122.345548,20.9199992 122.155547,21.08 C121.965546,21.2400008 121.823881,21.4316655 121.730547,21.655 C121.637213,21.8783344 121.590547,22.123332 121.590547,22.39 C121.590547,22.7300017 121.685546,23.0133322 121.875547,23.24 C122.065548,23.4666678 122.317212,23.6599992 122.630547,23.82 C122.943882,23.9800008 123.300545,24.1233327 123.700547,24.25 C124.100549,24.3766673 124.508878,24.5116659 124.925547,24.655 C125.342216,24.798334 125.750545,24.964999 126.150547,25.155 C126.550549,25.3450009 126.907212,25.5849985 127.220547,25.875 C127.533882,26.1650014 127.785546,26.5199979 127.975547,26.94 C128.165548,27.3600021 128.260547,27.869997 128.260547,28.47 C128.260547,29.1233366 128.148881,29.7349971 127.925547,30.305 C127.702212,30.8750028 127.375549,31.3716645 126.945547,31.795 C126.515545,32.2183354 125.99055,32.5516654 125.370547,32.795 C124.750544,33.0383345 124.040551,33.16 123.240547,33.16 C122.780545,33.16 122.327216,33.1150004 121.880547,33.025 C121.433878,32.9349995 121.005549,32.8066675 120.595547,32.64 C120.185545,32.4733325 119.802215,32.2733345 119.445547,32.04 C119.088878,31.8066655 118.770548,31.5466681 118.490547,31.26 L119.270547,29.97 C119.343881,29.8766662 119.432213,29.7983336 119.535547,29.735 C119.638881,29.6716663 119.75388,29.64 119.880547,29.64 C120.047214,29.64 120.227213,29.7083326 120.420547,29.845 C120.613881,29.9816673 120.842212,30.1333325 121.105547,30.3 C121.368882,30.4666675 121.678878,30.6183326 122.035547,30.755 C122.392215,30.8916673 122.820544,30.96 123.320547,30.96 C124.087217,30.96 124.680545,30.7783351 125.100547,30.415 C125.520549,30.0516648 125.730547,29.5300034 125.730547,28.85 C125.730547,28.4699981 125.635548,28.1600012 125.445547,27.92 C125.255546,27.6799988 125.003882,27.4783341 124.690547,27.315 C124.377212,27.1516658 124.020549,27.0133339 123.620547,26.9 C123.220545,26.7866661 122.813882,26.663334 122.400547,26.53 C121.987211,26.396666 121.580549,26.2366676 121.180547,26.05 C120.780545,25.8633324 120.423882,25.6200015 120.110547,25.32 C119.797212,25.0199985 119.545548,24.6450022 119.355547,24.195 C119.165546,23.7449977 119.070547,23.1900033 119.070547,22.53 C119.070547,22.0033307 119.175546,21.4900025 119.385547,20.99 C119.595548,20.4899975 119.902212,20.0466686 120.305547,19.66 C120.708882,19.2733314 121.203877,18.9633345 121.790547,18.73 C122.377216,18.4966655 123.04721,18.38 123.800547,18.38 C124.653884,18.38 125.440543,18.513332 126.160547,18.78 C126.88055,19.046668 127.493878,19.4199976 128.000547,19.9 L127.340547,21.17 Z M144.190547,25.77 C144.190547,26.8300053 144.013882,27.8116621 143.660547,28.715 C143.307212,29.6183378 142.81055,30.3999967 142.170547,31.06 C141.530544,31.7200033 140.760551,32.2349981 139.860547,32.605 C138.960542,32.9750018 137.963886,33.16 136.870547,33.16 C135.777208,33.16 134.778885,32.9750018 133.875547,32.605 C132.972209,32.2349981 132.198883,31.7200033 131.555547,31.06 C130.91221,30.3999967 130.413882,29.6183378 130.060547,28.715 C129.707212,27.8116621 129.530547,26.8300053 129.530547,25.77 C129.530547,24.7099947 129.707212,23.7283378 130.060547,22.825 C130.413882,21.9216621 130.91221,21.1400033 131.555547,20.48 C132.198883,19.8199967 132.972209,19.3050018 133.875547,18.935 C134.778885,18.5649981 135.777208,18.38 136.870547,18.38 C137.963886,18.38 138.960542,18.5666648 139.860547,18.94 C140.760551,19.3133352 141.530544,19.82833 142.170547,20.485 C142.81055,21.1416699 143.307212,21.9216621 143.660547,22.825 C144.013882,23.7283378 144.190547,24.7099947 144.190547,25.77 Z M141.430547,25.77 C141.430547,24.9766627 141.325548,24.2650031 141.115547,23.635 C140.905546,23.0049968 140.603882,22.4700022 140.210547,22.03 C139.817212,21.5899978 139.338883,21.2533345 138.775547,21.02 C138.212211,20.7866655 137.577217,20.67 136.870547,20.67 C136.163877,20.67 135.527216,20.7866655 134.960547,21.02 C134.393877,21.2533345 133.912216,21.5899978 133.515547,22.03 C133.118878,22.4700022 132.813881,23.0049968 132.600547,23.635 C132.387212,24.2650031 132.280547,24.9766627 132.280547,25.77 C132.280547,26.5633373 132.387212,27.2749968 132.600547,27.905 C132.813881,28.5350031 133.118878,29.0683311 133.515547,29.505 C133.912216,29.9416688 134.393877,30.2766655 134.960547,30.51 C135.527216,30.7433345 136.163877,30.86 136.870547,30.86 C137.577217,30.86 138.212211,30.7433345 138.775547,30.51 C139.338883,30.2766655 139.817212,29.9416688 140.210547,29.505 C140.603882,29.0683311 140.905546,28.5350031 141.115547,27.905 C141.325548,27.2749968 141.430547,26.5633373 141.430547,25.77 Z M152.130547,30.83 C152.650549,30.83 153.115545,30.7433342 153.525547,30.57 C153.935549,30.3966658 154.282212,30.1533349 154.565547,29.84 C154.848882,29.5266651 155.065546,29.1466689 155.215547,28.7 C155.365548,28.2533311 155.440547,27.7533361 155.440547,27.2 L155.440547,18.54 L158.130547,18.54 L158.130547,27.2 C158.130547,28.0600043 157.992215,28.8549963 157.715547,29.585 C157.438879,30.3150036 157.040549,30.9449973 156.520547,31.475 C156.000544,32.0050026 155.370551,32.4183318 154.630547,32.715 C153.890543,33.0116681 153.057218,33.16 152.130547,33.16 C151.203876,33.16 150.370551,33.0116681 149.630547,32.715 C148.890543,32.4183318 148.262216,32.0050026 147.745547,31.475 C147.228878,30.9449973 146.832215,30.3150036 146.555547,29.585 C146.278879,28.8549963 146.140547,28.0600043 146.140547,27.2 L146.140547,18.54 L148.830547,18.54 L148.830547,27.19 C148.830547,27.7433361 148.905546,28.2433311 149.055547,28.69 C149.205548,29.1366689 149.420545,29.5183317 149.700547,29.835 C149.980548,30.1516682 150.325545,30.3966658 150.735547,30.57 C151.145549,30.7433342 151.610544,30.83 152.130547,30.83 Z M162.280547,18.54 C162.400547,18.54 162.500546,18.5449999 162.580547,18.555 C162.660547,18.565 162.732213,18.5849998 162.795547,18.615 C162.858881,18.6450001 162.920547,18.688333 162.980547,18.745 C163.040547,18.8016669 163.107213,18.8766662 163.180547,18.97 L170.770547,28.64 C170.74388,28.4066655 170.725547,28.1783344 170.715547,27.955 C170.705547,27.7316655 170.700547,27.5233343 170.700547,27.33 L170.700547,18.54 L173.070547,18.54 L173.070547,33 L171.680547,33 C171.467212,33 171.290548,32.966667 171.150547,32.9 C171.010546,32.833333 170.873881,32.7133342 170.740547,32.54 L163.180547,22.91 C163.200547,23.1233344 163.215547,23.3349989 163.225547,23.545 C163.235547,23.755001 163.240547,23.9466658 163.240547,24.12 L163.240547,33 L160.870547,33 L160.870547,18.54 L162.280547,18.54 Z M188.830547,25.77 C188.830547,26.8300053 188.653882,27.8033289 188.300547,28.69 C187.947212,29.5766711 187.45055,30.3399968 186.810547,30.98 C186.170544,31.6200032 185.400551,32.1166649 184.500547,32.47 C183.600542,32.8233351 182.603886,33 181.510547,33 L175.990547,33 L175.990547,18.54 L181.510547,18.54 C182.603886,18.54 183.600542,18.7183315 184.500547,19.075 C185.400551,19.4316684 186.170544,19.9283301 186.810547,20.565 C187.45055,21.2016698 187.947212,21.9633289 188.300547,22.85 C188.653882,23.7366711 188.830547,24.7099947 188.830547,25.77 Z M186.080547,25.77 C186.080547,24.9766627 185.973881,24.2650031 185.760547,23.635 C185.547212,23.0049968 185.243882,22.4716688 184.850547,22.035 C184.457212,21.5983311 183.978883,21.2633345 183.415547,21.03 C182.852211,20.7966655 182.217217,20.68 181.510547,20.68 L178.700547,20.68 L178.700547,30.86 L181.510547,30.86 C182.217217,30.86 182.852211,30.7433345 183.415547,30.51 C183.978883,30.2766655 184.457212,29.9416688 184.850547,29.505 C185.243882,29.0683311 185.547212,28.5350031 185.760547,27.905 C185.973881,27.2749968 186.080547,26.5633373 186.080547,25.77 Z" id="Combined-Shape" fill="#FFFFFF" fill-rule="nonzero" mask="url(#mask-2)"></path>
            </g>
        </g>
    </g>
</svg>