<?xml version="1.0" encoding="UTF-8"?>
<svg width="200px" height="50px" viewBox="0 0 200 50" version="1.1" xmlns="http://www.w3.org/2000/svg" xmlns:xlink="http://www.w3.org/1999/xlink">
    <!-- Generator: Sketch 44.1 (41455) - http://www.bohemiancoding.com/sketch -->
    <title>ReadValue_label</title>
    <desc>Created with Sketch.</desc>
    <defs>
        <rect id="path-1" x="0" y="0" width="200" height="50" rx="12"></rect>
    </defs>
    <g id="Page-1" stroke="none" stroke-width="1" fill="none" fill-rule="evenodd">
        <g id="ReadValue_label">
            <g id="label">
                <mask id="mask-2" fill="white">
                    <use xlink:href="#path-1"></use>
                </mask>
                <use id="Mask" fill="#961E61" xlink:href="#path-1"></use>
                <g id="book-copy" mask="url(#mask-2)" fill-rule="nonzero" fill="#FFFFFF">
                    <g transform="translate(14.535301, 36.589257) rotate(-315.000000) translate(-14.535301, -36.589257) translate(-30.964699, -3.410743)">
                        <path d="M7.13870822,66.0160075 C25.3612521,62.6864343 38.1822706,64.0531219 45.4942621,70.5326983 C53.0678023,64.0660743 65.9365488,62.6951603 83.9926605,66.0381285 C83.3174688,40.7430864 83.4732548,22.8313222 84.4714356,12.2178988 C64.4381937,3.74743386 54.3992272,4.18047841 47.7655486,14.088158 L45.3606428,17.6799866 L42.8370555,14.1705263 C35.5754254,4.07204377 21.9511062,3.46890131 6.38610649,11.9805787 C7.56315821,24.2294174 7.81120138,42.2264449 7.13870822,66.0160075 Z M88.8884792,7.58682674 L90.9253662,8.47802503 L90.6653715,10.6860888 C89.449542,21.0117941 89.2540689,40.6987394 90.095113,69.6267005 L90.2059809,73.4400342 L86.4740282,72.6486214 C66.3011016,68.37067 53.4496321,69.9493344 47.7425593,76.7577049 L45.3726507,79.5849365 L43.0879846,76.6883857 C37.7736286,69.9507262 25.0170721,68.3651355 4.64085765,72.6193588 L0.909205285,73.3984673 L1.02921406,69.5882393 C1.87165569,42.8410717 1.59775105,23.1795177 0.218998986,10.6637657 L0.0055976849,8.72659524 L1.6887999,7.74425121 C18.7806432,-2.23082496 35.1193344,-2.76445671 45.1677028,7.61924029 C54.0996494,-2.58537126 67.1801923,-1.91119067 88.8884792,7.58682674 Z" id="Path-2"></path>
                        <path d="M42.2727191,9.41908613 L48.2727191,9.41908613 L48.2727191,73.0713627 L42.2727191,73.0713627 L42.2727191,9.41908613 Z M52.8460312,20.8651435 L52.8460312,17.8651435 L78.1803378,17.8651435 L78.1803378,20.8651435 L52.8460312,20.8651435 Z M52.8460312,37.5356813 L52.8460312,34.5356813 L78.1803378,34.5356813 L78.1803378,37.5356813 L52.8460312,37.5356813 Z M52.8460312,29.2004124 L52.8460312,26.2004124 L78.1803378,26.2004124 L78.1803378,29.2004124 L52.8460312,29.2004124 Z" id="Combined-Shape"></path>
                    </g>
                </g>
                <path d="M70.9072656,26.35 L70.9072656,32 L68.2172656,32 L68.2172656,17.54 L72.6272656,17.54 C73.6139372,17.54 74.4589288,17.6416657 75.1622656,17.845 C75.8656025,18.0483343 76.4422634,18.3333315 76.8922656,18.7 C77.3422679,19.0666685 77.6722646,19.5049974 77.8822656,20.015 C78.0922667,20.5250025 78.1972656,21.0866636 78.1972656,21.7 C78.1972656,22.1866691 78.1255997,22.6466645 77.9822656,23.08 C77.8389316,23.5133355 77.632267,23.9066649 77.3622656,24.26 C77.0922643,24.6133351 76.7589343,24.923332 76.3622656,25.19 C75.965597,25.456668 75.5139348,25.6699992 75.0072656,25.83 C75.3472673,26.0233343 75.6405977,26.2999982 75.8872656,26.66 L79.5072656,32 L77.0872656,32 C76.8539311,32 76.6555998,31.9533338 76.4922656,31.86 C76.3289315,31.7666662 76.1905995,31.6333342 76.0772656,31.46 L73.0372656,26.83 C72.9239317,26.6566658 72.798933,26.5333337 72.6622656,26.46 C72.5255983,26.3866663 72.3239336,26.35 72.0572656,26.35 L70.9072656,26.35 Z M70.9072656,24.42 L72.5872656,24.42 C73.0939348,24.42 73.5355971,24.3566673 73.9122656,24.23 C74.2889342,24.1033327 74.5989311,23.9283345 74.8422656,23.705 C75.0856002,23.4816655 75.267265,23.2166682 75.3872656,22.91 C75.5072662,22.6033318 75.5672656,22.2666685 75.5672656,21.9 C75.5672656,21.166663 75.3256014,20.6033353 74.8422656,20.21 C74.3589299,19.8166647 73.6206039,19.62 72.6272656,19.62 L70.9072656,19.62 L70.9072656,24.42 Z M90.3472656,17.54 L90.3472656,19.68 L83.9372656,19.68 L83.9372656,23.69 L88.9872656,23.69 L88.9872656,25.76 L83.9372656,25.76 L83.9372656,29.85 L90.3472656,29.85 L90.3472656,32 L81.2272656,32 L81.2272656,17.54 L90.3472656,17.54 Z M105.387266,32 L103.307266,32 C103.073931,32 102.882266,31.9416673 102.732266,31.825 C102.582265,31.7083328 102.473933,31.5633342 102.407266,31.39 L101.327266,28.44 L95.3372656,28.44 L94.2572656,31.39 C94.203932,31.5433341 94.0989331,31.6833327 93.9422656,31.81 C93.7855982,31.9366673 93.5939334,32 93.3672656,32 L91.2772656,32 L96.9572656,17.54 L99.7072656,17.54 L105.387266,32 Z M96.0272656,26.54 L100.637266,26.54 L98.8772656,21.73 C98.7972652,21.5166656 98.7089328,21.2650014 98.6122656,20.975 C98.5155985,20.6849985 98.4205994,20.3700017 98.3272656,20.03 C98.2339318,20.3700017 98.1422661,20.6866652 98.0522656,20.98 C97.9622652,21.2733348 97.8739327,21.5299989 97.7872656,21.75 L96.0272656,26.54 Z M119.717266,24.77 C119.717266,25.8300053 119.540601,26.8033289 119.187266,27.69 C118.833931,28.5766711 118.337269,29.3399968 117.697266,29.98 C117.057262,30.6200032 116.28727,31.1166649 115.387266,31.47 C114.487261,31.8233351 113.490604,32 112.397266,32 L106.877266,32 L106.877266,17.54 L112.397266,17.54 C113.490604,17.54 114.487261,17.7183315 115.387266,18.075 C116.28727,18.4316685 117.057262,18.9283302 117.697266,19.565 C118.337269,20.2016699 118.833931,20.9633289 119.187266,21.85 C119.540601,22.7366711 119.717266,23.7099947 119.717266,24.77 Z M116.967266,24.77 C116.967266,23.9766627 116.8606,23.2650031 116.647266,22.635 C116.433931,22.0049968 116.130601,21.4716689 115.737266,21.035 C115.34393,20.5983311 114.865602,20.2633345 114.302266,20.03 C113.738929,19.7966655 113.103936,19.68 112.397266,19.68 L109.587266,19.68 L109.587266,29.86 L112.397266,29.86 C113.103936,29.86 113.738929,29.7433345 114.302266,29.51 C114.865602,29.2766655 115.34393,28.9416688 115.737266,28.505 C116.130601,28.0683311 116.433931,27.5350032 116.647266,26.905 C116.8606,26.2749969 116.967266,25.5633373 116.967266,24.77 Z M124.267266,17.54 L126.437266,17.54 C126.6706,17.54 126.860598,17.5966661 127.007266,17.71 C127.153933,17.8233339 127.263932,17.9699991 127.337266,18.15 L130.737266,26.97 C130.8506,27.2566681 130.958932,27.5716649 131.062266,27.915 C131.165599,28.258335 131.263932,28.6199981 131.357266,29 C131.5106,28.2333295 131.700598,27.5566696 131.927266,26.97 L135.317266,18.15 C135.377266,17.9966659 135.483932,17.8566673 135.637266,17.73 C135.7906,17.6033327 135.980598,17.54 136.207266,17.54 L138.377266,17.54 L132.537266,32 L130.107266,32 L124.267266,17.54 Z M152.597266,32 L150.517266,32 C150.283931,32 150.092266,31.9416673 149.942266,31.825 C149.792265,31.7083328 149.683933,31.5633342 149.617266,31.39 L148.537266,28.44 L142.547266,28.44 L141.467266,31.39 C141.413932,31.5433341 141.308933,31.6833327 141.152266,31.81 C140.995598,31.9366673 140.803933,32 140.577266,32 L138.487266,32 L144.167266,17.54 L146.917266,17.54 L152.597266,32 Z M143.237266,26.54 L147.847266,26.54 L146.087266,21.73 C146.007265,21.5166656 145.918933,21.2650014 145.822266,20.975 C145.725598,20.6849985 145.630599,20.3700017 145.537266,20.03 C145.443932,20.3700017 145.352266,20.6866652 145.262266,20.98 C145.172265,21.2733348 145.083933,21.5299989 144.997266,21.75 L143.237266,26.54 Z M156.777266,29.78 L162.567266,29.78 L162.567266,32 L154.087266,32 L154.087266,17.54 L156.777266,17.54 L156.777266,29.78 Z M170.247266,29.83 C170.767268,29.83 171.232264,29.7433342 171.642266,29.57 C172.052268,29.3966658 172.398931,29.1533349 172.682266,28.84 C172.9656,28.5266651 173.182265,28.1466689 173.332266,27.7 C173.482266,27.2533311 173.557266,26.7533361 173.557266,26.2 L173.557266,17.54 L176.247266,17.54 L176.247266,26.2 C176.247266,27.0600043 176.108934,27.8549964 175.832266,28.585 C175.555598,29.3150037 175.157268,29.9449974 174.637266,30.475 C174.117263,31.0050027 173.487269,31.4183319 172.747266,31.715 C172.007262,32.0116681 171.173937,32.16 170.247266,32.16 C169.320594,32.16 168.487269,32.0116681 167.747266,31.715 C167.007262,31.4183319 166.378935,31.0050027 165.862266,30.475 C165.345596,29.9449974 164.948934,29.3150037 164.672266,28.585 C164.395598,27.8549964 164.257266,27.0600043 164.257266,26.2 L164.257266,17.54 L166.947266,17.54 L166.947266,26.19 C166.947266,26.7433361 167.022265,27.2433311 167.172266,27.69 C167.322266,28.1366689 167.537264,28.5183318 167.817266,28.835 C168.097267,29.1516683 168.442264,29.3966658 168.852266,29.57 C169.262268,29.7433342 169.727263,29.83 170.247266,29.83 Z M188.107266,17.54 L188.107266,19.68 L181.697266,19.68 L181.697266,23.69 L186.747266,23.69 L186.747266,25.76 L181.697266,25.76 L181.697266,29.85 L188.107266,29.85 L188.107266,32 L178.987266,32 L178.987266,17.54 L188.107266,17.54 Z" id="READ-VALUE" fill="#FFFFFF" mask="url(#mask-2)"></path>
            </g>
        </g>
    </g>
</svg>