<?xml version="1.0" encoding="UTF-8"?>
<svg width="200px" height="50px" viewBox="0 0 200 50" version="1.1" xmlns="http://www.w3.org/2000/svg" xmlns:xlink="http://www.w3.org/1999/xlink">
    <!-- Generator: Sketch 44.1 (41455) - http://www.bohemiancoding.com/sketch -->
    <title>Rest_label</title>
    <desc>Created with Sketch.</desc>
    <defs>
        <rect id="path-1" x="0" y="0" width="200" height="50" rx="12"></rect>
    </defs>
    <g id="Page-1" stroke="none" stroke-width="1" fill="none" fill-rule="evenodd">
        <g id="Rest_label">
            <g id="label">
                <mask id="mask-2" fill="white">
                    <use xlink:href="#path-1"></use>
                </mask>
                <use id="Mask" fill="#25A9E0" xlink:href="#path-1"></use>
                <path d="M49.7353138,72.5477162 C49.7790947,69.4562749 50.4806076,66.9013159 51.8398734,64.8827624 C53.1991393,62.8642088 56.1838561,60.4145646 60.7941133,57.5337562 L67.2310441,53.5115154 C70.1015816,51.7178045 71.75704,50.3507499 72.1974691,49.4103105 C72.6378981,48.4698711 72.5718719,47.2512449 71.9993884,45.7543951 C71.8870732,45.3810916 71.6751106,44.8483218 71.3634941,44.1560697 C69.8090477,40.5715867 70.3945961,37.927825 73.120157,36.2247056 C74.4539421,35.3912641 75.8257005,35.1993131 77.2354733,35.6488468 C78.6452462,36.0983805 79.8483676,37.1205035 80.8448737,38.7152466 C82.1131541,40.7449195 83.0072087,42.9176808 83.5270643,45.2335955 C84.0469199,47.5495103 84.1164833,49.6932009 83.7357567,51.6647317 C83.3405173,53.8065987 82.3337249,55.776229 80.7153493,57.5736818 C79.0969736,59.3711346 75.8957192,61.7645842 71.1114901,64.7541024 L66.0663281,67.9066694 C60.847169,71.167962 59.3499932,75.4497533 61.5747558,80.7521717 C61.6435932,80.9913756 61.7051884,81.154468 61.7595433,81.241454 C62.3972587,82.7781761 62.5475352,84.1155012 62.2103774,85.2534693 C61.8732196,86.3914375 60.9942683,87.4043045 59.5734972,88.2921008 C58.3266981,89.0711874 57.164221,89.4044999 56.0860311,89.2920483 C55.0078412,89.1795967 53.919745,88.5996306 52.8217098,87.5521327 C52.3034903,87.1099312 51.6167779,86.4303388 50.7615521,85.513335 C47.626936,82.1099136 43.5515932,81.9754372 38.5354014,85.1099018 L33.3597612,88.3440007 C28.9234759,91.1160994 25.6778884,92.8417954 23.6229013,93.5211404 C21.5679143,94.2004855 19.5474292,94.4349593 17.5613856,94.2245689 C15.3216556,93.930798 13.1499699,93.0200265 11.0462634,91.4922272 C8.94255699,89.9644279 7.12070368,87.9682567 5.58064885,85.5036538 C4.62037937,83.9669014 4.24904329,82.4854956 4.46662948,81.0593921 C4.68421566,79.6332885 5.44539223,78.512592 6.75018201,77.6972688 C9.47574289,75.9941494 12.2100946,76.7246723 14.9533192,79.8888595 C15.1816157,80.1896898 15.3555548,80.4035309 15.4751416,80.5303893 C16.6130188,81.8352094 17.7672473,82.5048793 18.9378617,82.5394192 C20.1084761,82.5739592 22.1580167,81.6762688 25.0865449,79.8463213 L31.4799828,75.8512579 C35.8292821,73.1335141 39.2904907,71.5754553 41.8637124,71.1770347 C44.4369342,70.7786141 47.0607751,71.2355033 49.7353138,72.5477162 Z M16.4431185,19.2690666 C16.4319687,22.219167 15.683343,24.7632492 14.1972187,26.9013895 C12.7110945,29.0395298 9.79342651,31.4674354 5.44412724,34.1851792 L-3.73284833,39.91959 C-5.09562877,40.7711497 -5.91477997,41.7668077 -6.1903265,42.9065937 C-6.46587304,44.0463798 -6.21231925,45.5005933 -5.42965752,47.2692781 C-4.39697548,49.56712 -4.01116468,51.2813787 -4.27221355,52.4121055 C-4.53326243,53.5428324 -5.3741598,54.5520789 -6.79493089,55.4398752 C-8.24469731,56.3457898 -9.65179797,56.6102205 -11.0162751,56.2331751 C-12.3807522,55.8561298 -13.5702851,54.8557529 -14.5849094,53.2320146 C-15.925663,51.0863602 -16.8568626,48.8864144 -17.3785361,46.6321109 C-17.9002096,44.3778075 -17.9706819,42.264922 -17.5899554,40.2933912 C-17.1729619,38.057297 -16.1815683,36.0468935 -14.6157448,34.2621205 C-13.0499213,32.4773475 -9.83145022,30.0630607 -4.96023504,27.0191877 L0.215405211,23.7850887 C5.26059236,20.6325059 6.93349477,16.8254946 5.23416262,12.3639407 C4.78123562,11.3165034 4.46420057,10.4865435 4.28304796,9.87403616 C3.8410283,8.45693116 3.80852648,7.22743558 4.18554151,6.18551257 C4.56255655,5.14358955 5.359954,4.24215743 6.57775779,3.48118916 C7.85355225,2.68398431 9.06586146,2.34977047 10.2147218,2.47853763 C11.3635821,2.60730479 12.4634566,3.18999006 13.5143781,4.22661094 C13.8912568,4.63618131 14.4148918,5.21609434 15.0852989,5.9663674 C18.422852,9.56551483 22.6431541,9.77067576 27.7463319,6.58185635 L32.7914939,3.42928929 C37.3727558,0.566599134 40.6908305,-1.2043919 42.7458176,-1.88373693 C44.8008046,-2.56308197 46.7777973,-2.77037875 48.676855,-2.50563348 C50.7462488,-2.2263754 52.8744421,-1.28842692 55.0614988,0.308240106 C57.2485554,1.90490713 59.0667882,3.86302441 60.5162516,6.18265069 C61.5308759,7.80638908 61.9103621,9.33309746 61.6547214,10.7628216 C61.3990807,12.1925458 60.5318926,13.3694067 59.0531308,14.2934396 C57.6903504,15.1449993 56.4481449,15.447499 55.3264772,15.2009478 C54.2048094,14.9543966 52.7996478,13.8670199 51.1109503,11.9387851 C49.7447765,10.3331347 48.5189924,9.43604269 47.4335613,9.24748214 C46.3481301,9.05892159 45.037058,9.44477027 43.5003056,10.4050397 L34.7582577,15.8676775 C30.1480005,18.7484859 26.6378612,20.3572783 24.2277343,20.6941027 C21.8176075,21.0309272 19.2227615,20.5559199 16.4431185,19.2690666 Z M56.5870204,27.35 L56.5870204,33 L53.8970204,33 L53.8970204,18.54 L58.3070204,18.54 C59.293692,18.54 60.1386835,18.6416656 60.8420204,18.845 C61.5453572,19.0483343 62.1220181,19.3333315 62.5720204,19.7 C63.0220226,20.0666685 63.3520193,20.5049974 63.5620204,21.015 C63.7720214,21.5250025 63.8770204,22.0866636 63.8770204,22.7 C63.8770204,23.1866691 63.8053544,23.6466645 63.6620204,24.08 C63.5186863,24.5133355 63.3120217,24.9066649 63.0420204,25.26 C62.772019,25.6133351 62.438689,25.923332 62.0420204,26.19 C61.6453517,26.456668 61.1936896,26.6699992 60.6870204,26.83 C61.0270221,27.0233343 61.3203525,27.2999982 61.5670204,27.66 L65.1870204,33 L62.7670204,33 C62.5336859,33 62.3353545,32.9533338 62.1720204,32.86 C62.0086862,32.7666662 61.8703543,32.6333342 61.7570204,32.46 L58.7170204,27.83 C58.6036865,27.6566658 58.4786877,27.5333337 58.3420204,27.46 C58.205353,27.3866663 58.0036884,27.35 57.7370204,27.35 L56.5870204,27.35 Z M56.5870204,25.42 L58.2670204,25.42 C58.7736896,25.42 59.2153518,25.3566673 59.5920204,25.23 C59.9686889,25.1033327 60.2786858,24.9283345 60.5220204,24.705 C60.7653549,24.4816656 60.9470198,24.2166682 61.0670204,23.91 C61.187021,23.6033318 61.2470204,23.2666685 61.2470204,22.9 C61.2470204,22.166663 61.0053561,21.6033353 60.5220204,21.21 C60.0386846,20.8166647 59.3003587,20.62 58.3070204,20.62 L56.5870204,20.62 L56.5870204,25.42 Z M76.0270204,18.54 L76.0270204,20.68 L69.6170204,20.68 L69.6170204,24.69 L74.6670204,24.69 L74.6670204,26.76 L69.6170204,26.76 L69.6170204,30.85 L76.0270204,30.85 L76.0270204,33 L66.9070204,33 L66.9070204,18.54 L76.0270204,18.54 Z M86.1070204,21.17 C86.0336867,21.3166674 85.9486875,21.4199997 85.8520204,21.48 C85.7553532,21.5400003 85.6403544,21.57 85.5070204,21.57 C85.3736864,21.57 85.2236879,21.5183338 85.0570204,21.415 C84.8903529,21.3116661 84.6936882,21.1966673 84.4670204,21.07 C84.2403526,20.9433327 83.9753552,20.8283338 83.6720204,20.725 C83.3686855,20.6216661 83.0103558,20.57 82.5970204,20.57 C82.2236852,20.57 81.8986884,20.6149995 81.6220204,20.705 C81.3453523,20.7950004 81.1120213,20.9199992 80.9220204,21.08 C80.7320194,21.2400008 80.5903542,21.4316655 80.4970204,21.655 C80.4036866,21.8783344 80.3570204,22.123332 80.3570204,22.39 C80.3570204,22.7300017 80.4520194,23.0133322 80.6420204,23.24 C80.8320213,23.4666678 81.0836855,23.6599992 81.3970204,23.82 C81.7103553,23.9800008 82.0670184,24.1233327 82.4670204,24.25 C82.8670224,24.3766673 83.2753516,24.5116659 83.6920204,24.655 C84.1086891,24.798334 84.5170184,24.964999 84.9170204,25.155 C85.3170224,25.3450009 85.6736855,25.5849985 85.9870204,25.875 C86.3003553,26.1650014 86.5520194,26.5199979 86.7420204,26.94 C86.9320213,27.3600021 87.0270204,27.869997 87.0270204,28.47 C87.0270204,29.1233366 86.9153548,29.7349971 86.6920204,30.305 C86.4686859,30.8750028 86.1420225,31.3716645 85.7120204,31.795 C85.2820182,32.2183354 84.7570235,32.5516654 84.1370204,32.795 C83.5170173,33.0383345 82.8070244,33.16 82.0070204,33.16 C81.5470181,33.16 81.0936893,33.1150004 80.6470204,33.025 C80.2003515,32.9349995 79.7720224,32.8066675 79.3620204,32.64 C78.9520183,32.4733325 78.5686888,32.2733345 78.2120204,32.04 C77.8553519,31.8066655 77.5370218,31.5466681 77.2570204,31.26 L78.0370204,29.97 C78.1103541,29.8766662 78.1986865,29.7983336 78.3020204,29.735 C78.4053542,29.6716664 78.5203531,29.64 78.6470204,29.64 C78.8136879,29.64 78.9936861,29.7083326 79.1870204,29.845 C79.3803547,29.9816674 79.6086857,30.1333325 79.8720204,30.3 C80.135355,30.4666675 80.4453519,30.6183326 80.8020204,30.755 C81.1586888,30.8916673 81.5870179,30.96 82.0870204,30.96 C82.8536909,30.96 83.4470183,30.7783351 83.8670204,30.415 C84.2870225,30.0516649 84.4970204,29.5300034 84.4970204,28.85 C84.4970204,28.4699981 84.4020213,28.1600012 84.2120204,27.92 C84.0220194,27.6799988 83.7703553,27.4783341 83.4570204,27.315 C83.1436855,27.1516658 82.7870224,27.0133339 82.3870204,26.9 C81.9870184,26.7866661 81.5803558,26.663334 81.1670204,26.53 C80.753685,26.396666 80.3470224,26.2366676 79.9470204,26.05 C79.5470184,25.8633324 79.1903553,25.6200015 78.8770204,25.32 C78.5636855,25.0199985 78.3120213,24.6450022 78.1220204,24.195 C77.9320194,23.7449977 77.8370204,23.1900033 77.8370204,22.53 C77.8370204,22.0033307 77.9420193,21.4900025 78.1520204,20.99 C78.3620214,20.4899975 78.668685,20.0466686 79.0720204,19.66 C79.4753557,19.2733314 79.9703508,18.9633345 80.5570204,18.73 C81.14369,18.4966655 81.8136833,18.38 82.5670204,18.38 C83.420358,18.38 84.2070168,18.513332 84.9270204,18.78 C85.647024,19.046668 86.2603512,19.4199976 86.7670204,19.9 L86.1070204,21.17 Z M99.2770204,18.54 L99.2770204,20.75 L94.9270204,20.75 L94.9270204,33 L92.2370204,33 L92.2370204,20.75 L87.8670204,20.75 L87.8670204,18.54 L99.2770204,18.54 Z M117.55702,33 L115.47702,33 C115.243686,33 115.052021,32.9416672 114.90202,32.825 C114.75202,32.7083327 114.643687,32.5633342 114.57702,32.39 L113.49702,29.44 L107.50702,29.44 L106.42702,32.39 C106.373687,32.5433341 106.268688,32.6833327 106.11202,32.81 C105.955353,32.9366673 105.763688,33 105.53702,33 L103.44702,33 L109.12702,18.54 L111.87702,18.54 L117.55702,33 Z M108.19702,27.54 L112.80702,27.54 L111.04702,22.73 C110.96702,22.5166656 110.878688,22.2650014 110.78202,21.975 C110.685353,21.6849985 110.590354,21.3700017 110.49702,21.03 C110.403687,21.3700017 110.312021,21.6866652 110.22202,21.98 C110.13202,22.2733348 110.043687,22.5299989 109.95702,22.75 L108.19702,27.54 Z M121.82702,27.91 L121.82702,33 L119.13702,33 L119.13702,18.54 L123.84702,18.54 C124.813692,18.54 125.65035,18.6533322 126.35702,18.88 C127.063691,19.1066678 127.647018,19.4233313 128.10702,19.83 C128.567023,20.2366687 128.907019,20.7233305 129.12702,21.29 C129.347021,21.8566695 129.45702,22.4766633 129.45702,23.15 C129.45702,23.8500035 129.340355,24.4916637 129.10702,25.075 C128.873686,25.6583362 128.523689,26.1599979 128.05702,26.58 C127.590351,27.0000021 127.007024,27.3266655 126.30702,27.56 C125.607017,27.7933345 124.787025,27.91 123.84702,27.91 L121.82702,27.91 Z M121.82702,25.81 L123.84702,25.81 C124.340356,25.81 124.770352,25.748334 125.13702,25.625 C125.503689,25.5016661 125.807019,25.3250012 126.04702,25.095 C126.287022,24.8649989 126.46702,24.5850017 126.58702,24.255 C126.707021,23.9249984 126.76702,23.5566687 126.76702,23.15 C126.76702,22.7633314 126.707021,22.4133349 126.58702,22.1 C126.46702,21.7866651 126.287022,21.5200011 126.04702,21.3 C125.807019,21.0799989 125.503689,20.9116673 125.13702,20.795 C124.770352,20.6783328 124.340356,20.62 123.84702,20.62 L121.82702,20.62 L121.82702,25.81 Z M134.57702,33 L131.87702,33 L131.87702,18.54 L134.57702,18.54 L134.57702,33 Z M151.62702,29.59 C151.773688,29.59 151.900353,29.6466661 152.00702,29.76 L153.06702,30.91 C152.480351,31.6366703 151.758691,32.1933314 150.90202,32.58 C150.045349,32.9666686 149.017026,33.16 147.81702,33.16 C146.743682,33.16 145.778691,32.9766685 144.92202,32.61 C144.065349,32.2433315 143.33369,31.7333366 142.72702,31.08 C142.120351,30.4266634 141.655355,29.6466712 141.33202,28.74 C141.008685,27.8333288 140.84702,26.8433387 140.84702,25.77 C140.84702,24.6833279 141.027019,23.6883378 141.38702,22.785 C141.747022,21.8816621 142.253684,21.1033366 142.90702,20.45 C143.560357,19.7966634 144.342016,19.2883351 145.25202,18.925 C146.162025,18.5616648 147.167015,18.38 148.26702,18.38 C149.340359,18.38 150.278683,18.5516649 151.08202,18.895 C151.885358,19.238335 152.573684,19.6933305 153.14702,20.26 L152.24702,21.51 C152.193687,21.5900004 152.125354,21.6599997 152.04202,21.72 C151.958687,21.7800003 151.843688,21.81 151.69702,21.81 C151.543686,21.81 151.387021,21.7500006 151.22702,21.63 C151.06702,21.5099994 150.863688,21.3800007 150.61702,21.24 C150.370352,21.0999993 150.058689,20.9700006 149.68202,20.85 C149.305352,20.7299994 148.827023,20.67 148.24702,20.67 C147.567017,20.67 146.942023,20.7883321 146.37202,21.025 C145.802018,21.2616678 145.312022,21.5999978 144.90202,22.04 C144.492018,22.4800022 144.172022,23.0149968 143.94202,23.645 C143.712019,24.2750031 143.59702,24.9833294 143.59702,25.77 C143.59702,26.5833374 143.712019,27.3066635 143.94202,27.94 C144.172022,28.5733365 144.483685,29.1066645 144.87702,29.54 C145.270356,29.9733355 145.733684,30.3049988 146.26702,30.535 C146.800356,30.7650011 147.373684,30.88 147.98702,30.88 C148.353689,30.88 148.685352,30.8600002 148.98202,30.82 C149.278689,30.7799998 149.552019,30.7166671 149.80202,30.63 C150.052022,30.5433329 150.288686,30.4316673 150.51202,30.295 C150.735355,30.1583326 150.957019,29.990001 151.17702,29.79 C151.243687,29.7299997 151.313687,29.6816668 151.38702,29.645 C151.460354,29.6083331 151.540353,29.59 151.62702,29.59 Z M167.80702,33 L165.72702,33 C165.493686,33 165.302021,32.9416672 165.15202,32.825 C165.00202,32.7083327 164.893687,32.5633342 164.82702,32.39 L163.74702,29.44 L157.75702,29.44 L156.67702,32.39 C156.623687,32.5433341 156.518688,32.6833327 156.36202,32.81 C156.205353,32.9366673 156.013688,33 155.78702,33 L153.69702,33 L159.37702,18.54 L162.12702,18.54 L167.80702,33 Z M158.44702,27.54 L163.05702,27.54 L161.29702,22.73 C161.21702,22.5166656 161.128688,22.2650014 161.03202,21.975 C160.935353,21.6849985 160.840354,21.3700017 160.74702,21.03 C160.653687,21.3700017 160.562021,21.6866652 160.47202,21.98 C160.38202,22.2733348 160.293687,22.5299989 160.20702,22.75 L158.44702,27.54 Z M171.98702,30.78 L177.77702,30.78 L177.77702,33 L169.29702,33 L169.29702,18.54 L171.98702,18.54 L171.98702,30.78 Z M182.32702,30.78 L188.11702,30.78 L188.11702,33 L179.63702,33 L179.63702,18.54 L182.32702,18.54 L182.32702,30.78 Z" id="Combined-Shape" fill="#FFFFFF" mask="url(#mask-2)"></path>
            </g>
        </g>
    </g>
</svg>