<?xml version="1.0" encoding="UTF-8"?>
<svg width="200px" height="50px" viewBox="0 0 200 50" version="1.1" xmlns="http://www.w3.org/2000/svg" xmlns:xlink="http://www.w3.org/1999/xlink">
    <!-- Generator: Sketch 44.1 (41455) - http://www.bohemiancoding.com/sketch -->
    <title>Start_label</title>
    <desc>Created with Sketch.</desc>
    <defs>
        <rect id="path-1" x="0" y="0" width="200" height="50" rx="12"></rect>
    </defs>
    <g id="Page-1" stroke="none" stroke-width="1" fill="none" fill-rule="evenodd">
        <g id="Start_label">
            <g id="label">
                <mask id="mask-2" fill="white">
                    <use xlink:href="#path-1"></use>
                </mask>
                <use id="Mask" fill="#006838" xlink:href="#path-1"></use>
                <path d="M62.4405716,38.7662305 L0.916220627,46.3204709 C-1.27645178,46.5896972 -3.27221503,45.0304361 -3.54144135,42.8377637 C-3.6270115,42.1408507 -3.52762671,41.4336912 -3.25327616,40.7873618 L20.9667352,-16.2714093 C21.8299146,-18.3049325 24.178156,-19.2536836 26.2116791,-18.3905042 C26.8580085,-18.1161536 27.4207343,-17.6765041 27.8432967,-17.1157449 L65.1476362,32.3887858 C66.4771293,34.1530827 66.1246511,36.6610949 64.3603543,37.9905879 C63.799595,38.4131503 63.1374845,38.6806604 62.4405716,38.7662305 L62.4405716,38.7662305 Z M112.295,20.17 C112.221666,20.3166674 112.136667,20.4199997 112.04,20.48 C111.943333,20.5400003 111.828334,20.57 111.695,20.57 C111.561666,20.57 111.411668,20.5183338 111.245,20.415 C111.078333,20.3116661 110.881668,20.1966673 110.655,20.07 C110.428332,19.9433327 110.163335,19.8283338 109.86,19.725 C109.556665,19.6216661 109.198335,19.57 108.785,19.57 C108.411665,19.57 108.086668,19.6149995 107.81,19.705 C107.533332,19.7950004 107.300001,19.9199992 107.11,20.08 C106.919999,20.2400008 106.778334,20.4316655 106.685,20.655 C106.591666,20.8783344 106.545,21.123332 106.545,21.39 C106.545,21.7300017 106.639999,22.0133322 106.83,22.24 C107.020001,22.4666678 107.271665,22.6599992 107.585,22.82 C107.898335,22.9800008 108.254998,23.1233327 108.655,23.25 C109.055002,23.3766673 109.463331,23.5116659 109.88,23.655 C110.296669,23.798334 110.704998,23.964999 111.105,24.155 C111.505002,24.3450009 111.861665,24.5849985 112.175,24.875 C112.488335,25.1650014 112.739999,25.5199979 112.93,25.94 C113.120001,26.3600021 113.215,26.869997 113.215,27.47 C113.215,28.1233366 113.103334,28.7349971 112.88,29.305 C112.656666,29.8750028 112.330002,30.3716645 111.9,30.795 C111.469998,31.2183354 110.945003,31.5516654 110.325,31.795 C109.704997,32.0383346 108.995004,32.16 108.195,32.16 C107.734998,32.16 107.281669,32.1150004 106.835,32.025 C106.388331,31.9349995 105.960002,31.8066675 105.55,31.64 C105.139998,31.4733325 104.756668,31.2733345 104.4,31.04 C104.043332,30.8066655 103.725001,30.5466681 103.445,30.26 L104.225,28.97 C104.298334,28.8766662 104.386666,28.7983336 104.49,28.735 C104.593334,28.6716663 104.708333,28.64 104.835,28.64 C105.001668,28.64 105.181666,28.7083326 105.375,28.845 C105.568334,28.9816673 105.796665,29.1333325 106.06,29.3 C106.323335,29.4666675 106.633332,29.6183326 106.99,29.755 C107.346668,29.8916673 107.774998,29.96 108.275,29.96 C109.041671,29.96 109.634998,29.7783351 110.055,29.415 C110.475002,29.0516648 110.685,28.5300034 110.685,27.85 C110.685,27.4699981 110.590001,27.1600012 110.4,26.92 C110.209999,26.6799988 109.958335,26.4783341 109.645,26.315 C109.331665,26.1516658 108.975002,26.0133339 108.575,25.9 C108.174998,25.7866661 107.768335,25.663334 107.355,25.53 C106.941665,25.396666 106.535002,25.2366676 106.135,25.05 C105.734998,24.8633324 105.378335,24.6200015 105.065,24.32 C104.751665,24.0199985 104.500001,23.6450022 104.31,23.195 C104.119999,22.7449977 104.025,22.1900033 104.025,21.53 C104.025,21.0033307 104.129999,20.4900025 104.34,19.99 C104.550001,19.4899975 104.856665,19.0466686 105.26,18.66 C105.663335,18.2733314 106.15833,17.9633345 106.745,17.73 C107.33167,17.4966655 108.001663,17.38 108.755,17.38 C109.608338,17.38 110.394996,17.513332 111.115,17.78 C111.835004,18.046668 112.448331,18.4199976 112.955,18.9 L112.295,20.17 Z M125.465,17.54 L125.465,19.75 L121.115,19.75 L121.115,32 L118.425,32 L118.425,19.75 L114.055,19.75 L114.055,17.54 L125.465,17.54 Z M139.885,32 L137.805,32 C137.571666,32 137.380001,31.9416673 137.23,31.825 C137.079999,31.7083328 136.971667,31.5633342 136.905,31.39 L135.825,28.44 L129.835,28.44 L128.755,31.39 C128.701666,31.5433341 128.596667,31.6833327 128.44,31.81 C128.283333,31.9366673 128.091668,32 127.865,32 L125.775,32 L131.455,17.54 L134.205,17.54 L139.885,32 Z M130.525,26.54 L135.135,26.54 L133.375,21.73 C133.295,21.5166656 133.206667,21.2650014 133.11,20.975 C133.013333,20.6849985 132.918334,20.3700017 132.825,20.03 C132.731666,20.3700017 132.64,20.6866652 132.55,20.98 C132.46,21.2733348 132.371667,21.5299989 132.285,21.75 L130.525,26.54 Z M144.155,26.35 L144.155,32 L141.465,32 L141.465,17.54 L145.875,17.54 C146.861672,17.54 147.706663,17.6416657 148.41,17.845 C149.113337,18.0483344 149.689998,18.3333315 150.14,18.7 C150.590002,19.0666685 150.919999,19.5049975 151.13,20.015 C151.340001,20.5250026 151.445,21.0866636 151.445,21.7 C151.445,22.1866691 151.373334,22.6466645 151.23,23.08 C151.086666,23.5133355 150.880001,23.9066649 150.61,24.26 C150.339999,24.6133351 150.006669,24.923332 149.61,25.19 C149.213331,25.456668 148.761669,25.6699992 148.255,25.83 C148.595002,26.0233343 148.888332,26.2999982 149.135,26.66 L152.755,32 L150.335,32 C150.101666,32 149.903334,31.9533338 149.74,31.86 C149.576666,31.7666662 149.438334,31.6333342 149.325,31.46 L146.285,26.83 C146.171666,26.6566658 146.046667,26.5333337 145.91,26.46 C145.773333,26.3866663 145.571668,26.35 145.305,26.35 L144.155,26.35 Z M144.155,24.42 L145.835,24.42 C146.341669,24.42 146.783331,24.3566673 147.16,24.23 C147.536669,24.1033327 147.846665,23.9283345 148.09,23.705 C148.333335,23.4816656 148.514999,23.2166682 148.635,22.91 C148.755001,22.6033318 148.815,22.2666685 148.815,21.9 C148.815,21.166663 148.573336,20.6033353 148.09,20.21 C147.606664,19.8166647 146.868338,19.62 145.875,19.62 L144.155,19.62 L144.155,24.42 Z M164.665,17.54 L164.665,19.75 L160.315,19.75 L160.315,32 L157.625,32 L157.625,19.75 L153.255,19.75 L153.255,17.54 L164.665,17.54 Z" id="Combined-Shape" fill="#FFFFFF" mask="url(#mask-2)"></path>
            </g>
        </g>
    </g>
</svg>