<?xml version="1.0" encoding="UTF-8"?>
<svg width="200px" height="50px" viewBox="0 0 200 50" version="1.1" xmlns="http://www.w3.org/2000/svg" xmlns:xlink="http://www.w3.org/1999/xlink">
    <!-- Generator: Sketch 44.1 (41455) - http://www.bohemiancoding.com/sketch -->
    <title>TestValue_label</title>
    <desc>Created with Sketch.</desc>
    <defs>
        <rect id="path-1" x="0" y="0" width="200" height="50" rx="12"></rect>
    </defs>
    <g id="Page-1" stroke="none" stroke-width="1" fill="none" fill-rule="evenodd">
        <g id="TestValue_label">
            <g id="label">
                <mask id="mask-2" fill="white">
                    <use xlink:href="#path-1"></use>
                </mask>
                <use id="Mask" fill="#2B3681" xlink:href="#path-1"></use>
                <path d="M38.2527658,18.7668456 L39.2898141,19.5424531 L54.1832223,12.3702618 L56.7889151,14.9759547 L49.5905797,29.8432188 L50.3661873,30.8802671 L48.8411162,32.4053381 L44.5186291,28.082851 L46.0437002,26.55778 L47.0807485,27.2810994 L48.2659466,24.9804208 L44.1526121,20.8670863 L41.8519335,22.0522844 L42.5752529,23.0893327 L41.0501818,24.6144037 L36.7276947,20.2919166 L38.2527658,18.7668456 Z M46.6275845,19.5947413 L49.5382916,22.5054483 L52.579719,16.605602 L52.5274308,16.5533139 L46.6275845,19.5947413 Z M63.3075045,37.9653115 C61.9015272,39.3712888 60.4636175,40.181747 58.9937321,40.3967105 C57.5238467,40.6116739 56.196322,40.1265609 55.011118,38.9413569 C54.4591847,38.3894237 54.0946238,37.7953782 53.9174242,37.1592025 C53.7402245,36.5230268 53.7300575,35.8476449 53.8869227,35.1330367 L52.5448602,36.1090821 L50.3487579,33.9129798 L62.1484505,22.1132872 L61.059114,20.5010692 L62.5928998,18.9672835 L66.4796523,22.854036 L61.3118401,28.0218482 C61.9625403,27.9172714 62.5798248,27.9535822 63.1637121,28.1307818 C63.7475994,28.3079815 64.2864524,28.6434937 64.7802874,29.1373287 C65.9771111,30.3341524 66.4375327,31.697988 66.1615661,33.2288765 C65.8855994,34.759765 64.9952573,36.2775586 63.490513,37.7823029 L63.3075045,37.9653115 Z M60.9545377,35.2463276 C61.8724899,34.3283755 62.465083,33.4656297 62.7323349,32.6580642 C62.9995867,31.8504987 62.8078654,31.1213768 62.1571652,30.4706766 C61.7620972,30.0756086 61.3452486,29.8243375 60.9066069,29.7168557 C60.4679653,29.609374 60.0162583,29.6311605 59.5514724,29.7822159 L55.5688582,33.76483 C55.4352323,34.2121865 55.430875,34.6493691 55.5557862,35.0763912 C55.6806974,35.5034132 55.943588,35.9173569 56.3444658,36.3182347 C57.0009759,36.9747448 57.6908821,37.2027769 58.4142051,37.002338 C59.1375281,36.8018991 59.923295,36.2775704 60.7715292,35.4293362 L60.9545377,35.2463276 Z M66.2269262,46.2529833 C66.6800925,46.7061495 67.1753725,46.9370866 67.7127812,46.9458013 C68.2501899,46.954516 68.7396601,46.7381034 69.1812067,46.2965568 L71.4818854,48.5972354 L71.4557413,48.6756676 C70.5261695,49.651718 69.3714844,50.0918055 67.9916513,49.9959434 C66.6118182,49.9000813 65.3728919,49.3031309 64.2748353,48.2050743 C62.868858,46.799097 62.229787,45.2711363 62.3576031,43.6211464 C62.4854192,41.9711565 63.2464947,40.4490056 64.6408523,39.0546479 L64.9022931,38.7932072 C66.2908409,37.4046594 67.8231589,36.6537509 69.499293,36.5404594 C71.1754271,36.4271678 72.7367937,37.0938351 74.1834398,38.5404811 C74.9445267,39.301568 75.5138808,40.0975019 75.8915194,40.9283067 C76.2691579,41.7591114 76.4521646,42.5811891 76.440545,43.3945644 L73.9568578,45.9479691 L71.8914759,43.8825872 L72.9459536,41.991499 C72.9285241,41.7532963 72.8631646,41.50493 72.749873,41.2463929 C72.6365814,40.9878558 72.4608369,40.7394895 72.2226342,40.5012868 C71.502216,39.7808686 70.732426,39.5339548 69.9132408,39.760538 C69.0940557,39.9871211 68.271978,40.5129022 67.4469831,41.3378972 L67.1855423,41.5993379 C66.3431179,42.4417623 65.80136,43.2565779 65.5602523,44.0438089 C65.3191446,44.83104 65.5413671,45.5674241 66.2269262,46.2529833 Z M23.150205,39.3596621 L25.5554599,41.2420356 L34.148146,32.6493495 L31.9781877,30.4793913 L33.4335412,29.0240377 L38.9935146,32.8759315 L28.0914352,43.7780109 L29.9738086,46.1832658 L28.4487376,47.7083368 L21.6251339,40.8847332 L23.150205,39.3596621 Z M29.5816475,48.8412467 L31.2461536,47.1767406 L39.7516928,46.8804411 C41.0240441,46.7932938 42.0189615,46.6407882 42.7364747,46.4229198 C43.4539879,46.2050514 44.013175,45.8956829 44.4140528,45.4948051 C44.9485566,44.9603014 45.2419483,44.3793277 45.2942367,43.7518668 C45.3465251,43.1244058 45.1083259,42.5463371 44.579632,42.0176431 C43.9928398,41.4308509 43.3479591,41.1839371 42.6449704,41.2768943 C41.9419818,41.3698515 41.2593377,41.7474844 40.5970178,42.4098042 L38.1220454,39.9348318 L38.1569042,39.8651143 C39.2723903,38.6915299 40.6173443,38.0989368 42.1918064,38.0873171 C43.7662686,38.0756975 45.2157978,38.7321977 46.5404376,40.0568375 C47.8476479,41.3640478 48.5361017,42.7322407 48.6058196,44.1614573 C48.6755374,45.5906739 48.1439466,46.8717208 47.011031,48.0046363 C46.2441343,48.771533 45.3247435,49.2697179 44.252831,49.499206 C43.1809186,49.728694 41.6340763,49.8782947 39.6122577,49.9480126 L34.8888948,50.1571652 L34.8627507,50.218168 L38.1569042,53.5123215 L39.5163961,52.3619822 L41.4510576,54.2966438 L38.2440511,57.5036503 L29.5816475,48.8412467 Z M49.555721,53.9654855 L50.9849304,55.3946949 C51.589152,55.9989166 52.1948171,56.287951 52.8019436,56.2618068 C53.4090702,56.2356626 53.9944011,55.9408184 54.557954,55.3772655 C55.0692185,54.8660011 55.3335615,54.3111713 55.350991,53.7127594 C55.3684204,53.1143476 55.1011726,52.5391837 54.5492393,51.9872505 C54.0728338,51.5108449 53.5325283,51.2494068 52.9283067,51.2029282 C52.324085,51.1564496 51.795399,51.3597904 51.3422328,51.8129566 L48.875975,49.3466989 L48.9108338,49.2769813 C49.8694546,48.2486426 51.0691652,47.8100075 52.5100015,47.9610629 C53.9508377,48.1121183 55.2609332,48.7773331 56.4403274,49.9567273 C57.7533475,51.2697474 58.4868268,52.6306782 58.6407871,54.0395604 C58.7947474,55.4484426 58.2907528,56.7338468 57.1287881,57.8958115 C56.5768548,58.4477447 55.878234,58.7977813 55.0329047,58.9459318 C54.1875754,59.0940823 53.3204722,59.002579 52.4315692,58.671419 C52.8847355,59.6242301 53.037241,60.5436209 52.8890905,61.429619 C52.74094,62.315617 52.3240915,63.1013839 51.6385323,63.7869431 C50.4765676,64.9489078 49.1403282,65.4398305 47.6297741,65.259726 C46.11922,65.0796214 44.7045491,64.3301655 43.3857192,63.0113355 C42.206325,61.8319413 41.5062518,60.5073214 41.2854785,59.0374361 C41.0647052,57.5675507 41.5381987,56.2777892 42.7059732,55.1681129 L42.7756908,55.1332542 L45.2419485,57.5995119 C44.7539234,58.0875371 44.5258912,58.6641535 44.5578452,59.3293782 C44.5897993,59.994603 44.8730239,60.5944583 45.4075277,61.1289621 C45.9943199,61.7157543 46.620319,62.0164081 47.2855438,62.0309327 C47.9507686,62.0454572 48.5622433,61.7738521 49.1199864,61.216109 C49.7881161,60.5479793 50.1105564,59.8914791 50.0873171,59.2465887 C50.0640779,58.6016983 49.7271131,57.9539127 49.0764129,57.3032124 L47.6472035,55.874003 L49.555721,53.9654855 Z M12.5858199,-21.6976468 L39.357353,5.07388619 L30.4335086,13.9977305 L3.66197561,-12.7738025 L12.5858199,-21.6976468 Z M-1.69233099,-7.41949588 L25.079202,19.3520371 L16.1553577,28.2758815 L-10.6161753,1.50434845 L-1.69233099,-7.41949588 Z M87.7993359,17.54 L87.7993359,19.75 L83.4493359,19.75 L83.4493359,32 L80.7593359,32 L80.7593359,19.75 L76.3893359,19.75 L76.3893359,17.54 L87.7993359,17.54 Z M98.6293359,17.54 L98.6293359,19.68 L92.2193359,19.68 L92.2193359,23.69 L97.2693359,23.69 L97.2693359,25.76 L92.2193359,25.76 L92.2193359,29.85 L98.6293359,29.85 L98.6293359,32 L89.5093359,32 L89.5093359,17.54 L98.6293359,17.54 Z M108.709336,20.17 C108.636002,20.3166674 108.551003,20.4199997 108.454336,20.48 C108.357669,20.5400003 108.24267,20.57 108.109336,20.57 C107.976002,20.57 107.826003,20.5183338 107.659336,20.415 C107.492668,20.3116661 107.296004,20.1966673 107.069336,20.07 C106.842668,19.9433327 106.577671,19.8283338 106.274336,19.725 C105.971001,19.6216661 105.612671,19.57 105.199336,19.57 C104.826001,19.57 104.501004,19.6149995 104.224336,19.705 C103.947668,19.7950004 103.714337,19.9199992 103.524336,20.08 C103.334335,20.2400008 103.19267,20.4316655 103.099336,20.655 C103.006002,20.8783344 102.959336,21.123332 102.959336,21.39 C102.959336,21.7300017 103.054335,22.0133322 103.244336,22.24 C103.434337,22.4666678 103.686001,22.6599992 103.999336,22.82 C104.312671,22.9800008 104.669334,23.1233327 105.069336,23.25 C105.469338,23.3766673 105.877667,23.5116659 106.294336,23.655 C106.711005,23.798334 107.119334,23.964999 107.519336,24.155 C107.919338,24.3450009 108.276001,24.5849985 108.589336,24.875 C108.902671,25.1650014 109.154335,25.5199979 109.344336,25.94 C109.534337,26.3600021 109.629336,26.869997 109.629336,27.47 C109.629336,28.1233366 109.51767,28.7349971 109.294336,29.305 C109.071001,29.8750029 108.744338,30.3716645 108.314336,30.795 C107.884334,31.2183354 107.359339,31.5516655 106.739336,31.795 C106.119333,32.0383346 105.40934,32.16 104.609336,32.16 C104.149334,32.16 103.696005,32.1150004 103.249336,32.025 C102.802667,31.9349996 102.374338,31.8066675 101.964336,31.64 C101.554334,31.4733325 101.171004,31.2733345 100.814336,31.04 C100.457667,30.8066655 100.139337,30.5466681 99.8593359,30.26 L100.639336,28.97 C100.71267,28.8766662 100.801002,28.7983336 100.904336,28.735 C101.00767,28.6716663 101.122669,28.64 101.249336,28.64 C101.416003,28.64 101.596002,28.7083327 101.789336,28.845 C101.98267,28.9816673 102.211001,29.1333325 102.474336,29.3 C102.737671,29.4666675 103.047667,29.6183326 103.404336,29.755 C103.761004,29.8916673 104.189333,29.96 104.689336,29.96 C105.456006,29.96 106.049334,29.7783351 106.469336,29.415 C106.889338,29.0516648 107.099336,28.5300034 107.099336,27.85 C107.099336,27.4699981 107.004337,27.1600012 106.814336,26.92 C106.624335,26.6799988 106.372671,26.4783341 106.059336,26.315 C105.746001,26.1516659 105.389338,26.0133339 104.989336,25.9 C104.589334,25.7866661 104.182671,25.663334 103.769336,25.53 C103.356001,25.396666 102.949338,25.2366676 102.549336,25.05 C102.149334,24.8633324 101.792671,24.6200015 101.479336,24.32 C101.166001,24.0199985 100.914337,23.6450022 100.724336,23.195 C100.534335,22.7449977 100.439336,22.1900033 100.439336,21.53 C100.439336,21.0033307 100.544335,20.4900025 100.754336,19.99 C100.964337,19.4899975 101.271001,19.0466686 101.674336,18.66 C102.077671,18.2733314 102.572666,17.9633345 103.159336,17.73 C103.746006,17.4966655 104.415999,17.38 105.169336,17.38 C106.022674,17.38 106.809332,17.513332 107.529336,17.78 C108.24934,18.046668 108.862667,18.4199976 109.369336,18.9 L108.709336,20.17 Z M121.879336,17.54 L121.879336,19.75 L117.529336,19.75 L117.529336,32 L114.839336,32 L114.839336,19.75 L110.469336,19.75 L110.469336,17.54 L121.879336,17.54 Z M126.029336,17.54 L128.199336,17.54 C128.43267,17.54 128.622669,17.5966661 128.769336,17.71 C128.916003,17.8233339 129.026002,17.9699991 129.099336,18.15 L132.499336,26.97 C132.61267,27.2566681 132.721002,27.571665 132.824336,27.915 C132.92767,28.2583351 133.026002,28.6199981 133.119336,29 C133.27267,28.2333295 133.462668,27.5566696 133.689336,26.97 L137.079336,18.15 C137.139336,17.9966659 137.246002,17.8566673 137.399336,17.73 C137.55267,17.6033327 137.742668,17.54 137.969336,17.54 L140.139336,17.54 L134.299336,32 L131.869336,32 L126.029336,17.54 Z M154.359336,32 L152.279336,32 C152.046001,32 151.854337,31.9416673 151.704336,31.825 C151.554335,31.7083328 151.446003,31.5633342 151.379336,31.39 L150.299336,28.44 L144.309336,28.44 L143.229336,31.39 C143.176002,31.5433341 143.071003,31.6833327 142.914336,31.81 C142.757668,31.9366673 142.566004,32 142.339336,32 L140.249336,32 L145.929336,17.54 L148.679336,17.54 L154.359336,32 Z M144.999336,26.54 L149.609336,26.54 L147.849336,21.73 C147.769336,21.5166656 147.681003,21.2650014 147.584336,20.975 C147.487669,20.6849985 147.39267,20.3700017 147.299336,20.03 C147.206002,20.3700017 147.114336,20.6866652 147.024336,20.98 C146.934335,21.2733348 146.846003,21.5299989 146.759336,21.75 L144.999336,26.54 Z M158.539336,29.78 L164.329336,29.78 L164.329336,32 L155.849336,32 L155.849336,17.54 L158.539336,17.54 L158.539336,29.78 Z M172.009336,29.83 C172.529339,29.83 172.994334,29.7433342 173.404336,29.57 C173.814338,29.3966658 174.161001,29.1533349 174.444336,28.84 C174.727671,28.5266651 174.944335,28.1466689 175.094336,27.7 C175.244337,27.2533311 175.319336,26.7533361 175.319336,26.2 L175.319336,17.54 L178.009336,17.54 L178.009336,26.2 C178.009336,27.0600043 177.871004,27.8549964 177.594336,28.585 C177.317668,29.3150037 176.919339,29.9449974 176.399336,30.475 C175.879333,31.0050027 175.24934,31.4183319 174.509336,31.715 C173.769332,32.0116682 172.936007,32.16 172.009336,32.16 C171.082665,32.16 170.24934,32.0116682 169.509336,31.715 C168.769332,31.4183319 168.141005,31.0050027 167.624336,30.475 C167.107667,29.9449974 166.711004,29.3150037 166.434336,28.585 C166.157668,27.8549964 166.019336,27.0600043 166.019336,26.2 L166.019336,17.54 L168.709336,17.54 L168.709336,26.19 C168.709336,26.7433361 168.784335,27.2433311 168.934336,27.69 C169.084337,28.1366689 169.299335,28.5183318 169.579336,28.835 C169.859337,29.1516683 170.204334,29.3966658 170.614336,29.57 C171.024338,29.7433342 171.489333,29.83 172.009336,29.83 Z M189.869336,17.54 L189.869336,19.68 L183.459336,19.68 L183.459336,23.69 L188.509336,23.69 L188.509336,25.76 L183.459336,25.76 L183.459336,29.85 L189.869336,29.85 L189.869336,32 L180.749336,32 L180.749336,17.54 L189.869336,17.54 Z" id="Combined-Shape" fill="#FFFFFF" mask="url(#mask-2)"></path>
            </g>
        </g>
    </g>
</svg>