<?xml version="1.0" encoding="UTF-8"?>
<svg width="200px" height="50px" viewBox="0 0 200 50" version="1.1" xmlns="http://www.w3.org/2000/svg" xmlns:xlink="http://www.w3.org/1999/xlink">
    <!-- Generator: Sketch 44.1 (41455) - http://www.bohemiancoding.com/sketch -->
    <title>Voicemail_label</title>
    <desc>Created with Sketch.</desc>
    <defs>
        <rect id="path-1" x="0" y="0" width="200" height="50" rx="12"></rect>
    </defs>
    <g id="Page-1" stroke="none" stroke-width="1" fill="none" fill-rule="evenodd">
        <g id="Voicemail_label">
            <g id="label">
                <mask id="mask-2" fill="white">
                    <use xlink:href="#path-1"></use>
                </mask>
                <use id="Mask" fill="#F064BE" xlink:href="#path-1"></use>
                <path d="M80.165,16.54 L82.335,16.54 C82.5683345,16.54 82.7583326,16.5966661 82.905,16.71 C83.0516674,16.8233339 83.1616663,16.9699991 83.235,17.15 L86.635,25.97 C86.7483339,26.2566681 86.8566661,26.5716649 86.96,26.915 C87.0633338,27.258335 87.1616662,27.6199981 87.255,28 C87.4083341,27.2333295 87.5983322,26.5566696 87.825,25.97 L91.215,17.15 C91.2750003,16.9966659 91.3816659,16.8566673 91.535,16.73 C91.6883341,16.6033327 91.8783322,16.54 92.105,16.54 L94.275,16.54 L88.435,31 L86.005,31 L80.165,16.54 Z M109.655,23.77 C109.655,24.8300053 109.478335,25.8116621 109.125,26.715 C108.771665,27.6183378 108.275003,28.3999967 107.635,29.06 C106.994997,29.7200033 106.225005,30.2349981 105.325,30.605 C104.424996,30.9750018 103.428339,31.16 102.335,31.16 C101.241661,31.16 100.243338,30.9750018 99.34,30.605 C98.4366622,30.2349981 97.6633366,29.7200033 97.02,29.06 C96.3766635,28.3999967 95.8783351,27.6183378 95.525,26.715 C95.1716649,25.8116621 94.995,24.8300053 94.995,23.77 C94.995,22.7099947 95.1716649,21.7283378 95.525,20.825 C95.8783351,19.9216621 96.3766635,19.1400033 97.02,18.48 C97.6633366,17.8199967 98.4366622,17.3050019 99.34,16.935 C100.243338,16.5649982 101.241661,16.38 102.335,16.38 C103.428339,16.38 104.424996,16.5666648 105.325,16.94 C106.225005,17.3133352 106.994997,17.82833 107.635,18.485 C108.275003,19.14167 108.771665,19.9216621 109.125,20.825 C109.478335,21.7283378 109.655,22.7099947 109.655,23.77 Z M106.895,23.77 C106.895,22.9766627 106.790001,22.2650031 106.58,21.635 C106.369999,21.0049968 106.068335,20.4700022 105.675,20.03 C105.281665,19.5899978 104.803336,19.2533345 104.24,19.02 C103.676664,18.7866655 103.04167,18.67 102.335,18.67 C101.62833,18.67 100.99167,18.7866655 100.425,19.02 C99.8583305,19.2533345 99.3766687,19.5899978 98.98,20.03 C98.5833314,20.4700022 98.2783344,21.0049968 98.065,21.635 C97.8516656,22.2650031 97.745,22.9766627 97.745,23.77 C97.745,24.5633373 97.8516656,25.2749968 98.065,25.905 C98.2783344,26.5350031 98.5833314,27.0683311 98.98,27.505 C99.3766687,27.9416688 99.8583305,28.2766655 100.425,28.51 C100.99167,28.7433345 101.62833,28.86 102.335,28.86 C103.04167,28.86 103.676664,28.7433345 104.24,28.51 C104.803336,28.2766655 105.281665,27.9416688 105.675,27.505 C106.068335,27.0683311 106.369999,26.5350031 106.58,25.905 C106.790001,25.2749968 106.895,24.5633373 106.895,23.77 Z M114.805,31 L112.105,31 L112.105,16.54 L114.805,16.54 L114.805,31 Z M127.995,27.59 C128.141667,27.59 128.268333,27.6466661 128.375,27.76 L129.435,28.91 C128.84833,29.6366703 128.126671,30.1933314 127.27,30.58 C126.413329,30.9666686 125.385006,31.16 124.185,31.16 C123.111661,31.16 122.146671,30.9766685 121.29,30.61 C120.433329,30.2433315 119.70167,29.7333366 119.095,29.08 C118.48833,28.4266634 118.023335,27.6466712 117.7,26.74 C117.376665,25.8333288 117.215,24.8433387 117.215,23.77 C117.215,22.6833279 117.394998,21.6883378 117.755,20.785 C118.115002,19.8816621 118.621663,19.1033366 119.275,18.45 C119.928337,17.7966634 120.709995,17.2883351 121.62,16.925 C122.530005,16.5616648 123.534994,16.38 124.635,16.38 C125.708339,16.38 126.646663,16.5516649 127.45,16.895 C128.253337,17.238335 128.941664,17.6933305 129.515,18.26 L128.615,19.51 C128.561666,19.5900004 128.493334,19.6599997 128.41,19.72 C128.326666,19.7800003 128.211667,19.81 128.065,19.81 C127.911666,19.81 127.755001,19.7500006 127.595,19.63 C127.434999,19.5099994 127.231668,19.3800007 126.985,19.24 C126.738332,19.0999993 126.426669,18.9700006 126.05,18.85 C125.673331,18.7299994 125.195003,18.67 124.615,18.67 C123.934997,18.67 123.310003,18.7883321 122.74,19.025 C122.169997,19.2616678 121.680002,19.5999978 121.27,20.04 C120.859998,20.4800022 120.540001,21.0149968 120.31,21.645 C120.079999,22.2750031 119.965,22.9833294 119.965,23.77 C119.965,24.5833374 120.079999,25.3066635 120.31,25.94 C120.540001,26.5733365 120.851665,27.1066645 121.245,27.54 C121.638335,27.9733355 122.101664,28.3049988 122.635,28.535 C123.168336,28.7650011 123.741664,28.88 124.355,28.88 C124.721668,28.88 125.053332,28.8600002 125.35,28.82 C125.646668,28.7799998 125.919999,28.7166671 126.17,28.63 C126.420001,28.5433329 126.656666,28.4316673 126.88,28.295 C127.103334,28.1583326 127.324999,27.990001 127.545,27.79 C127.611667,27.7299997 127.681666,27.6816668 127.755,27.645 C127.828334,27.6083331 127.908333,27.59 127.995,27.59 Z M140.585,16.54 L140.585,18.68 L134.175,18.68 L134.175,22.69 L139.225,22.69 L139.225,24.76 L134.175,24.76 L134.175,28.85 L140.585,28.85 L140.585,31 L131.465,31 L131.465,16.54 L140.585,16.54 Z M150.175,25 C150.288334,25.2133344 150.393333,25.4349988 150.49,25.665 C150.586667,25.8950011 150.681666,26.1266655 150.775,26.36 C150.868334,26.1199988 150.964999,25.8833345 151.065,25.65 C151.165001,25.4166655 151.271666,25.1933344 151.385,24.98 L155.665,16.97 C155.718334,16.8699995 155.773333,16.7900003 155.83,16.73 C155.886667,16.6699997 155.95,16.6266668 156.02,16.6 C156.09,16.5733332 156.168333,16.5566667 156.255,16.55 C156.341667,16.5433333 156.444999,16.54 156.565,16.54 L158.595,16.54 L158.595,31 L156.225,31 L156.225,21.66 C156.225,21.4866658 156.23,21.2966677 156.24,21.09 C156.25,20.8833323 156.265,20.6733344 156.285,20.46 L151.915,28.66 C151.814999,28.8466676 151.685001,28.9916661 151.525,29.095 C151.364999,29.1983338 151.178334,29.25 150.965,29.25 L150.595,29.25 C150.381666,29.25 150.195001,29.1983338 150.035,29.095 C149.874999,28.9916661 149.745001,28.8466676 149.645,28.66 L145.215,20.43 C145.241667,20.6500011 145.26,20.8649989 145.27,21.075 C145.28,21.285001 145.285,21.4799991 145.285,21.66 L145.285,31 L142.915,31 L142.915,16.54 L144.945,16.54 C145.065001,16.54 145.168333,16.5433333 145.255,16.55 C145.341667,16.5566667 145.42,16.5733332 145.49,16.6 C145.56,16.6266668 145.625,16.6699997 145.685,16.73 C145.745,16.7900003 145.801666,16.8699995 145.855,16.97 L150.175,25 Z M174.225,31 L172.145,31 C171.911666,31 171.720001,30.9416672 171.57,30.825 C171.419999,30.7083327 171.311667,30.5633342 171.245,30.39 L170.165,27.44 L164.175,27.44 L163.095,30.39 C163.041666,30.5433341 162.936667,30.6833327 162.78,30.81 C162.623333,30.9366673 162.431668,31 162.205,31 L160.115,31 L165.795,16.54 L168.545,16.54 L174.225,31 Z M164.865,25.54 L169.475,25.54 L167.715,20.73 C167.635,20.5166656 167.546667,20.2650015 167.45,19.975 C167.353333,19.6849986 167.258334,19.3700017 167.165,19.03 C167.071666,19.3700017 166.98,19.6866652 166.89,19.98 C166.8,20.2733348 166.711667,20.5299989 166.625,20.75 L164.865,25.54 Z M178.745,31 L176.045,31 L176.045,16.54 L178.745,16.54 L178.745,31 Z M184.685,28.78 L190.475,28.78 L190.475,31 L181.995,31 L181.995,16.54 L184.685,16.54 L184.685,28.78 Z M38.4683904,29.7377637 C48.0248653,20.1812889 63.5189723,20.1812889 73.0754472,29.7377637 C82.631922,39.2942386 82.631922,54.7883456 73.0754472,64.3448205 C63.6843198,73.7359479 48.5592501,73.8984345 38.9697038,64.8322802 L-3.5544642,22.3219659 C-11.6016595,12.6448079 -11.1281646,-1.74507137 -2.07130462,-10.8019313 C7.48517021,-20.3584061 22.9792773,-20.3584061 32.5357521,-10.8019313 C42.092227,-1.24545647 42.092227,14.2486506 32.5357521,23.8051254 C28.6403613,27.7005162 23.7584187,30.0080758 18.6941967,30.7278041 L31.5457118,43.5793192 C32.2654401,38.5150972 34.5729996,33.6331545 38.4683904,29.7377637 Z M4.85010672,16.8837141 C10.5839916,22.617599 19.8804559,22.617599 25.6143408,16.8837141 C31.3482257,11.1498292 31.3482257,1.85336494 25.6143408,-3.88051996 C19.8804559,-9.61440486 10.5839916,-9.61440486 4.85010672,-3.88051996 C-0.883778178,1.85336494 -0.883778178,11.1498292 4.85010672,16.8837141 Z M45.3898018,57.4234091 C51.1236867,63.157294 60.4201509,63.157294 66.1540358,57.4234091 C71.8879207,51.6895242 71.8879207,42.39306 66.1540358,36.6591751 C60.4201509,30.9252902 51.1236867,30.9252902 45.3898018,36.6591751 C39.6559169,42.39306 39.6559169,51.6895242 45.3898018,57.4234091 Z" id="Combined-Shape" fill="#FFFFFF" mask="url(#mask-2)"></path>
            </g>
        </g>
    </g>
</svg>