<?xml version="1.0" encoding="UTF-8"?>
<svg width="200px" height="50px" viewBox="0 0 200 50" version="1.1" xmlns="http://www.w3.org/2000/svg" xmlns:xlink="http://www.w3.org/1999/xlink">
    <!-- Generator: Sketch 44.1 (41455) - http://www.bohemiancoding.com/sketch -->
    <title>Wait_label</title>
    <desc>Created with Sketch.</desc>
    <defs>
        <path d="M12,0 L188,0 C194.627417,-1.21743675e-15 200,5.372583 200,12 L200,38 C200,44.627417 194.627417,50 188,50 L12,50 C5.372583,50 8.11624501e-16,44.627417 0,38 L0,12 C-8.11624501e-16,5.372583 5.372583,1.21743675e-15 12,0 Z" id="path-1"></path>
    </defs>
    <g id="Page-1" stroke="none" stroke-width="1" fill="none" fill-rule="evenodd">
        <g id="Wait_label">
            <g id="label">
                <mask id="mask-2" fill="white">
                    <use xlink:href="#path-1"></use>
                </mask>
                <use id="Mask" fill="#00AFF4" xlink:href="#path-1"></use>
                <path d="M27.4149301,34.5374079 C21.8133865,28.9358644 6.61498167,43.0918318 -14.1169591,19.6478926 L-18.251407,23.7823405 L-23,19.0337475 L28.0337475,-32 L32.7823405,-27.251407 L28.6478926,-23.1169591 C52.0918318,-2.38501833 37.9358644,12.8133865 43.5374079,18.4149301 C49.1389514,24.0164736 64.3373563,9.86050612 85.069297,33.3044453 L89.2037449,29.1699975 L93.9523379,33.9185905 L42.9185905,84.9523379 L38.1699975,80.2037449 L42.3044453,76.069297 C18.8605061,55.3373563 33.0164736,40.1389514 27.4149301,34.5374079 Z M-10.680255,16.0580081 C9.97792853,38.8631903 22.1632883,21.7327674 30.6598279,30.229307 C39.1563675,38.7258466 23.896916,50.9371467 46.7020983,71.5953302 L80.6194703,37.6779582 C59.9612868,14.8727759 48.010596,30.8891366 39.0052971,21.8838377 C29.9999983,12.8785389 47.3770137,1.46410513 24.5718315,-19.1940784 L-10.680255,16.0580081 Z M37.6025751,28.6025751 C51.5077969,32.2609697 62.3095871,24.8066079 73.3966459,38.7712715 L47.5768528,64.5910647 C34.0454133,55.1411206 39.8452691,38.2056661 37.6025751,28.6025751 Z M33.1171872,24.2838318 C27.1530229,19.662169 12.3893995,26.5410617 5.84820875,21.7265377 C14.6032811,16.8525718 26.0428374,10.5244889 32.2959043,4.271422 C30.3788422,12.1090404 31.4644982,20.6983767 33.1171872,24.2838318 Z M116.965,18.54 L119.225,18.54 C119.458335,18.54 119.653333,18.5949994 119.81,18.705 C119.966667,18.8150005 120.071666,18.9633324 120.125,19.15 L122.585,27.8 C122.645,28.0133344 122.7,28.2449987 122.75,28.495 C122.8,28.7450012 122.848333,29.0099986 122.895,29.29 C122.948334,29.0099986 123.006666,28.7450012 123.07,28.495 C123.133334,28.2449987 123.201666,28.0133344 123.275,27.8 L126.115,19.15 C126.168334,18.9966659 126.273333,18.8566673 126.43,18.73 C126.586667,18.6033327 126.778332,18.54 127.005,18.54 L127.795,18.54 C128.028335,18.54 128.221666,18.5949994 128.375,18.705 C128.528334,18.8150005 128.635,18.9633324 128.695,19.15 L131.515,27.8 C131.661667,28.2266688 131.788333,28.6999974 131.895,29.22 C131.941667,28.9599987 131.99,28.7100012 132.04,28.47 C132.09,28.2299988 132.141666,28.0066677 132.195,27.8 L134.655,19.15 C134.701667,18.9833325 134.804999,18.8400006 134.965,18.72 C135.125001,18.5999994 135.318332,18.54 135.545,18.54 L137.655,18.54 L133.165,33 L130.735,33 L127.575,23.12 C127.535,22.9933327 127.493334,22.8566674 127.45,22.71 C127.406666,22.5633326 127.365,22.4066675 127.325,22.24 C127.285,22.4066675 127.243334,22.5633326 127.2,22.71 C127.156666,22.8566674 127.115,22.9933327 127.075,23.12 L123.885,33 L121.455,33 L116.965,18.54 Z M151.945,33 L149.865,33 C149.631666,33 149.440001,32.9416672 149.29,32.825 C149.139999,32.7083327 149.031667,32.5633342 148.965,32.39 L147.885,29.44 L141.895,29.44 L140.815,32.39 C140.761666,32.5433341 140.656667,32.6833327 140.5,32.81 C140.343333,32.9366673 140.151668,33 139.925,33 L137.835,33 L143.515,18.54 L146.265,18.54 L151.945,33 Z M142.585,27.54 L147.195,27.54 L145.435,22.73 C145.355,22.5166656 145.266667,22.2650014 145.17,21.975 C145.073333,21.6849985 144.978334,21.3700017 144.885,21.03 C144.791666,21.3700017 144.7,21.6866652 144.61,21.98 C144.52,22.2733348 144.431667,22.5299989 144.345,22.75 L142.585,27.54 Z M156.465,33 L153.765,33 L153.765,18.54 L156.465,18.54 L156.465,33 Z M169.905,18.54 L169.905,20.75 L165.555,20.75 L165.555,33 L162.865,33 L162.865,20.75 L158.495,20.75 L158.495,18.54 L169.905,18.54 Z" id="Combined-Shape" fill="#FFFFFF" mask="url(#mask-2)"></path>
            </g>
        </g>
    </g>
</svg>