<?xml version="1.0" encoding="UTF-8"?>
<svg width="1968px" height="1968px" viewBox="0 0 1968 1968" version="1.1" xmlns="http://www.w3.org/2000/svg" xmlns:xlink="http://www.w3.org/1999/xlink">
    <!-- Generator: Sketch 44.1 (41455) - http://www.bohemiancoding.com/sketch -->
    <title>abandoned_icon</title>
    <desc>Created with Sketch.</desc>
    <defs></defs>
    <g id="Page-1" stroke="none" stroke-width="1" fill="none" fill-rule="evenodd">
        <g id="abandoned_icon" fill="#000000">
            <path d="M387.598244,81.5333915 L772.096828,475.746577 C797.235158,501.520044 796.720279,542.79221 770.946812,567.930541 C769.95277,568.900087 768.928003,569.837625 767.87408,570.74172 C679.985139,646.136174 617.195992,722.739737 579.506637,800.55241 C543.962861,1033.68772 920.419609,1451.12631 1170.16733,1391.2131 C1218.98637,1373.49248 1292.83766,1308.8544 1391.72119,1197.29885 C1415.60282,1170.35678 1456.80356,1167.87579 1483.74564,1191.75742 C1483.96502,1191.95188 1484.18308,1192.14782 1484.39982,1192.34522 L1891.2125,1562.86646 C1915.34197,1584.84335 1919.50027,1621.27761 1900.94336,1648.12637 C1770.67608,1836.6014 1644.10087,1937.79827 1521.21773,1951.71698 C997.035486,1959.96017 85.9953135,1289.43803 14.2025864,468.173274 C26.0985308,342.490204 121.871037,211.473726 301.520105,75.1238387 C327.720809,55.2380514 364.631624,57.9865056 387.598244,81.5333915 Z" id="Rectangle-4-Copy"></path>
            <path d="M1559.32091,466.254222 L1771.75095,253.824188 C1783.95583,235.47979 1778.97878,210.714702 1760.63438,198.509816 C1747.30394,189.640816 1729.96263,189.600532 1716.59113,198.407504 L1716.43627,198.509505 L1504.00623,410.939539 L1290.65429,197.587594 L1290.65429,197.587594 C1272.30989,185.382708 1247.5448,190.359766 1235.33992,208.704164 C1226.47092,222.034602 1226.43063,239.37591 1235.2376,252.747409 L1235.3396,252.902276 L1448.69155,466.254222 L1236.71755,678.228219 L1236.31598,678.875945 L1236.31598,678.875945 C1224.67547,697.651676 1230.45971,722.30891 1249.23544,733.949417 C1262.32327,742.063559 1278.90686,741.944216 1291.87655,733.642554 L1292.03223,733.542902 L1504.00623,521.568904 L1715.05832,732.62099 L1715.70604,733.022565 L1715.70604,733.022565 C1734.48178,744.663072 1759.13901,738.87883 1770.77952,720.103098 C1778.89366,707.015271 1778.77432,690.431686 1770.47265,677.461994 L1770.373,677.306308 L1559.32091,466.254222 Z M1503.62444,914.744617 C1255.24299,914.744617 1053.89004,713.391669 1053.89004,465.010221 C1053.89004,216.628772 1255.24299,15.2758241 1503.62444,15.2758241 C1752.00589,15.2758241 1953.35884,216.628772 1953.35884,465.010221 C1953.35884,713.391669 1752.00589,914.744617 1503.62444,914.744617 Z" id="Combined-Shape-Copy"></path>
        </g>
    </g>
</svg>