<?xml version="1.0" encoding="UTF-8"?>
<svg width="1968px" height="1968px" viewBox="0 0 1968 1968" version="1.1" xmlns="http://www.w3.org/2000/svg" xmlns:xlink="http://www.w3.org/1999/xlink">
    <!-- Generator: Sketch 44.1 (41455) - http://www.bohemiancoding.com/sketch -->
    <title>callbacks_icon</title>
    <desc>Created with Sketch.</desc>
    <defs></defs>
    <g id="Page-1" stroke="none" stroke-width="1" fill="none" fill-rule="evenodd">
        <g id="callbacks_icon" fill="#000000">
            <path d="M1697.26731,1470.91696 C1714.52168,1487.65934 1716.53566,1514.56686 1701.96402,1533.66685 C1602.05136,1664.62876 1506.04686,1734.44572 1413.9505,1743.11771 C812.155067,1690.78171 320.818803,1026.64486 326.859133,644.52259 C337.058305,554.942319 411.211999,462.67058 549.320215,367.707374 C568.994089,354.179618 595.691898,357.210968 611.795832,374.801042 C792.991724,572.719913 883.637168,671.732657 883.732164,671.839274 C901.231821,691.479708 899.413838,721.514535 879.671584,738.923939 C797.927402,811.008794 750.56277,864.845455 737.577687,900.433922 C693.675287,1082.49688 999.560365,1356.92912 1170.39415,1331.01815 C1227.41268,1303.54309 1283.54522,1257.77059 1340.8517,1191.46067 C1359.27223,1172.67214 1389.51509,1172.2968 1408.40103,1190.62232 L1697.26731,1470.91696 Z M1831.79072,1081.70587 C1828.67927,1086.7962 1824.56512,1091.20062 1819.69839,1094.65135 C1799.87523,1108.70689 1772.41113,1104.03132 1758.35559,1084.20816 L1758.35559,1084.20816 L1609.03632,873.616507 C1600.99519,862.27574 1601.79906,846.896138 1610.97867,836.455472 C1621.91882,824.012414 1640.87466,822.794066 1653.31772,833.734216 L1653.31772,833.734216 C1720.36355,892.68206 1753.77616,920.719458 1753.55556,917.846412 C1720.16156,482.93257 1358.565,140.545281 917.494833,140.545281 C454.402277,140.545281 78.9176078,517.976533 78.9176078,983.652312 C78.9176078,1449.32809 454.402277,1826.75934 917.494833,1826.75934 L921.556687,1827.99435 C934.354031,1831.88536 943.894099,1842.61599 946.260278,1855.78084 C949.741337,1875.14861 936.862609,1893.67125 917.494833,1897.15231 C415.4436,1897.15231 8.52463937,1488.12381 8.52463937,983.652312 C8.52463937,479.180817 415.4436,70.1523124 917.494833,70.1523124 C1398.15457,70.1523124 1791.61615,445.067455 1824.27291,919.712521 C1824.43283,922.03688 1853.82596,894.263214 1912.45229,836.391522 C1922.26313,826.706966 1937.41137,824.955109 1949.17367,832.144783 C1963.31045,840.785848 1967.76561,859.25094 1959.12455,873.387722 L1959.12455,873.387722 L1831.79072,1081.70587 Z" id="Combined-Shape"></path>
        </g>
    </g>
</svg>