<?xml version="1.0" encoding="UTF-8"?>
<svg width="2034px" height="2034px" viewBox="0 0 2034 2034" version="1.1" xmlns="http://www.w3.org/2000/svg" xmlns:xlink="http://www.w3.org/1999/xlink">
    <!-- Generator: Sketch 44.1 (41455) - http://www.bohemiancoding.com/sketch -->
    <title>IVRobject_icon</title>
    <desc>Created with Sketch.</desc>
    <defs></defs>
    <g id="Page-1" stroke="none" stroke-width="1" fill="none" fill-rule="evenodd">
        <g id="IVRobject_icon">
            <g id="circle" transform="translate(0.000000, 60.000000)">
                <path d="M778.013345,230.945499 L889.672294,424.344472 L889.672294,424.344472 C896.299711,435.823495 892.366708,450.501665 880.887685,457.129082 C877.239224,459.235522 873.100565,460.344472 868.887685,460.344472 L645.569786,460.344472 L645.569786,460.344472 C632.314952,460.344472 621.569786,449.599306 621.569786,436.344472 C621.569786,432.131592 622.678736,427.992933 624.785176,424.344472 L736.444125,230.945499 L736.444125,230.945499 C743.071542,219.466476 757.749712,215.533472 769.228735,222.160889 C772.877196,224.267329 775.906905,227.297038 778.013345,230.945499 Z" id="Polygon" fill="#000000" transform="translate(757.230739, 339.642982) rotate(-270.000000) translate(-757.230739, -339.642982) "></path>
                <circle id="Oval-2" stroke="#000000" stroke-width="150" cx="726" cy="340" r="265"></circle>
                <circle id="Oval-2-Copy" stroke="#000000" stroke-width="150" cx="340" cy="1573" r="265"></circle>
                <circle id="Oval-2-Copy-2" stroke="#000000" stroke-width="150" cx="1113" cy="1573" r="265"></circle>
                <circle id="Oval-2-Copy-3" stroke="#000000" stroke-width="150" cx="1694" cy="902" r="265"></circle>
                <path d="M646.084112,646.859375 L806.507788,646.859375 L806.507788,781.035522 C806.507788,803.126912 824.416398,821.035522 846.507788,821.035522 L1387.98633,821.035522 L1387.98633,982.598493 L1233.77259,982.598493 C1211.6812,982.598493 1193.77259,1000.5071 1193.77259,1022.59849 L1193.77259,1264.77734 L1033.34891,1264.77734 L1033.34891,1022.59849 C1033.34891,1000.5071 1015.4403,982.598493 993.34891,982.598493 L460.264798,982.598493 C438.173408,982.598493 420.264798,1000.5071 420.264798,1022.59849 L420.264798,1264.77734 L259.841121,1264.77734 L259.841121,902.035522 C259.841121,857.300457 296.106057,821.035522 340.841121,821.035522 L606.084112,821.035522 C628.175502,821.035522 646.084112,803.126912 646.084112,781.035522 L646.084112,646.859375 Z" id="Rectangle-3" fill="#000000"></path>
            </g>
        </g>
    </g>
</svg>