<?xml version="1.0" encoding="UTF-8"?>
<svg width="1923px" height="1923px" viewBox="0 0 1923 1923" version="1.1" xmlns="http://www.w3.org/2000/svg" xmlns:xlink="http://www.w3.org/1999/xlink">
    <!-- Generator: Sketch 44.1 (41455) - http://www.bohemiancoding.com/sketch -->
    <title>queues_icon2</title>
    <desc>Created with Sketch.</desc>
    <defs></defs>
    <g id="Page-1" stroke="none" stroke-width="1" fill="none" fill-rule="evenodd">
        <g id="queues_icon2" fill="#000000">
            <g id="queue" fill-rule="nonzero">
                <path d="M1409.4659,1664 C1409.4659,1744 1385.10724,1807.16667 1336.3899,1853.5 C1287.67257,1899.83333 1222.93857,1923 1142.18792,1923 L267.27798,1923 C186.52733,1923 121.793337,1899.83333 73.0760021,1853.5 C24.3586674,1807.16667 0,1744 0,1664 C0,1628.66667 1.16788131,1594.16667 3.50364394,1560.5 C5.83940656,1526.83333 10.5109318,1490.5 17.5182197,1451.5 C24.5255075,1412.5 33.3680375,1376.33333 44.0458095,1343 C54.7235815,1309.66667 69.0718376,1277.16667 87.0905778,1245.5 C105.109318,1213.83333 125.797501,1186.83333 149.155128,1164.5 C172.512754,1142.16667 201.042426,1124.33333 234.744144,1111 C268.445862,1097.66667 305.651223,1091 346.360229,1091 C353.033837,1091 367.382093,1098.16667 389.404997,1112.5 C411.427902,1126.83333 435.786569,1142.83333 462.480999,1160.5 C489.175429,1178.16667 524.87923,1194.16667 569.5924,1208.5 C614.30557,1222.83333 659.352421,1230 704.732952,1230 C750.113483,1230 795.160333,1222.83333 839.873503,1208.5 C884.586674,1194.16667 920.290474,1178.16667 946.984904,1160.5 C973.679334,1142.83333 998.038001,1126.83333 1020.06091,1112.5 C1042.08381,1098.16667 1056.43207,1091 1063.10567,1091 C1103.81468,1091 1141.02004,1097.66667 1174.72176,1111 C1208.42348,1124.33333 1236.95315,1142.16667 1260.31078,1164.5 C1283.6684,1186.83333 1304.35659,1213.83333 1322.37533,1245.5 C1340.39407,1277.16667 1354.74232,1309.66667 1365.42009,1343 C1376.09787,1376.33333 1384.9404,1412.5 1391.94768,1451.5 C1398.95497,1490.5 1403.6265,1526.83333 1405.96226,1560.5 C1408.29802,1594.16667 1409.4659,1628.66667 1409.4659,1664 Z M1089.13274,771 C1089.13274,877 1051.5937,967.5 976.515617,1042.5 C901.437533,1117.5 810.843311,1155 704.732952,1155 C598.622592,1155 508.028371,1117.5 432.950286,1042.5 C357.872202,967.5 320.33316,877 320.33316,771 C320.33316,665 357.872202,574.5 432.950286,499.5 C508.028371,424.5 598.622592,387 704.732952,387 C810.843311,387 901.437533,424.5 976.515617,499.5 C1051.5937,574.5 1089.13274,665 1089.13274,771 Z M1665.73243,996 C1665.73243,1048 1647.04633,1087.5 1609.67413,1114.5 C1572.30193,1141.5 1526.25403,1155 1471.53045,1155 L1337.39094,1155 C1268.65279,1073 1180.22749,1030.33333 1072.11504,1027 C1126.17126,949 1153.19938,863.666667 1153.19938,771 C1153.19938,751.666667 1151.53097,729.666667 1148.19417,705 C1192.23998,720.333333 1236.61947,728 1281.33264,728 C1320.70692,728 1360.41489,720.833333 1400.45653,706.5 C1440.49818,692.166667 1473.03201,678 1498.05804,664 C1523.08407,650 1537.59917,643 1541.60333,643 C1624.35606,643 1665.73243,760.666667 1665.73243,996 Z M1537.59917,387 C1537.59917,457.666667 1512.57314,518 1462.52108,568 C1412.46903,618 1352.07288,643 1281.33264,643 C1210.5924,643 1150.19625,618 1100.1442,568 C1050.09214,518 1025.06611,457.666667 1025.06611,387 C1025.06611,316.333333 1050.09214,256 1100.1442,206 C1150.19625,156 1210.5924,131 1281.33264,131 C1352.07288,131 1412.46903,156 1462.52108,206 C1512.57314,256 1537.59917,316.333333 1537.59917,387 Z M1922.4112,555.000879 C1922.4112,588.359082 1910.424,613.698486 1886.44958,631.019092 C1862.47517,648.339697 1832.93527,657 1797.82988,657 L1711.77886,657 C1667.68306,604.39668 1610.95789,577.025846 1541.60333,574.8875 C1576.28061,524.850195 1593.61925,470.108529 1593.61925,410.6625 C1593.61925,398.260091 1592.54896,384.147005 1590.40839,368.323242 C1618.66395,378.159635 1647.13356,383.077832 1675.81724,383.077832 C1701.07599,383.077832 1726.54881,378.480387 1752.23568,369.285498 C1777.92255,360.090609 1798.79313,351.002637 1814.84743,342.021582 C1830.90172,333.040527 1840.21321,328.55 1842.7819,328.55 C1895.8681,328.55 1922.4112,404.033626 1922.4112,555.000879 Z M1840.36406,164.775 C1840.36406,210.107943 1824.30976,248.812012 1792.20117,280.887207 C1760.09258,312.962402 1721.34822,329 1675.96808,329 C1630.58794,329 1591.84357,312.962402 1559.73498,280.887207 C1527.62639,248.812012 1511.5721,210.107943 1511.5721,164.775 C1511.5721,119.442057 1527.62639,80.7379883 1559.73498,48.662793 C1591.84357,16.5875977 1630.58794,0.55 1675.96808,0.55 C1721.34822,0.55 1760.09258,16.5875977 1792.20117,48.662793 C1824.30976,80.7379883 1840.36406,119.442057 1840.36406,164.775 Z" id="Shape"></path>
            </g>
            <path d="M474,1059.5315 C599,1000.5315 829.647059,973.060916 962,1035.5315 C886,1156.27633 962,1156.27633 991,1156.27633 C936,1378.27633 527,1420.5315 449,1171.5315 C500,1147.5315 506,1134.5315 474,1059.5315 Z" id="Rectangle-5"></path>
            <path d="M1087,552.842382 C1212,493.842382 1349.64706,482.371794 1482,544.842382 C1423,614.842382 1491,672.842382 1505,660.842382 C1450,882.842382 1226,954.842382 1148,705.842382 C1128,617.842382 1113,596.842382 1087,552.842382 Z" id="Rectangle-5-Copy"></path>
            <path d="M1551,271 C1624.56459,236.277512 1710.10808,248.235013 1788,285 C1753.27751,326.196172 1794.76077,355.062201 1803,348 C1770.63158,478.650718 1636.90431,519.54067 1591,373 C1579.22967,321.210526 1574,308 1551,271 Z" id="Rectangle-5-Copy-2"></path>
        </g>
    </g>
</svg>