<?xml version="1.0" encoding="UTF-8"?>
<svg width="1923px" height="1923px" viewBox="0 0 1923 1923" version="1.1" xmlns="http://www.w3.org/2000/svg" xmlns:xlink="http://www.w3.org/1999/xlink">
    <!-- Generator: Sketch 44.1 (41455) - http://www.bohemiancoding.com/sketch -->
    <title>queues_icon3</title>
    <desc>Created with Sketch.</desc>
    <defs></defs>
    <g id="Page-1" stroke="none" stroke-width="1" fill="none" fill-rule="evenodd">
        <g id="queues_icon3" fill-rule="nonzero" fill="#000000">
            <g id="queue" transform="translate(0.000000, 92.000000)">
                <path d="M1409.4659,1572 C1409.4659,1652 1385.10724,1715.16667 1336.3899,1761.5 C1287.67257,1807.83333 1222.93857,1831 1142.18792,1831 L267.27798,1831 C186.52733,1831 121.793337,1807.83333 73.0760021,1761.5 C24.3586674,1715.16667 0,1652 0,1572 C0,1536.66667 1.16788131,1502.16667 3.50364394,1468.5 C5.83940656,1434.83333 10.5109318,1398.5 17.5182197,1359.5 C24.5255075,1320.5 33.3680375,1284.33333 44.0458095,1251 C54.7235815,1217.66667 69.0718376,1185.16667 87.0905778,1153.5 C105.109318,1121.83333 125.797501,1094.83333 149.155128,1072.5 C172.512754,1050.16667 201.042426,1032.33333 234.744144,1019 C268.445862,1005.66667 305.651223,999 346.360229,999 C353.033837,999 367.382093,1006.16667 389.404997,1020.5 C411.427902,1034.83333 435.786569,1050.83333 462.480999,1068.5 C489.175429,1086.16667 524.87923,1102.16667 569.5924,1116.5 C614.30557,1130.83333 659.352421,1138 704.732952,1138 C750.113483,1138 795.160333,1130.83333 839.873503,1116.5 C884.586674,1102.16667 920.290474,1086.16667 946.984904,1068.5 C973.679334,1050.83333 998.038001,1034.83333 1020.06091,1020.5 C1042.08381,1006.16667 1056.43207,999 1063.10567,999 C1103.81468,999 1141.02004,1005.66667 1174.72176,1019 C1208.42348,1032.33333 1236.95315,1050.16667 1260.31078,1072.5 C1283.6684,1094.83333 1304.35659,1121.83333 1322.37533,1153.5 C1340.39407,1185.16667 1354.74232,1217.66667 1365.42009,1251 C1376.09787,1284.33333 1384.9404,1320.5 1391.94768,1359.5 C1398.95497,1398.5 1403.6265,1434.83333 1405.96226,1468.5 C1408.29802,1502.16667 1409.4659,1536.66667 1409.4659,1572 Z M1130.03319,686 C1130.03319,803.278484 1088.49996,903.407756 1005.43351,986.387815 C922.367056,1069.36787 822.133537,1110.8579 704.732952,1110.8579 C587.332366,1110.8579 487.098847,1069.36787 404.032395,986.387815 C320.965943,903.407756 279.432717,803.278484 279.432717,686 C279.432717,568.721516 320.965943,468.592244 404.032395,385.612185 C487.098847,302.632125 587.332366,261.142096 704.732952,261.142096 C822.133537,261.142096 922.367056,302.632125 1005.43351,385.612185 C1088.49996,468.592244 1130.03319,568.721516 1130.03319,686 Z M1675.61739,931.55 C1675.61739,983.55 1656.93129,1023.05 1619.55908,1050.05 C1582.18688,1077.05 1536.13899,1090.55 1481.41541,1090.55 L1347.2759,1090.55 C1278.53774,1008.55 1190.11244,965.883333 1082,962.55 C1136.05622,884.55 1163.08433,799.216667 1163.08433,706.55 C1163.08433,687.216667 1161.41593,665.216667 1158.07913,640.55 C1202.12493,655.883333 1246.50442,663.55 1291.2176,663.55 C1330.59188,663.55 1370.29984,656.383333 1410.34149,642.05 C1450.38313,627.716667 1482.91697,613.55 1507.943,599.55 C1532.96903,585.55 1547.48412,578.55 1551.48829,578.55 C1634.24102,578.55 1675.61739,696.216667 1675.61739,931.55 Z M1541.53306,370.55 C1541.53306,441.216667 1516.50703,501.55 1466.45497,551.55 C1416.40292,601.55 1356.00677,626.55 1285.26653,626.55 C1214.52629,626.55 1154.13014,601.55 1104.07808,551.55 C1054.02603,501.55 1029,441.216667 1029,370.55 C1029,299.883333 1054.02603,239.55 1104.07808,189.55 C1154.13014,139.55 1214.52629,114.55 1285.26653,114.55 C1356.00677,114.55 1416.40292,139.55 1466.45497,189.55 C1516.50703,239.55 1541.53306,299.883333 1541.53306,370.55 Z M1892.80787,525.000879 C1892.80787,558.359082 1880.82067,583.698486 1856.84625,601.019092 C1832.87184,618.339697 1803.33194,627 1768.22654,627 L1682.17552,627 C1638.07973,574.39668 1581.35455,547.025846 1512,544.8875 C1546.67728,494.850195 1564.01592,440.108529 1564.01592,380.6625 C1564.01592,368.260091 1562.94563,354.147005 1560.80506,338.323242 C1589.06061,348.159635 1617.53023,353.077832 1646.2139,353.077832 C1671.47266,353.077832 1696.94548,348.480387 1722.63235,339.285498 C1748.31922,330.090609 1769.1898,321.002637 1785.2441,312.021582 C1801.29839,303.040527 1810.60988,298.55 1813.17857,298.55 C1866.26477,298.55 1892.80787,374.033626 1892.80787,525.000879 Z M1799.79196,164.775 C1799.79196,210.107943 1783.73766,248.812012 1751.62907,280.887207 C1719.52048,312.962402 1680.77612,329 1635.39598,329 C1590.01584,329 1551.27147,312.962402 1519.16288,280.887207 C1487.05429,248.812012 1471,210.107943 1471,164.775 C1471,119.442057 1487.05429,80.7379883 1519.16288,48.662793 C1551.27147,16.5875977 1590.01584,0.55 1635.39598,0.55 C1680.77612,0.55 1719.52048,16.5875977 1751.62907,48.662793 C1783.73766,80.7379883 1799.79196,119.442057 1799.79196,164.775 Z" id="Shape"></path>
            </g>
        </g>
    </g>
</svg>