<?xml version="1.0" encoding="UTF-8"?>
<svg width="1923px" height="1923px" viewBox="0 0 1923 1923" version="1.1" xmlns="http://www.w3.org/2000/svg" xmlns:xlink="http://www.w3.org/1999/xlink">
    <!-- Generator: Sketch 44.1 (41455) - http://www.bohemiancoding.com/sketch -->
    <title>Artboard 3</title>
    <desc>Created with Sketch.</desc>
    <defs></defs>
    <g id="Page-1" stroke="none" stroke-width="1" fill="none" fill-rule="evenodd">
        <g id="Artboard-3" fill="#000000">
            <path d="M1125.93468,1227.47368 C1070.34703,1153.46825 1037.40789,1061.47882 1037.40789,961.796053 C1037.40789,717.246545 1235.65444,519 1480.20395,519 C1724.75345,519 1923,717.246545 1923,961.796053 C1923,1202.11433 1731.55428,1397.71807 1492.85526,1404.41485 L1492.85526,1404.59211 L404.842105,1404.59211 L404.842105,1402.98826 C178.05964,1383.73679 0,1193.56045 0,961.796053 C0,717.246545 198.246545,519 442.796053,519 C687.34556,519 885.592105,717.246545 885.592105,961.796053 C885.592105,1061.47882 852.652965,1153.46825 797.065324,1227.47368 L1125.93468,1227.47368 L1125.93468,1227.47368 Z M442.796053,1227.47368 C589.525757,1227.47368 708.473684,1108.52576 708.473684,961.796053 C708.473684,815.066348 589.525757,696.118421 442.796053,696.118421 C296.066348,696.118421 177.118421,815.066348 177.118421,961.796053 C177.118421,1108.52576 296.066348,1227.47368 442.796053,1227.47368 Z M1480.20395,1227.47368 C1626.93365,1227.47368 1745.88158,1108.52576 1745.88158,961.796053 C1745.88158,815.066348 1626.93365,696.118421 1480.20395,696.118421 C1333.47424,696.118421 1214.52632,815.066348 1214.52632,961.796053 C1214.52632,1108.52576 1333.47424,1227.47368 1480.20395,1227.47368 Z" id="Combined-Shape-Copy-2"></path>
        </g>
    </g>
</svg>